<svg width="1355" height="298" viewBox="0 0 1355 298" fill="none" xmlns="http://www.w3.org/2000/svg">
<path fill-rule="evenodd" clip-rule="evenodd" d="M150.67 11.6181L143.252 57.9167H173.823V57.9232H248.378C249.533 57.9125 250.766 57.9003 252.082 57.9003C260.73 58.3332 265.791 63.2141 267.807 68.449C271.192 75.2108 268.237 82.7262 262.123 87.1817C251.054 95.2482 239.04 103.904 226.082 113.15C209.15 124.829 192.619 137.115 176.493 150.002C168.833 155.64 159.964 163.091 149.885 172.353C140.21 181.212 131.944 188.462 125.09 194.1C136.379 188.462 146.862 185.64 156.538 185.64C169.438 185.641 180.928 189.871 191.006 198.328C193.021 199.953 195.06 201.645 197.134 203.389C201.671 198.313 206.563 193.002 211.808 187.454C218.662 180.205 225.111 173.558 231.159 167.518C237.205 161.075 242.044 156.442 245.672 153.623C262.201 139.529 277.521 126.04 291.63 113.153C298.996 106.409 306.676 99.6124 314.665 92.7644L261.286 92.7578C262.49 91.8831 263.687 91.0181 264.869 90.1567C271.971 84.9799 276.037 75.6975 271.738 66.9304C270.375 63.4992 267.958 60.2719 264.484 57.9167L341.601 57.9232C342.797 57.9116 344.078 57.897 345.449 57.897C354.097 58.3299 359.158 63.2144 361.175 68.449C364.559 75.2108 361.608 82.7262 355.494 87.1817C344.424 95.2485 332.411 103.907 319.453 113.153C302.52 124.832 285.989 137.115 269.863 150.002C262.203 155.64 253.334 163.09 243.256 172.353C233.58 181.212 225.314 188.462 218.461 194.1C229.748 188.462 240.23 185.641 249.905 185.64C262.805 185.641 274.298 189.868 284.377 198.324C294.858 206.781 306.146 216.852 318.241 228.531C330.335 240.612 342.428 251.085 354.522 259.944C366.616 268.804 376.902 273.232 385.368 273.232C388.189 272.829 391.01 272.226 393.83 271.421C396.652 270.616 399.072 269.407 401.087 267.797C404.312 264.978 405.927 261.755 405.927 258.13C405.927 253.701 404.111 249.068 400.483 244.236C396.855 239.807 393.628 236.787 390.806 235.176C390.404 234.775 390.206 234.371 390.205 233.969C390.205 232.761 391.01 231.75 392.622 230.945C394.234 230.14 395.847 230.141 397.459 230.945C402.7 233.764 406.935 237.794 410.16 243.029C413.384 248.263 415 254.102 415 260.545C415 266.988 412.98 273.029 408.948 278.667C405.32 283.902 400.281 288.334 393.83 291.958C387.38 295.985 380.528 298 373.271 298C367.224 298 361.176 296.186 355.129 292.562C349.082 289.34 341.422 283.097 332.15 273.836C329.06 270.608 325.529 266.839 321.557 262.536C321.183 268.237 319.195 273.616 315.581 278.67C311.953 283.905 306.913 288.334 300.463 291.958C294.013 295.985 287.158 298 279.901 298C273.854 298 267.806 296.186 261.759 292.562C255.712 289.34 248.052 283.097 238.78 273.836C229.911 264.573 217.413 250.881 201.287 232.759C199.894 231.114 198.507 229.5 197.134 227.914C196.99 228.327 196.849 228.737 196.69 229.134C195.884 231.148 194.875 233.163 193.666 235.176C192.457 237.189 190.441 238.197 187.621 238.197C185.605 238.197 183.789 237.387 182.177 235.777C180.162 234.166 179.153 231.952 179.152 229.134C179.153 227.926 179.958 225.711 181.569 222.492C182.63 220.585 184.196 218.345 186.261 215.768C182.732 211.958 179.276 208.357 175.888 204.973C168.228 196.919 158.753 192.889 147.465 192.889C138.596 192.89 129.928 195.711 121.462 201.349C112.997 206.584 107.555 213.63 105.136 222.489C104.733 224.905 104.126 227.121 103.32 229.134C102.514 231.148 101.505 233.163 100.296 235.176C99.0862 237.189 97.0714 238.197 94.2504 238.197C92.2349 238.197 90.4186 237.391 88.8061 235.78C86.7908 234.169 85.7819 231.953 85.7819 229.134C85.7822 227.926 86.5896 225.71 88.2019 222.489C90.2178 218.865 94.0478 214.031 99.6914 207.991C105.335 201.548 111.585 194.703 118.438 187.454C125.291 180.205 131.741 173.558 137.788 167.518C143.834 161.075 148.674 156.446 152.302 153.627C168.831 139.531 184.153 126.037 198.263 113.15C205.628 106.406 213.307 99.6121 221.295 92.7644H173.823V92.7939H137.693L124.568 175.702C121.708 178.659 118.769 181.734 115.755 184.922C108.907 192.165 102.648 199.014 96.989 205.472C94.9754 207.627 93.1653 209.661 91.5644 211.566C85.4597 202.772 83.5335 191.165 85.7819 176.751L99.0675 92.7939H58.2091L36.9213 227.678H0L25.6485 57.897L104.321 57.9167L111.736 11.6181H150.67ZM240.832 192.893C231.964 192.893 223.297 195.709 214.832 201.345C210.82 203.827 207.491 206.722 204.837 210.018C211.248 215.66 217.929 221.828 224.87 228.531C236.965 240.612 249.06 251.085 261.155 259.944C273.249 268.804 283.532 273.232 291.998 273.232C294.819 272.829 297.642 272.227 300.463 271.421C303.285 270.616 305.704 269.408 307.72 267.797C310.945 264.978 312.557 261.755 312.557 258.13C312.557 255.835 312.067 253.486 311.092 251.082C306.113 245.582 300.634 239.475 294.658 232.759C285.788 222.288 277.318 213.024 269.255 204.97C261.596 196.917 252.12 192.893 240.832 192.893Z" fill="#D8FF63"/>
<path d="M147.465 196.583C157.759 196.583 166.262 200.204 173.212 207.512L173.245 207.548L173.278 207.581C173.459 207.762 173.641 207.946 173.823 208.129V227.678H129.349C121.365 227.678 114.42 226.584 108.518 224.404C108.586 224.061 108.664 223.717 108.725 223.368C110.889 215.532 115.695 209.253 123.406 204.484L123.462 204.452L123.511 204.416C131.461 199.121 139.428 196.583 147.465 196.583Z" fill="#D8FF63"/>
<path d="M54.6924 0C62.3133 0.000276751 68.0836 2.05809 71.9972 6.17314C76.1163 10.0824 77.5572 15.4332 76.3217 22.2227C75.2918 29.0123 72.2009 34.4685 67.052 38.5838C61.903 42.492 55.4123 44.4449 47.5866 44.4453C39.76 44.4451 33.8868 42.4926 29.9731 38.5838C26.0595 34.4684 24.6187 29.0128 25.6485 22.2227C26.8847 15.4333 30.0779 10.0824 35.2269 6.17314C40.3762 2.0588 46.8661 0.000266936 54.6924 0Z" fill="#D8FF63"/>
<path d="M593.812 107.21C601.89 107.21 608.685 108.643 614.196 111.507C619.708 114.371 623.853 118.836 626.63 124.901C629.449 130.967 630.858 138.78 630.858 148.342C630.858 157.988 629.449 165.865 626.63 171.973C623.853 178.038 619.688 182.524 614.134 185.431C608.622 188.295 601.826 189.727 593.748 189.727H576.393V107.21H593.812Z" fill="url(#paint0_linear_553_63)"/>
<path d="M1032.07 106.136C1037.33 106.136 1041.68 106.915 1045.13 108.474C1048.63 109.99 1051.21 112.222 1052.9 115.171C1054.62 118.119 1055.48 121.742 1055.48 126.038C1055.48 130.292 1054.62 133.853 1052.9 136.717C1051.21 139.581 1048.65 141.729 1045.2 143.161C1041.75 144.593 1037.41 145.31 1032.2 145.31H1013.64V106.136H1032.07Z" fill="url(#paint1_linear_553_63)"/>
<path fill-rule="evenodd" clip-rule="evenodd" d="M1327 60C1342.46 60 1355 72.536 1355 88V210C1355 225.464 1342.46 238 1327 238H417.629L417.441 237.699C413.458 231.451 408.197 226.502 401.722 223.019L401.601 222.953L401.477 222.892C397.337 220.826 392.747 220.824 388.602 222.894C385.595 224.396 381.206 227.827 381.205 233.969V233.983C381.207 235.513 381.541 236.854 382.03 238H341.539C335.91 233.094 330.262 227.818 324.602 222.163L324.548 222.109L324.492 222.057L322.206 219.858C312.304 210.382 269.401 170.378 260.5 163L248 176.5C258.036 168.914 314.224 127.693 324.562 120.562L324.621 120.521L324.68 120.479C337.66 111.218 349.697 102.542 360.794 94.4551C369.321 88.2412 374.988 76.4223 369.398 64.7832C368.724 63.1266 367.857 61.5193 366.808 60H1327ZM664.148 83.7695V167.803C664.148 177.238 666.378 185.494 670.838 192.57C675.298 199.647 681.546 205.165 689.582 209.124C697.618 213.041 707.001 215 717.73 215C728.417 215 737.779 213.041 745.815 209.124C753.852 205.165 760.1 199.647 764.56 192.57C769.062 185.494 771.312 177.238 771.312 167.803V83.7695H743.984V165.465C743.984 170.393 742.891 174.773 740.703 178.606C738.557 182.44 735.507 185.451 731.552 187.642C727.639 189.832 723.032 190.928 717.73 190.928C712.471 190.928 707.863 189.832 703.908 187.642C699.953 185.451 696.882 182.439 694.694 178.606C692.549 174.773 691.476 170.393 691.476 165.465V83.7695H664.148ZM827.796 82C818.371 82 809.956 83.6432 802.551 86.9287C795.146 90.2141 789.319 94.784 785.069 100.639C780.862 106.494 778.778 113.339 778.82 121.174C778.778 130.735 781.913 138.338 788.225 143.982C794.536 149.627 803.14 153.776 814.037 156.43L828.111 159.968C832.824 161.105 836.8 162.369 840.04 163.759C843.322 165.149 845.803 166.834 847.486 168.813C849.211 170.793 850.074 173.236 850.074 176.143C850.074 179.26 849.128 182.019 847.234 184.42C845.341 186.821 842.669 188.695 839.219 190.043C835.811 191.391 831.793 192.064 827.165 192.064C822.453 192.064 818.224 191.348 814.479 189.916C810.777 188.442 807.81 186.272 805.58 183.408C803.392 180.502 802.151 176.879 801.856 172.541H775.413C775.623 181.85 777.874 189.664 782.166 195.982C786.5 202.258 792.516 206.997 800.216 210.198C807.958 213.399 817.046 215 827.48 215C837.999 215 846.982 213.421 854.429 210.262C861.918 207.06 867.641 202.574 871.596 196.804C875.593 190.991 877.612 184.125 877.654 176.206C877.612 170.815 876.624 166.033 874.688 161.863C872.795 157.693 870.123 154.071 866.673 150.996C863.223 147.921 859.141 145.331 854.429 143.225C849.716 141.119 844.541 139.434 838.903 138.17L827.291 135.39C824.472 134.758 821.821 134 819.339 133.115C816.857 132.189 814.669 131.114 812.775 129.893C810.882 128.629 809.388 127.133 808.294 125.406C807.242 123.679 806.759 121.657 806.843 119.341C806.843 116.561 807.642 114.076 809.241 111.886C810.882 109.695 813.238 107.989 816.31 106.768C819.381 105.504 823.147 104.872 827.606 104.872C834.17 104.872 839.367 106.283 843.195 109.105C847.024 111.928 849.19 115.887 849.695 120.983H875.888C875.761 113.275 873.699 106.494 869.702 100.639C865.705 94.7838 860.109 90.2142 852.914 86.9287C845.761 83.6433 837.389 82 827.796 82ZM1267.14 82C1257.72 82 1249.3 83.6432 1241.9 86.9287C1234.49 90.2142 1228.66 94.7838 1224.41 100.639C1220.21 106.494 1218.12 113.339 1218.17 121.174C1218.12 130.735 1221.26 138.338 1227.57 143.982C1233.88 149.627 1242.49 153.776 1253.38 156.43L1267.46 159.968C1272.17 161.105 1276.15 162.369 1279.38 163.759C1282.67 165.149 1285.15 166.834 1286.83 168.813C1288.56 170.793 1289.42 173.236 1289.42 176.143C1289.42 179.26 1288.47 182.019 1286.58 184.42C1284.69 186.821 1282.01 188.695 1278.56 190.043C1275.16 191.391 1271.14 192.064 1266.51 192.064C1261.8 192.064 1257.57 191.348 1253.83 189.916C1250.12 188.442 1247.16 186.272 1244.93 183.408C1242.74 180.502 1241.5 176.879 1241.2 172.541H1214.76C1214.97 181.85 1217.22 189.664 1221.51 195.982C1225.85 202.258 1231.86 206.997 1239.56 210.198C1247.3 213.399 1256.39 215 1266.83 215C1277.34 215 1286.33 213.421 1293.77 210.262C1301.26 207.06 1306.99 202.574 1310.94 196.804C1314.94 190.991 1316.96 184.125 1317 176.206C1316.96 170.815 1315.97 166.033 1314.03 161.863C1312.14 157.693 1309.47 154.071 1306.02 150.996C1302.57 147.921 1298.49 145.331 1293.77 143.225C1289.06 141.119 1283.89 139.434 1278.25 138.17L1266.64 135.39C1263.82 134.758 1261.17 134 1258.68 133.115C1256.2 132.189 1254.01 131.114 1252.12 129.893C1250.23 128.629 1248.73 127.133 1247.64 125.406C1246.59 123.679 1246.1 121.657 1246.19 119.341C1246.19 116.561 1246.99 114.076 1248.59 111.886C1250.23 109.695 1252.58 107.989 1255.66 106.768C1258.73 105.504 1262.49 104.872 1266.95 104.872C1273.52 104.872 1278.71 106.283 1282.54 109.105C1286.37 111.928 1288.54 115.887 1289.04 120.983H1315.23C1315.11 113.275 1313.04 106.493 1309.05 100.639C1305.05 94.7838 1299.45 90.2142 1292.26 86.9287C1285.11 83.6432 1276.73 82 1267.14 82ZM397 83.7695V213.168H424.327V83.7695H397ZM432.594 83.7695V213.168H459.921V131.725H460.867L517.101 213.168H540.704V83.7695H513.503V165.148H512.367L456.576 83.7695H432.594ZM549.064 83.7695V213.168H594.885C608.012 213.168 619.287 210.577 628.712 205.396C638.179 200.215 645.437 192.781 650.486 183.093C655.577 173.405 658.123 161.821 658.123 148.342C658.123 134.905 655.577 123.364 650.486 113.718C645.437 104.072 638.221 96.6799 628.839 91.541C619.456 86.36 608.264 83.7695 595.263 83.7695H549.064ZM876.896 83.7695V106.325H916.467V213.168H943.479V106.325H983.05V83.7695H876.896ZM986.313 83.7695V213.168H1013.64V167.297H1033.59L1058.07 213.168H1088.24L1060.82 162.896C1061.21 162.724 1061.6 162.549 1061.99 162.368C1069.01 159.083 1074.38 154.366 1078.08 148.216C1081.78 142.024 1083.63 134.631 1083.63 126.038C1083.63 117.488 1081.8 110.054 1078.14 103.735C1074.52 97.3749 1069.24 92.4677 1062.3 89.0137C1055.4 85.5176 1047.07 83.7695 1037.31 83.7695H986.313ZM1088.73 83.7695V213.168H1116.05V83.7695H1088.73ZM1124.32 83.7695V213.168H1211.67V190.611H1151.65V159.715H1206.93V137.158H1151.65V106.325H1211.42V83.7695H1124.32Z" fill="url(#paint2_linear_553_63)"/>
<path d="M361.175 68.4492C361.281 68.6605 361.38 68.8724 361.474 69.085C361.427 68.9786 361.378 68.8727 361.328 68.7666L361.175 68.4492Z" fill="url(#paint3_linear_553_63)"/>
<defs>
<linearGradient id="paint0_linear_553_63" x1="592.5" y1="149" x2="296" y2="149" gradientUnits="userSpaceOnUse">
<stop stop-color="white"/>
<stop offset="1" stop-color="white" stop-opacity="0"/>
</linearGradient>
<linearGradient id="paint1_linear_553_63" x1="592.5" y1="149" x2="296" y2="149" gradientUnits="userSpaceOnUse">
<stop stop-color="white"/>
<stop offset="1" stop-color="white" stop-opacity="0"/>
</linearGradient>
<linearGradient id="paint2_linear_553_63" x1="592.5" y1="149" x2="296" y2="149" gradientUnits="userSpaceOnUse">
<stop stop-color="white"/>
<stop offset="1" stop-color="white" stop-opacity="0"/>
</linearGradient>
<linearGradient id="paint3_linear_553_63" x1="592.5" y1="149" x2="296" y2="149" gradientUnits="userSpaceOnUse">
<stop stop-color="white"/>
<stop offset="1" stop-color="white" stop-opacity="0"/>
</linearGradient>
</defs>
</svg>
