<svg width="1030" height="741" viewBox="0 0 1030 741" fill="none" xmlns="http://www.w3.org/2000/svg">
<path fill-rule="evenodd" clip-rule="evenodd" d="M373.943 28.8657L355.533 143.897H431.405V143.913H616.441C619.306 143.886 622.367 143.856 625.634 143.856C647.097 144.932 659.658 157.059 664.662 170.065C673.062 186.865 665.729 205.537 650.555 216.607C623.083 236.649 593.266 258.156 561.105 281.127C519.081 310.144 478.053 340.669 438.031 372.688C419.02 386.695 397.008 405.206 371.995 428.219C347.981 450.231 327.467 468.242 310.457 482.25C338.473 468.242 364.492 461.233 388.506 461.232C420.522 461.233 449.038 471.744 474.052 492.755C479.051 496.793 484.112 500.996 489.259 505.33C500.52 492.719 512.661 479.523 525.679 465.739C542.688 447.729 558.696 431.214 573.705 416.206C588.712 400.198 600.721 388.688 609.726 381.685C650.746 346.667 688.769 313.152 723.787 281.135C742.068 264.378 761.127 247.492 780.956 230.478L648.477 230.461C651.464 228.288 654.434 226.139 657.368 223.999C674.996 211.137 685.087 188.074 674.417 166.292C671.035 157.767 665.035 149.748 656.414 143.897L847.807 143.913C850.775 143.884 853.954 143.848 857.358 143.848C878.82 144.924 891.382 157.059 896.386 170.065C904.786 186.865 897.462 205.537 882.288 216.607C854.814 236.65 825 258.163 792.838 281.135C750.814 310.152 709.786 340.669 669.763 372.688C650.753 386.695 628.741 405.206 603.728 428.219C579.714 450.231 559.2 468.242 542.19 482.25C570.204 468.243 596.218 461.234 620.23 461.232C652.247 461.233 680.771 471.736 705.784 492.747C731.799 513.758 759.814 538.78 789.831 567.796C819.847 597.812 849.86 623.833 879.875 645.844C909.892 667.857 935.42 678.858 956.432 678.858C963.432 677.858 970.434 676.359 977.434 674.36C984.436 672.359 990.442 669.355 995.444 665.354C1003.45 658.351 1007.46 650.343 1007.46 641.338C1007.46 630.332 1002.95 618.822 993.945 606.816C984.941 595.812 976.931 588.309 969.928 584.307C968.931 583.309 968.438 582.306 968.437 581.308C968.437 578.307 970.433 575.795 974.435 573.794C978.435 571.795 982.439 571.796 986.439 573.794C999.446 580.798 1009.96 590.81 1017.96 603.817C1025.96 616.823 1029.97 631.33 1029.97 647.336C1029.97 663.345 1024.96 678.354 1014.95 692.362C1005.95 705.369 993.443 716.379 977.434 725.384C961.426 735.389 944.418 740.395 926.409 740.396C911.401 740.395 896.391 735.888 881.383 726.884C866.375 718.879 847.364 703.369 824.352 680.358C816.681 672.338 807.92 662.976 798.062 652.283C797.133 666.448 792.199 679.813 783.23 692.37C774.225 705.376 761.717 716.38 745.709 725.384C729.7 735.39 712.687 740.396 694.677 740.396C679.669 740.395 664.658 735.888 649.65 726.884C634.642 718.878 615.631 703.369 592.62 680.358C570.607 657.345 539.589 623.325 499.568 578.301C496.109 574.213 492.668 570.203 489.259 566.264C488.903 567.29 488.553 568.308 488.159 569.296C486.158 574.298 483.654 579.305 480.653 584.307C477.652 589.308 472.65 591.811 465.65 591.813C460.647 591.812 456.139 589.8 452.138 585.799C447.138 581.797 444.633 576.296 444.632 569.296C444.634 566.294 446.632 560.789 450.63 552.793C453.262 548.055 457.151 542.488 462.276 536.086C453.515 526.619 444.939 517.673 436.531 509.266C417.52 489.255 394.004 479.243 365.989 479.243C343.977 479.244 322.464 486.253 301.452 500.261C280.443 513.267 266.936 530.774 260.933 552.785C259.932 558.788 258.427 564.293 256.426 569.296C254.425 574.299 251.922 579.304 248.92 584.307C245.919 589.308 240.918 591.812 233.917 591.813C228.914 591.812 224.407 589.809 220.405 585.807C215.403 581.804 212.899 576.299 212.899 569.296C212.9 566.294 214.904 560.788 218.905 552.785C223.908 543.78 233.414 531.771 247.421 516.764C261.428 500.755 276.938 483.748 293.946 465.739C310.956 447.729 326.964 431.214 341.972 416.206C356.978 400.2 368.988 388.697 377.993 381.693C419.016 346.673 457.042 313.145 492.062 281.127C510.341 264.371 529.398 247.491 549.223 230.478H431.405V230.551H341.735L309.162 436.539C302.062 443.888 294.769 451.527 287.288 459.448C270.292 477.444 254.758 494.46 240.714 510.505C235.716 515.859 231.224 520.914 227.25 525.647C212.1 503.797 207.319 474.958 212.899 439.147L245.872 230.551H144.467L91.6337 565.677H0L63.6562 143.848L258.911 143.897L277.313 28.8657H373.943ZM597.713 479.251C575.704 479.253 554.193 486.248 533.185 500.253C523.226 506.418 514.965 513.61 508.378 521.8C524.288 535.817 540.869 551.142 558.098 567.796C588.115 597.813 618.134 623.832 648.151 645.844C678.167 667.856 703.688 678.858 724.7 678.858C731.702 677.858 738.707 676.36 745.709 674.36C752.713 672.359 758.717 669.356 763.72 665.354C771.724 658.35 775.724 650.343 775.724 641.338C775.724 635.634 774.508 629.797 772.089 623.824C759.731 610.161 746.133 594.987 731.301 578.301C709.288 552.286 688.267 529.269 668.256 509.258C649.246 489.25 625.727 479.251 597.713 479.251Z" fill="#D8FF63"/>
<path d="M135.739 0C154.653 0.000687602 168.974 5.11343 178.687 15.3375C188.91 25.0503 192.486 38.3446 189.42 55.2133C186.864 72.0825 179.193 85.6388 166.414 95.8633C153.635 105.574 137.526 110.426 118.103 110.427C98.679 110.426 84.1024 105.575 74.3892 95.8633C64.6763 85.6385 61.1002 72.0836 63.6562 55.2133C66.7241 38.3447 74.6492 25.0503 87.4285 15.3375C100.208 5.11518 116.315 0.000663215 135.739 0Z" fill="#D8FF63"/>
<path d="M969.311 583.604C969.299 583.589 969.286 583.573 969.274 583.558C969.233 583.502 969.193 583.446 969.154 583.39C969.204 583.461 969.256 583.533 969.311 583.604Z" fill="#D8FF63"/>
<path d="M365.988 488.419C369.869 488.419 374.192 488.628 378.793 489.044C398.733 491.618 415.693 500.399 430.006 515.465L430.086 515.549L430.167 515.63C436.823 522.285 443.592 529.293 450.487 536.641C447.374 540.859 444.779 544.792 442.763 548.422L442.667 548.593L442.58 548.769C440.498 552.934 438.835 556.647 437.674 559.844C437 561.698 436.377 563.688 436.001 565.678H321.027C301.212 565.678 283.975 562.958 269.327 557.544C269.497 556.691 269.689 555.837 269.84 554.969C275.211 535.5 287.139 519.9 306.276 508.052L306.415 507.971L306.537 507.881C326.268 494.728 346.042 488.42 365.988 488.419Z" fill="#D8FF63"/>
<path d="M784.953 563.101C785.04 563.184 785.127 563.267 785.214 563.351C785.369 563.5 785.524 563.649 785.68 563.798C785.437 563.565 785.195 563.333 784.953 563.101Z" fill="#D8FF63"/>
<path d="M574.135 415.749C574.926 414.906 575.709 414.075 576.483 413.258C576.519 413.22 576.555 413.181 576.591 413.144C575.781 413.998 574.963 414.867 574.135 415.749Z" fill="#D8FF63"/>
<path d="M675.615 168.955C675.64 169.016 675.664 169.077 675.688 169.138L675.687 169.133C675.663 169.074 675.639 169.014 675.615 168.955Z" fill="#D8FF63"/>
<path d="M858.357 143.906C858.394 143.909 858.43 143.912 858.467 143.914C858.1 143.889 857.73 143.867 857.358 143.848L858.357 143.906Z" fill="#D8FF63"/>
</svg>
