<svg width="910" height="282" viewBox="0 0 910 282" fill="none" xmlns="http://www.w3.org/2000/svg">
<path d="M192.525 28.8215C190.04 28.8215 188.025 30.8363 188.025 33.3215C188.025 35.8068 190.04 37.8215 192.525 37.8215V33.3215V28.8215ZM856.682 36.5035C858.439 34.7462 858.439 31.8969 856.682 30.1396L828.044 1.50173C826.287 -0.25563 823.438 -0.25563 821.68 1.50173C819.923 3.25909 819.923 6.10833 821.68 7.86569L847.136 33.3215L821.68 58.7774C819.923 60.5347 819.923 63.384 821.68 65.1413C823.438 66.8987 826.287 66.8987 828.044 65.1413L856.682 36.5035ZM192.525 33.3215V37.8215H853.5V33.3215V28.8215H192.525V33.3215Z" fill="url(#paint0_linear_578_28)"/>
<g clip-path="url(#paint1_diamond_578_28_clip_path)" data-figma-skip-parse="true"><g transform="matrix(0.422668 0.130434 -0.0192028 0.0620882 111.488 249.362)"><rect x="0" y="0" width="253.415" height="750.932" fill="url(#paint1_diamond_578_28)" opacity="1" shape-rendering="crispEdges"/><rect x="0" y="0" width="253.415" height="750.932" transform="scale(1 -1)" fill="url(#paint1_diamond_578_28)" opacity="1" shape-rendering="crispEdges"/><rect x="0" y="0" width="253.415" height="750.932" transform="scale(-1 1)" fill="url(#paint1_diamond_578_28)" opacity="1" shape-rendering="crispEdges"/><rect x="0" y="0" width="253.415" height="750.932" transform="scale(-1)" fill="url(#paint1_diamond_578_28)" opacity="1" shape-rendering="crispEdges"/></g></g><path d="M0 246.049V244.355C0 243.84 0.0910848 243.294 0.273254 242.717C0.461706 242.133 0.731819 241.572 1.08359 241.032C1.44165 240.486 1.87195 240.012 2.37449 239.611L3.58057 240.59C3.18483 241.154 2.83933 241.744 2.54409 242.359C2.25513 242.968 2.11065 243.62 2.11065 244.317V246.049H0ZM4.82435 246.049V244.355C4.82435 243.84 4.91544 243.294 5.09761 242.717C5.28606 242.133 5.55617 241.572 5.90795 241.032C6.26601 240.486 6.6963 240.012 7.19884 239.611L8.40493 240.59C8.00918 241.154 7.66369 241.744 7.36845 242.359C7.07949 242.968 6.93501 243.62 6.93501 244.317V246.049H4.82435Z" data-figma-gradient-fill="{&#34;type&#34;:&#34;GRADIENT_DIAMOND&#34;,&#34;stops&#34;:[{&#34;color&#34;:{&#34;r&#34;:0.84734082221984863,&#34;g&#34;:1.0,&#34;b&#34;:0.38936322927474976,&#34;a&#34;:1.0},&#34;position&#34;:0.0},{&#34;color&#34;:{&#34;r&#34;:1.0,&#34;g&#34;:1.0,&#34;b&#34;:1.0,&#34;a&#34;:1.0},&#34;position&#34;:1.0}],&#34;stopsVar&#34;:[{&#34;color&#34;:{&#34;r&#34;:0.84734082221984863,&#34;g&#34;:1.0,&#34;b&#34;:0.38936322927474976,&#34;a&#34;:1.0},&#34;position&#34;:0.0},{&#34;color&#34;:{&#34;r&#34;:1.0,&#34;g&#34;:1.0,&#34;b&#34;:1.0,&#34;a&#34;:1.0},&#34;position&#34;:1.0}],&#34;transform&#34;:{&#34;m00&#34;:845.33660888671875,&#34;m01&#34;:-38.405532836914062,&#34;m02&#34;:-291.97772216796875,&#34;m10&#34;:260.86816406250,&#34;m11&#34;:124.17641448974609,&#34;m12&#34;:56.839527130126953},&#34;opacity&#34;:1.0,&#34;blendMode&#34;:&#34;NORMAL&#34;,&#34;visible&#34;:true}"/>
<g clip-path="url(#paint2_diamond_578_28_clip_path)" data-figma-skip-parse="true"><g transform="matrix(0.422668 0.130434 -0.0192028 0.0620882 111.488 249.362)"><rect x="0" y="0" width="253.415" height="750.932" fill="url(#paint2_diamond_578_28)" opacity="1" shape-rendering="crispEdges"/><rect x="0" y="0" width="253.415" height="750.932" transform="scale(1 -1)" fill="url(#paint2_diamond_578_28)" opacity="1" shape-rendering="crispEdges"/><rect x="0" y="0" width="253.415" height="750.932" transform="scale(-1 1)" fill="url(#paint2_diamond_578_28)" opacity="1" shape-rendering="crispEdges"/><rect x="0" y="0" width="253.415" height="750.932" transform="scale(-1)" fill="url(#paint2_diamond_578_28)" opacity="1" shape-rendering="crispEdges"/></g></g><path d="M11.3751 240.025V259.301H9.03831V240.025H11.3751Z" data-figma-gradient-fill="{&#34;type&#34;:&#34;GRADIENT_DIAMOND&#34;,&#34;stops&#34;:[{&#34;color&#34;:{&#34;r&#34;:0.84734082221984863,&#34;g&#34;:1.0,&#34;b&#34;:0.38936322927474976,&#34;a&#34;:1.0},&#34;position&#34;:0.0},{&#34;color&#34;:{&#34;r&#34;:1.0,&#34;g&#34;:1.0,&#34;b&#34;:1.0,&#34;a&#34;:1.0},&#34;position&#34;:1.0}],&#34;stopsVar&#34;:[{&#34;color&#34;:{&#34;r&#34;:0.84734082221984863,&#34;g&#34;:1.0,&#34;b&#34;:0.38936322927474976,&#34;a&#34;:1.0},&#34;position&#34;:0.0},{&#34;color&#34;:{&#34;r&#34;:1.0,&#34;g&#34;:1.0,&#34;b&#34;:1.0,&#34;a&#34;:1.0},&#34;position&#34;:1.0}],&#34;transform&#34;:{&#34;m00&#34;:845.33660888671875,&#34;m01&#34;:-38.405532836914062,&#34;m02&#34;:-291.97772216796875,&#34;m10&#34;:260.86816406250,&#34;m11&#34;:124.17641448974609,&#34;m12&#34;:56.839527130126953},&#34;opacity&#34;:1.0,&#34;blendMode&#34;:&#34;NORMAL&#34;,&#34;visible&#34;:true}"/>
<g clip-path="url(#paint3_diamond_578_28_clip_path)" data-figma-skip-parse="true"><g transform="matrix(0.422668 0.130434 -0.0192028 0.0620882 111.488 249.362)"><rect x="0" y="0" width="253.415" height="750.932" fill="url(#paint3_diamond_578_28)" opacity="1" shape-rendering="crispEdges"/><rect x="0" y="0" width="253.415" height="750.932" transform="scale(1 -1)" fill="url(#paint3_diamond_578_28)" opacity="1" shape-rendering="crispEdges"/><rect x="0" y="0" width="253.415" height="750.932" transform="scale(-1 1)" fill="url(#paint3_diamond_578_28)" opacity="1" shape-rendering="crispEdges"/><rect x="0" y="0" width="253.415" height="750.932" transform="scale(-1)" fill="url(#paint3_diamond_578_28)" opacity="1" shape-rendering="crispEdges"/></g></g><path d="M19.9305 244.844V246.726H12.4302V244.844H19.9305ZM14.6162 241.38H16.8399V255.16C16.8399 255.787 16.931 256.258 17.1132 256.571C17.3016 256.879 17.5403 257.086 17.8293 257.193C18.1245 257.293 18.4355 257.343 18.7621 257.343C19.0071 257.343 19.2081 257.331 19.3652 257.306C19.5222 257.274 19.6478 257.249 19.7421 257.23L20.1943 259.226C20.0436 259.282 19.8331 259.339 19.563 259.395C19.2929 259.458 18.9506 259.489 18.536 259.489C17.9078 259.489 17.2922 259.354 16.6892 259.085C16.0924 258.815 15.5961 258.404 15.2004 257.852C14.8109 257.299 14.6162 256.603 14.6162 255.762V241.38Z" data-figma-gradient-fill="{&#34;type&#34;:&#34;GRADIENT_DIAMOND&#34;,&#34;stops&#34;:[{&#34;color&#34;:{&#34;r&#34;:0.84734082221984863,&#34;g&#34;:1.0,&#34;b&#34;:0.38936322927474976,&#34;a&#34;:1.0},&#34;position&#34;:0.0},{&#34;color&#34;:{&#34;r&#34;:1.0,&#34;g&#34;:1.0,&#34;b&#34;:1.0,&#34;a&#34;:1.0},&#34;position&#34;:1.0}],&#34;stopsVar&#34;:[{&#34;color&#34;:{&#34;r&#34;:0.84734082221984863,&#34;g&#34;:1.0,&#34;b&#34;:0.38936322927474976,&#34;a&#34;:1.0},&#34;position&#34;:0.0},{&#34;color&#34;:{&#34;r&#34;:1.0,&#34;g&#34;:1.0,&#34;b&#34;:1.0,&#34;a&#34;:1.0},&#34;position&#34;:1.0}],&#34;transform&#34;:{&#34;m00&#34;:845.33660888671875,&#34;m01&#34;:-38.405532836914062,&#34;m02&#34;:-291.97772216796875,&#34;m10&#34;:260.86816406250,&#34;m11&#34;:124.17641448974609,&#34;m12&#34;:56.839527130126953},&#34;opacity&#34;:1.0,&#34;blendMode&#34;:&#34;NORMAL&#34;,&#34;visible&#34;:true}"/>
<g clip-path="url(#paint4_diamond_578_28_clip_path)" data-figma-skip-parse="true"><g transform="matrix(0.422668 0.130434 -0.0192028 0.0620882 111.488 249.362)"><rect x="0" y="0" width="253.415" height="750.932" fill="url(#paint4_diamond_578_28)" opacity="1" shape-rendering="crispEdges"/><rect x="0" y="0" width="253.415" height="750.932" transform="scale(1 -1)" fill="url(#paint4_diamond_578_28)" opacity="1" shape-rendering="crispEdges"/><rect x="0" y="0" width="253.415" height="750.932" transform="scale(-1 1)" fill="url(#paint4_diamond_578_28)" opacity="1" shape-rendering="crispEdges"/><rect x="0" y="0" width="253.415" height="750.932" transform="scale(-1)" fill="url(#paint4_diamond_578_28)" opacity="1" shape-rendering="crispEdges"/></g></g><path d="M20.7382 259.301V257.607L28.9547 247.065V246.915H21.002V244.844H31.8192V246.613L23.8288 257.08V257.23H32.083V259.301H20.7382Z" data-figma-gradient-fill="{&#34;type&#34;:&#34;GRADIENT_DIAMOND&#34;,&#34;stops&#34;:[{&#34;color&#34;:{&#34;r&#34;:0.84734082221984863,&#34;g&#34;:1.0,&#34;b&#34;:0.38936322927474976,&#34;a&#34;:1.0},&#34;position&#34;:0.0},{&#34;color&#34;:{&#34;r&#34;:1.0,&#34;g&#34;:1.0,&#34;b&#34;:1.0,&#34;a&#34;:1.0},&#34;position&#34;:1.0}],&#34;stopsVar&#34;:[{&#34;color&#34;:{&#34;r&#34;:0.84734082221984863,&#34;g&#34;:1.0,&#34;b&#34;:0.38936322927474976,&#34;a&#34;:1.0},&#34;position&#34;:0.0},{&#34;color&#34;:{&#34;r&#34;:1.0,&#34;g&#34;:1.0,&#34;b&#34;:1.0,&#34;a&#34;:1.0},&#34;position&#34;:1.0}],&#34;transform&#34;:{&#34;m00&#34;:845.33660888671875,&#34;m01&#34;:-38.405532836914062,&#34;m02&#34;:-291.97772216796875,&#34;m10&#34;:260.86816406250,&#34;m11&#34;:124.17641448974609,&#34;m12&#34;:56.839527130126953},&#34;opacity&#34;:1.0,&#34;blendMode&#34;:&#34;NORMAL&#34;,&#34;visible&#34;:true}"/>
<g clip-path="url(#paint5_diamond_578_28_clip_path)" data-figma-skip-parse="true"><g transform="matrix(0.422668 0.130434 -0.0192028 0.0620882 111.488 249.362)"><rect x="0" y="0" width="253.415" height="750.932" fill="url(#paint5_diamond_578_28)" opacity="1" shape-rendering="crispEdges"/><rect x="0" y="0" width="253.415" height="750.932" transform="scale(1 -1)" fill="url(#paint5_diamond_578_28)" opacity="1" shape-rendering="crispEdges"/><rect x="0" y="0" width="253.415" height="750.932" transform="scale(-1 1)" fill="url(#paint5_diamond_578_28)" opacity="1" shape-rendering="crispEdges"/><rect x="0" y="0" width="253.415" height="750.932" transform="scale(-1)" fill="url(#paint5_diamond_578_28)" opacity="1" shape-rendering="crispEdges"/></g></g><path d="M32.9708 259.301V257.607L41.1873 247.065V246.915H33.2346V244.844H44.0517V246.613L36.0614 257.08V257.23H44.3155V259.301H32.9708Z" data-figma-gradient-fill="{&#34;type&#34;:&#34;GRADIENT_DIAMOND&#34;,&#34;stops&#34;:[{&#34;color&#34;:{&#34;r&#34;:0.84734082221984863,&#34;g&#34;:1.0,&#34;b&#34;:0.38936322927474976,&#34;a&#34;:1.0},&#34;position&#34;:0.0},{&#34;color&#34;:{&#34;r&#34;:1.0,&#34;g&#34;:1.0,&#34;b&#34;:1.0,&#34;a&#34;:1.0},&#34;position&#34;:1.0}],&#34;stopsVar&#34;:[{&#34;color&#34;:{&#34;r&#34;:0.84734082221984863,&#34;g&#34;:1.0,&#34;b&#34;:0.38936322927474976,&#34;a&#34;:1.0},&#34;position&#34;:0.0},{&#34;color&#34;:{&#34;r&#34;:1.0,&#34;g&#34;:1.0,&#34;b&#34;:1.0,&#34;a&#34;:1.0},&#34;position&#34;:1.0}],&#34;transform&#34;:{&#34;m00&#34;:845.33660888671875,&#34;m01&#34;:-38.405532836914062,&#34;m02&#34;:-291.97772216796875,&#34;m10&#34;:260.86816406250,&#34;m11&#34;:124.17641448974609,&#34;m12&#34;:56.839527130126953},&#34;opacity&#34;:1.0,&#34;blendMode&#34;:&#34;NORMAL&#34;,&#34;visible&#34;:true}"/>
<g clip-path="url(#paint6_diamond_578_28_clip_path)" data-figma-skip-parse="true"><g transform="matrix(0.422668 0.130434 -0.0192028 0.0620882 111.488 249.362)"><rect x="0" y="0" width="253.415" height="750.932" fill="url(#paint6_diamond_578_28)" opacity="1" shape-rendering="crispEdges"/><rect x="0" y="0" width="253.415" height="750.932" transform="scale(1 -1)" fill="url(#paint6_diamond_578_28)" opacity="1" shape-rendering="crispEdges"/><rect x="0" y="0" width="253.415" height="750.932" transform="scale(-1 1)" fill="url(#paint6_diamond_578_28)" opacity="1" shape-rendering="crispEdges"/><rect x="0" y="0" width="253.415" height="750.932" transform="scale(-1)" fill="url(#paint6_diamond_578_28)" opacity="1" shape-rendering="crispEdges"/></g></g><path d="M55.2169 259.64C54.2998 259.64 53.4674 259.467 52.7199 259.122C51.9724 258.771 51.3788 258.266 50.939 257.607C50.4993 256.942 50.2795 256.139 50.2795 255.197C50.2795 254.369 50.4428 253.698 50.7694 253.183C51.0961 252.662 51.5327 252.254 52.0792 251.96C52.6257 251.665 53.2287 251.445 53.8883 251.301C54.5542 251.15 55.2232 251.031 55.8953 250.943C56.7748 250.83 57.4877 250.745 58.0342 250.689C58.587 250.626 58.9891 250.523 59.2403 250.378C59.4979 250.234 59.6266 249.983 59.6266 249.625V249.55C59.6266 248.621 59.3722 247.9 58.8634 247.385C58.3609 246.871 57.5977 246.613 56.5737 246.613C55.5121 246.613 54.6798 246.846 54.0768 247.31C53.4737 247.774 53.0497 248.27 52.8047 248.797L50.6941 248.044C51.071 247.166 51.5735 246.482 52.2017 245.992C52.8361 245.497 53.5271 245.151 54.2746 244.957C55.0284 244.756 55.7697 244.656 56.4984 244.656C56.9632 244.656 57.4971 244.712 58.1002 244.825C58.7095 244.932 59.2969 245.155 59.8622 245.493C60.4338 245.832 60.9081 246.344 61.285 247.028C61.6619 247.712 61.8504 248.628 61.8504 249.776V259.301H59.6266V257.343H59.5136C59.3628 257.657 59.1115 257.993 58.7598 258.35C58.408 258.708 57.94 259.012 57.3558 259.263C56.7716 259.514 56.0586 259.64 55.2169 259.64ZM55.5561 257.644C56.4355 257.644 57.1768 257.472 57.7798 257.127C58.3892 256.782 58.8477 256.336 59.1555 255.79C59.4696 255.244 59.6266 254.67 59.6266 254.068V252.035C59.5324 252.148 59.3251 252.251 59.0048 252.345C58.6907 252.433 58.3263 252.512 57.9117 252.581C57.5034 252.643 57.1045 252.7 56.7151 252.75C56.3319 252.794 56.0209 252.832 55.7822 252.863C55.2043 252.938 54.6641 253.061 54.1616 253.23C53.6653 253.393 53.2633 253.641 52.9555 253.974C52.654 254.3 52.5032 254.746 52.5032 255.31C52.5032 256.082 52.789 256.666 53.3606 257.061C53.9386 257.45 54.6704 257.644 55.5561 257.644Z" data-figma-gradient-fill="{&#34;type&#34;:&#34;GRADIENT_DIAMOND&#34;,&#34;stops&#34;:[{&#34;color&#34;:{&#34;r&#34;:0.84734082221984863,&#34;g&#34;:1.0,&#34;b&#34;:0.38936322927474976,&#34;a&#34;:1.0},&#34;position&#34;:0.0},{&#34;color&#34;:{&#34;r&#34;:1.0,&#34;g&#34;:1.0,&#34;b&#34;:1.0,&#34;a&#34;:1.0},&#34;position&#34;:1.0}],&#34;stopsVar&#34;:[{&#34;color&#34;:{&#34;r&#34;:0.84734082221984863,&#34;g&#34;:1.0,&#34;b&#34;:0.38936322927474976,&#34;a&#34;:1.0},&#34;position&#34;:0.0},{&#34;color&#34;:{&#34;r&#34;:1.0,&#34;g&#34;:1.0,&#34;b&#34;:1.0,&#34;a&#34;:1.0},&#34;position&#34;:1.0}],&#34;transform&#34;:{&#34;m00&#34;:845.33660888671875,&#34;m01&#34;:-38.405532836914062,&#34;m02&#34;:-291.97772216796875,&#34;m10&#34;:260.86816406250,&#34;m11&#34;:124.17641448974609,&#34;m12&#34;:56.839527130126953},&#34;opacity&#34;:1.0,&#34;blendMode&#34;:&#34;NORMAL&#34;,&#34;visible&#34;:true}"/>
<g clip-path="url(#paint7_diamond_578_28_clip_path)" data-figma-skip-parse="true"><g transform="matrix(0.422668 0.130434 -0.0192028 0.0620882 111.488 249.362)"><rect x="0" y="0" width="253.415" height="750.932" fill="url(#paint7_diamond_578_28)" opacity="1" shape-rendering="crispEdges"/><rect x="0" y="0" width="253.415" height="750.932" transform="scale(1 -1)" fill="url(#paint7_diamond_578_28)" opacity="1" shape-rendering="crispEdges"/><rect x="0" y="0" width="253.415" height="750.932" transform="scale(-1 1)" fill="url(#paint7_diamond_578_28)" opacity="1" shape-rendering="crispEdges"/><rect x="0" y="0" width="253.415" height="750.932" transform="scale(-1)" fill="url(#paint7_diamond_578_28)" opacity="1" shape-rendering="crispEdges"/></g></g><path d="M66.0102 240.025V259.301H63.7864V240.025H66.0102Z" data-figma-gradient-fill="{&#34;type&#34;:&#34;GRADIENT_DIAMOND&#34;,&#34;stops&#34;:[{&#34;color&#34;:{&#34;r&#34;:0.84734082221984863,&#34;g&#34;:1.0,&#34;b&#34;:0.38936322927474976,&#34;a&#34;:1.0},&#34;position&#34;:0.0},{&#34;color&#34;:{&#34;r&#34;:1.0,&#34;g&#34;:1.0,&#34;b&#34;:1.0,&#34;a&#34;:1.0},&#34;position&#34;:1.0}],&#34;stopsVar&#34;:[{&#34;color&#34;:{&#34;r&#34;:0.84734082221984863,&#34;g&#34;:1.0,&#34;b&#34;:0.38936322927474976,&#34;a&#34;:1.0},&#34;position&#34;:0.0},{&#34;color&#34;:{&#34;r&#34;:1.0,&#34;g&#34;:1.0,&#34;b&#34;:1.0,&#34;a&#34;:1.0},&#34;position&#34;:1.0}],&#34;transform&#34;:{&#34;m00&#34;:845.33660888671875,&#34;m01&#34;:-38.405532836914062,&#34;m02&#34;:-291.97772216796875,&#34;m10&#34;:260.86816406250,&#34;m11&#34;:124.17641448974609,&#34;m12&#34;:56.839527130126953},&#34;opacity&#34;:1.0,&#34;blendMode&#34;:&#34;NORMAL&#34;,&#34;visible&#34;:true}"/>
<g clip-path="url(#paint8_diamond_578_28_clip_path)" data-figma-skip-parse="true"><g transform="matrix(0.422668 0.130434 -0.0192028 0.0620882 111.488 249.362)"><rect x="0" y="0" width="253.415" height="750.932" fill="url(#paint8_diamond_578_28)" opacity="1" shape-rendering="crispEdges"/><rect x="0" y="0" width="253.415" height="750.932" transform="scale(1 -1)" fill="url(#paint8_diamond_578_28)" opacity="1" shape-rendering="crispEdges"/><rect x="0" y="0" width="253.415" height="750.932" transform="scale(-1 1)" fill="url(#paint8_diamond_578_28)" opacity="1" shape-rendering="crispEdges"/><rect x="0" y="0" width="253.415" height="750.932" transform="scale(-1)" fill="url(#paint8_diamond_578_28)" opacity="1" shape-rendering="crispEdges"/></g></g><path d="M70.1841 240.025V259.301H67.9603V240.025H70.1841Z" data-figma-gradient-fill="{&#34;type&#34;:&#34;GRADIENT_DIAMOND&#34;,&#34;stops&#34;:[{&#34;color&#34;:{&#34;r&#34;:0.84734082221984863,&#34;g&#34;:1.0,&#34;b&#34;:0.38936322927474976,&#34;a&#34;:1.0},&#34;position&#34;:0.0},{&#34;color&#34;:{&#34;r&#34;:1.0,&#34;g&#34;:1.0,&#34;b&#34;:1.0,&#34;a&#34;:1.0},&#34;position&#34;:1.0}],&#34;stopsVar&#34;:[{&#34;color&#34;:{&#34;r&#34;:0.84734082221984863,&#34;g&#34;:1.0,&#34;b&#34;:0.38936322927474976,&#34;a&#34;:1.0},&#34;position&#34;:0.0},{&#34;color&#34;:{&#34;r&#34;:1.0,&#34;g&#34;:1.0,&#34;b&#34;:1.0,&#34;a&#34;:1.0},&#34;position&#34;:1.0}],&#34;transform&#34;:{&#34;m00&#34;:845.33660888671875,&#34;m01&#34;:-38.405532836914062,&#34;m02&#34;:-291.97772216796875,&#34;m10&#34;:260.86816406250,&#34;m11&#34;:124.17641448974609,&#34;m12&#34;:56.839527130126953},&#34;opacity&#34;:1.0,&#34;blendMode&#34;:&#34;NORMAL&#34;,&#34;visible&#34;:true}"/>
<g clip-path="url(#paint9_diamond_578_28_clip_path)" data-figma-skip-parse="true"><g transform="matrix(0.422668 0.130434 -0.0192028 0.0620882 111.488 249.362)"><rect x="0" y="0" width="253.415" height="750.932" fill="url(#paint9_diamond_578_28)" opacity="1" shape-rendering="crispEdges"/><rect x="0" y="0" width="253.415" height="750.932" transform="scale(1 -1)" fill="url(#paint9_diamond_578_28)" opacity="1" shape-rendering="crispEdges"/><rect x="0" y="0" width="253.415" height="750.932" transform="scale(-1 1)" fill="url(#paint9_diamond_578_28)" opacity="1" shape-rendering="crispEdges"/><rect x="0" y="0" width="253.415" height="750.932" transform="scale(-1)" fill="url(#paint9_diamond_578_28)" opacity="1" shape-rendering="crispEdges"/></g></g><path d="M81.7332 259.64C80.8161 259.64 79.9838 259.467 79.2362 259.122C78.4887 258.771 77.8951 258.266 77.4554 257.607C77.0156 256.942 76.7958 256.139 76.7958 255.197C76.7958 254.369 76.9591 253.698 77.2858 253.183C77.6124 252.662 78.049 252.254 78.5955 251.96C79.142 251.665 79.7451 251.445 80.4046 251.301C81.0705 251.15 81.7395 251.031 82.4116 250.943C83.2911 250.83 84.0041 250.745 84.5506 250.689C85.1034 250.626 85.5054 250.523 85.7566 250.378C86.0142 250.234 86.143 249.983 86.143 249.625V249.55C86.143 248.621 85.8886 247.9 85.3798 247.385C84.8772 246.871 84.114 246.613 83.0901 246.613C82.0285 246.613 81.1961 246.846 80.5931 247.31C79.99 247.774 79.566 248.27 79.321 248.797L77.2104 248.044C77.5873 247.166 78.0898 246.482 78.718 245.992C79.3524 245.497 80.0434 245.151 80.791 244.957C81.5448 244.756 82.286 244.656 83.0147 244.656C83.4795 244.656 84.0135 244.712 84.6165 244.825C85.2258 244.932 85.8132 245.155 86.3785 245.493C86.9502 245.832 87.4244 246.344 87.8013 247.028C88.1782 247.712 88.3667 248.628 88.3667 249.776V259.301H86.143V257.343H86.0299C85.8791 257.657 85.6279 257.993 85.2761 258.35C84.9243 258.708 84.4563 259.012 83.8721 259.263C83.2879 259.514 82.575 259.64 81.7332 259.64ZM82.0724 257.644C82.9519 257.644 83.6931 257.472 84.2962 257.127C84.9055 256.782 85.364 256.336 85.6718 255.79C85.9859 255.244 86.143 254.67 86.143 254.068V252.035C86.0487 252.148 85.8415 252.251 85.5211 252.345C85.207 252.433 84.8427 252.512 84.4281 252.581C84.0198 252.643 83.6209 252.7 83.2314 252.75C82.8482 252.794 82.5373 252.832 82.2986 252.863C81.7207 252.938 81.1804 253.061 80.6779 253.23C80.1816 253.393 79.7796 253.641 79.4718 253.974C79.1703 254.3 79.0195 254.746 79.0195 255.31C79.0195 256.082 79.3053 256.666 79.877 257.061C80.4549 257.45 81.1867 257.644 82.0724 257.644Z" data-figma-gradient-fill="{&#34;type&#34;:&#34;GRADIENT_DIAMOND&#34;,&#34;stops&#34;:[{&#34;color&#34;:{&#34;r&#34;:0.84734082221984863,&#34;g&#34;:1.0,&#34;b&#34;:0.38936322927474976,&#34;a&#34;:1.0},&#34;position&#34;:0.0},{&#34;color&#34;:{&#34;r&#34;:1.0,&#34;g&#34;:1.0,&#34;b&#34;:1.0,&#34;a&#34;:1.0},&#34;position&#34;:1.0}],&#34;stopsVar&#34;:[{&#34;color&#34;:{&#34;r&#34;:0.84734082221984863,&#34;g&#34;:1.0,&#34;b&#34;:0.38936322927474976,&#34;a&#34;:1.0},&#34;position&#34;:0.0},{&#34;color&#34;:{&#34;r&#34;:1.0,&#34;g&#34;:1.0,&#34;b&#34;:1.0,&#34;a&#34;:1.0},&#34;position&#34;:1.0}],&#34;transform&#34;:{&#34;m00&#34;:845.33660888671875,&#34;m01&#34;:-38.405532836914062,&#34;m02&#34;:-291.97772216796875,&#34;m10&#34;:260.86816406250,&#34;m11&#34;:124.17641448974609,&#34;m12&#34;:56.839527130126953},&#34;opacity&#34;:1.0,&#34;blendMode&#34;:&#34;NORMAL&#34;,&#34;visible&#34;:true}"/>
<g clip-path="url(#paint10_diamond_578_28_clip_path)" data-figma-skip-parse="true"><g transform="matrix(0.422668 0.130434 -0.0192028 0.0620882 111.488 249.362)"><rect x="0" y="0" width="253.415" height="750.932" fill="url(#paint10_diamond_578_28)" opacity="1" shape-rendering="crispEdges"/><rect x="0" y="0" width="253.415" height="750.932" transform="scale(1 -1)" fill="url(#paint10_diamond_578_28)" opacity="1" shape-rendering="crispEdges"/><rect x="0" y="0" width="253.415" height="750.932" transform="scale(-1 1)" fill="url(#paint10_diamond_578_28)" opacity="1" shape-rendering="crispEdges"/><rect x="0" y="0" width="253.415" height="750.932" transform="scale(-1)" fill="url(#paint10_diamond_578_28)" opacity="1" shape-rendering="crispEdges"/></g></g><path d="M90.6043 259.301V240.025H92.828V247.141H93.0164C93.1798 246.89 93.4059 246.57 93.6949 246.181C93.9901 245.785 94.411 245.434 94.9575 245.126C95.5103 244.813 96.2578 244.656 97.2001 244.656C98.4187 244.656 99.4929 244.96 100.423 245.569C101.352 246.177 102.078 247.04 102.599 248.157C103.121 249.274 103.381 250.592 103.381 252.11C103.381 253.641 103.121 254.968 102.599 256.091C102.078 257.208 101.355 258.074 100.432 258.689C99.5086 259.298 98.4438 259.602 97.2378 259.602C96.3081 259.602 95.5637 259.448 95.0046 259.141C94.4455 258.827 94.0152 258.473 93.7137 258.077C93.4122 257.676 93.1798 257.343 93.0164 257.08H92.7526V259.301H90.6043ZM92.7903 252.072C92.7903 253.164 92.9505 254.127 93.2709 254.962C93.5912 255.79 94.0592 256.44 94.6748 256.91C95.2904 257.375 96.0442 257.607 96.9362 257.607C97.8659 257.607 98.6417 257.362 99.2636 256.873C99.8918 256.377 100.363 255.712 100.677 254.877C100.997 254.036 101.158 253.102 101.158 252.072C101.158 251.056 101 250.14 100.686 249.324C100.379 248.502 99.9106 247.853 99.2825 247.376C98.6606 246.893 97.8785 246.651 96.9362 246.651C96.0317 246.651 95.2716 246.88 94.656 247.338C94.0404 247.79 93.5755 248.424 93.2614 249.239C92.9473 250.049 92.7903 250.993 92.7903 252.072Z" data-figma-gradient-fill="{&#34;type&#34;:&#34;GRADIENT_DIAMOND&#34;,&#34;stops&#34;:[{&#34;color&#34;:{&#34;r&#34;:0.84734082221984863,&#34;g&#34;:1.0,&#34;b&#34;:0.38936322927474976,&#34;a&#34;:1.0},&#34;position&#34;:0.0},{&#34;color&#34;:{&#34;r&#34;:1.0,&#34;g&#34;:1.0,&#34;b&#34;:1.0,&#34;a&#34;:1.0},&#34;position&#34;:1.0}],&#34;stopsVar&#34;:[{&#34;color&#34;:{&#34;r&#34;:0.84734082221984863,&#34;g&#34;:1.0,&#34;b&#34;:0.38936322927474976,&#34;a&#34;:1.0},&#34;position&#34;:0.0},{&#34;color&#34;:{&#34;r&#34;:1.0,&#34;g&#34;:1.0,&#34;b&#34;:1.0,&#34;a&#34;:1.0},&#34;position&#34;:1.0}],&#34;transform&#34;:{&#34;m00&#34;:845.33660888671875,&#34;m01&#34;:-38.405532836914062,&#34;m02&#34;:-291.97772216796875,&#34;m10&#34;:260.86816406250,&#34;m11&#34;:124.17641448974609,&#34;m12&#34;:56.839527130126953},&#34;opacity&#34;:1.0,&#34;blendMode&#34;:&#34;NORMAL&#34;,&#34;visible&#34;:true}"/>
<g clip-path="url(#paint11_diamond_578_28_clip_path)" data-figma-skip-parse="true"><g transform="matrix(0.422668 0.130434 -0.0192028 0.0620882 111.488 249.362)"><rect x="0" y="0" width="253.415" height="750.932" fill="url(#paint11_diamond_578_28)" opacity="1" shape-rendering="crispEdges"/><rect x="0" y="0" width="253.415" height="750.932" transform="scale(1 -1)" fill="url(#paint11_diamond_578_28)" opacity="1" shape-rendering="crispEdges"/><rect x="0" y="0" width="253.415" height="750.932" transform="scale(-1 1)" fill="url(#paint11_diamond_578_28)" opacity="1" shape-rendering="crispEdges"/><rect x="0" y="0" width="253.415" height="750.932" transform="scale(-1)" fill="url(#paint11_diamond_578_28)" opacity="1" shape-rendering="crispEdges"/></g></g><path d="M110.54 259.602C109.233 259.602 108.087 259.292 107.101 258.67C106.121 258.049 105.354 257.18 104.801 256.063C104.255 254.946 103.982 253.641 103.982 252.148C103.982 250.642 104.255 249.327 104.801 248.204C105.354 247.081 106.121 246.209 107.101 245.588C108.087 244.966 109.233 244.656 110.54 244.656C111.846 244.656 112.99 244.966 113.97 245.588C114.956 246.209 115.722 247.081 116.269 248.204C116.821 249.327 117.098 250.642 117.098 252.148C117.098 253.641 116.821 254.946 116.269 256.063C115.722 257.18 114.956 258.049 113.97 258.67C112.99 259.292 111.846 259.602 110.54 259.602ZM110.54 257.607C111.532 257.607 112.349 257.353 112.99 256.844C113.63 256.336 114.105 255.668 114.412 254.84C114.72 254.011 114.874 253.114 114.874 252.148C114.874 251.181 114.72 250.281 114.412 249.447C114.105 248.612 113.63 247.937 112.99 247.423C112.349 246.908 111.532 246.651 110.54 246.651C109.547 246.651 108.731 246.908 108.09 247.423C107.449 247.937 106.975 248.612 106.667 249.447C106.359 250.281 106.205 251.181 106.205 252.148C106.205 253.114 106.359 254.011 106.667 254.84C106.975 255.668 107.449 256.336 108.09 256.844C108.731 257.353 109.547 257.607 110.54 257.607Z" data-figma-gradient-fill="{&#34;type&#34;:&#34;GRADIENT_DIAMOND&#34;,&#34;stops&#34;:[{&#34;color&#34;:{&#34;r&#34;:0.84734082221984863,&#34;g&#34;:1.0,&#34;b&#34;:0.38936322927474976,&#34;a&#34;:1.0},&#34;position&#34;:0.0},{&#34;color&#34;:{&#34;r&#34;:1.0,&#34;g&#34;:1.0,&#34;b&#34;:1.0,&#34;a&#34;:1.0},&#34;position&#34;:1.0}],&#34;stopsVar&#34;:[{&#34;color&#34;:{&#34;r&#34;:0.84734082221984863,&#34;g&#34;:1.0,&#34;b&#34;:0.38936322927474976,&#34;a&#34;:1.0},&#34;position&#34;:0.0},{&#34;color&#34;:{&#34;r&#34;:1.0,&#34;g&#34;:1.0,&#34;b&#34;:1.0,&#34;a&#34;:1.0},&#34;position&#34;:1.0}],&#34;transform&#34;:{&#34;m00&#34;:845.33660888671875,&#34;m01&#34;:-38.405532836914062,&#34;m02&#34;:-291.97772216796875,&#34;m10&#34;:260.86816406250,&#34;m11&#34;:124.17641448974609,&#34;m12&#34;:56.839527130126953},&#34;opacity&#34;:1.0,&#34;blendMode&#34;:&#34;NORMAL&#34;,&#34;visible&#34;:true}"/>
<g clip-path="url(#paint12_diamond_578_28_clip_path)" data-figma-skip-parse="true"><g transform="matrix(0.422668 0.130434 -0.0192028 0.0620882 111.488 249.362)"><rect x="0" y="0" width="253.415" height="750.932" fill="url(#paint12_diamond_578_28)" opacity="1" shape-rendering="crispEdges"/><rect x="0" y="0" width="253.415" height="750.932" transform="scale(1 -1)" fill="url(#paint12_diamond_578_28)" opacity="1" shape-rendering="crispEdges"/><rect x="0" y="0" width="253.415" height="750.932" transform="scale(-1 1)" fill="url(#paint12_diamond_578_28)" opacity="1" shape-rendering="crispEdges"/><rect x="0" y="0" width="253.415" height="750.932" transform="scale(-1)" fill="url(#paint12_diamond_578_28)" opacity="1" shape-rendering="crispEdges"/></g></g><path d="M127.491 253.39V244.844H129.714V259.301H127.491V256.854H127.34C127.001 257.588 126.473 258.212 125.757 258.727C125.041 259.235 124.136 259.489 123.043 259.489C122.139 259.489 121.335 259.292 120.631 258.896C119.928 258.495 119.375 257.892 118.973 257.089C118.571 256.28 118.37 255.26 118.37 254.03V244.844H120.593V253.88C120.593 254.934 120.889 255.775 121.479 256.402C122.076 257.03 122.836 257.343 123.759 257.343C124.312 257.343 124.874 257.202 125.446 256.92C126.024 256.637 126.508 256.204 126.897 255.621C127.293 255.037 127.491 254.294 127.491 253.39Z" data-figma-gradient-fill="{&#34;type&#34;:&#34;GRADIENT_DIAMOND&#34;,&#34;stops&#34;:[{&#34;color&#34;:{&#34;r&#34;:0.84734082221984863,&#34;g&#34;:1.0,&#34;b&#34;:0.38936322927474976,&#34;a&#34;:1.0},&#34;position&#34;:0.0},{&#34;color&#34;:{&#34;r&#34;:1.0,&#34;g&#34;:1.0,&#34;b&#34;:1.0,&#34;a&#34;:1.0},&#34;position&#34;:1.0}],&#34;stopsVar&#34;:[{&#34;color&#34;:{&#34;r&#34;:0.84734082221984863,&#34;g&#34;:1.0,&#34;b&#34;:0.38936322927474976,&#34;a&#34;:1.0},&#34;position&#34;:0.0},{&#34;color&#34;:{&#34;r&#34;:1.0,&#34;g&#34;:1.0,&#34;b&#34;:1.0,&#34;a&#34;:1.0},&#34;position&#34;:1.0}],&#34;transform&#34;:{&#34;m00&#34;:845.33660888671875,&#34;m01&#34;:-38.405532836914062,&#34;m02&#34;:-291.97772216796875,&#34;m10&#34;:260.86816406250,&#34;m11&#34;:124.17641448974609,&#34;m12&#34;:56.839527130126953},&#34;opacity&#34;:1.0,&#34;blendMode&#34;:&#34;NORMAL&#34;,&#34;visible&#34;:true}"/>
<g clip-path="url(#paint13_diamond_578_28_clip_path)" data-figma-skip-parse="true"><g transform="matrix(0.422668 0.130434 -0.0192028 0.0620882 111.488 249.362)"><rect x="0" y="0" width="253.415" height="750.932" fill="url(#paint13_diamond_578_28)" opacity="1" shape-rendering="crispEdges"/><rect x="0" y="0" width="253.415" height="750.932" transform="scale(1 -1)" fill="url(#paint13_diamond_578_28)" opacity="1" shape-rendering="crispEdges"/><rect x="0" y="0" width="253.415" height="750.932" transform="scale(-1 1)" fill="url(#paint13_diamond_578_28)" opacity="1" shape-rendering="crispEdges"/><rect x="0" y="0" width="253.415" height="750.932" transform="scale(-1)" fill="url(#paint13_diamond_578_28)" opacity="1" shape-rendering="crispEdges"/></g></g><path d="M137.959 244.844V246.726H130.459V244.844H137.959ZM132.645 241.38H134.868V255.16C134.868 255.787 134.959 256.258 135.142 256.571C135.33 256.879 135.569 257.086 135.858 257.193C136.153 257.293 136.464 257.343 136.79 257.343C137.035 257.343 137.236 257.331 137.394 257.306C137.551 257.274 137.676 257.249 137.77 257.23L138.223 259.226C138.072 259.282 137.862 259.339 137.591 259.395C137.321 259.458 136.979 259.489 136.564 259.489C135.936 259.489 135.321 259.354 134.718 259.085C134.121 258.815 133.624 258.404 133.229 257.852C132.839 257.299 132.645 256.603 132.645 255.762V241.38Z" data-figma-gradient-fill="{&#34;type&#34;:&#34;GRADIENT_DIAMOND&#34;,&#34;stops&#34;:[{&#34;color&#34;:{&#34;r&#34;:0.84734082221984863,&#34;g&#34;:1.0,&#34;b&#34;:0.38936322927474976,&#34;a&#34;:1.0},&#34;position&#34;:0.0},{&#34;color&#34;:{&#34;r&#34;:1.0,&#34;g&#34;:1.0,&#34;b&#34;:1.0,&#34;a&#34;:1.0},&#34;position&#34;:1.0}],&#34;stopsVar&#34;:[{&#34;color&#34;:{&#34;r&#34;:0.84734082221984863,&#34;g&#34;:1.0,&#34;b&#34;:0.38936322927474976,&#34;a&#34;:1.0},&#34;position&#34;:0.0},{&#34;color&#34;:{&#34;r&#34;:1.0,&#34;g&#34;:1.0,&#34;b&#34;:1.0,&#34;a&#34;:1.0},&#34;position&#34;:1.0}],&#34;transform&#34;:{&#34;m00&#34;:845.33660888671875,&#34;m01&#34;:-38.405532836914062,&#34;m02&#34;:-291.97772216796875,&#34;m10&#34;:260.86816406250,&#34;m11&#34;:124.17641448974609,&#34;m12&#34;:56.839527130126953},&#34;opacity&#34;:1.0,&#34;blendMode&#34;:&#34;NORMAL&#34;,&#34;visible&#34;:true}"/>
<g clip-path="url(#paint14_diamond_578_28_clip_path)" data-figma-skip-parse="true"><g transform="matrix(0.422668 0.130434 -0.0192028 0.0620882 111.488 249.362)"><rect x="0" y="0" width="253.415" height="750.932" fill="url(#paint14_diamond_578_28)" opacity="1" shape-rendering="crispEdges"/><rect x="0" y="0" width="253.415" height="750.932" transform="scale(1 -1)" fill="url(#paint14_diamond_578_28)" opacity="1" shape-rendering="crispEdges"/><rect x="0" y="0" width="253.415" height="750.932" transform="scale(-1 1)" fill="url(#paint14_diamond_578_28)" opacity="1" shape-rendering="crispEdges"/><rect x="0" y="0" width="253.415" height="750.932" transform="scale(-1)" fill="url(#paint14_diamond_578_28)" opacity="1" shape-rendering="crispEdges"/></g></g><path d="M154.396 264.722V257.08H154.208C154.044 257.343 153.812 257.676 153.51 258.077C153.209 258.473 152.778 258.827 152.219 259.141C151.66 259.448 150.916 259.602 149.986 259.602C148.78 259.602 147.715 259.298 146.792 258.689C145.869 258.074 145.146 257.208 144.625 256.091C144.103 254.968 143.843 253.641 143.843 252.11C143.843 250.592 144.103 249.274 144.625 248.157C145.146 247.04 145.872 246.177 146.801 245.569C147.731 244.96 148.805 244.656 150.024 244.656C150.966 244.656 151.711 244.813 152.257 245.126C152.81 245.434 153.231 245.785 153.52 246.181C153.815 246.57 154.044 246.89 154.208 247.141H154.471V244.844H156.62V264.722H154.396ZM150.288 257.607C151.18 257.607 151.934 257.375 152.549 256.91C153.165 256.44 153.633 255.79 153.953 254.962C154.273 254.127 154.434 253.164 154.434 252.072C154.434 250.993 154.277 250.049 153.963 249.239C153.648 248.424 153.184 247.79 152.568 247.338C151.952 246.88 151.192 246.651 150.288 246.651C149.345 246.651 148.56 246.893 147.932 247.376C147.31 247.853 146.842 248.502 146.528 249.324C146.22 250.14 146.066 251.056 146.066 252.072C146.066 253.102 146.223 254.036 146.538 254.877C146.858 255.712 147.329 256.377 147.951 256.873C148.579 257.362 149.358 257.607 150.288 257.607Z" data-figma-gradient-fill="{&#34;type&#34;:&#34;GRADIENT_DIAMOND&#34;,&#34;stops&#34;:[{&#34;color&#34;:{&#34;r&#34;:0.84734082221984863,&#34;g&#34;:1.0,&#34;b&#34;:0.38936322927474976,&#34;a&#34;:1.0},&#34;position&#34;:0.0},{&#34;color&#34;:{&#34;r&#34;:1.0,&#34;g&#34;:1.0,&#34;b&#34;:1.0,&#34;a&#34;:1.0},&#34;position&#34;:1.0}],&#34;stopsVar&#34;:[{&#34;color&#34;:{&#34;r&#34;:0.84734082221984863,&#34;g&#34;:1.0,&#34;b&#34;:0.38936322927474976,&#34;a&#34;:1.0},&#34;position&#34;:0.0},{&#34;color&#34;:{&#34;r&#34;:1.0,&#34;g&#34;:1.0,&#34;b&#34;:1.0,&#34;a&#34;:1.0},&#34;position&#34;:1.0}],&#34;transform&#34;:{&#34;m00&#34;:845.33660888671875,&#34;m01&#34;:-38.405532836914062,&#34;m02&#34;:-291.97772216796875,&#34;m10&#34;:260.86816406250,&#34;m11&#34;:124.17641448974609,&#34;m12&#34;:56.839527130126953},&#34;opacity&#34;:1.0,&#34;blendMode&#34;:&#34;NORMAL&#34;,&#34;visible&#34;:true}"/>
<g clip-path="url(#paint15_diamond_578_28_clip_path)" data-figma-skip-parse="true"><g transform="matrix(0.422668 0.130434 -0.0192028 0.0620882 111.488 249.362)"><rect x="0" y="0" width="253.415" height="750.932" fill="url(#paint15_diamond_578_28)" opacity="1" shape-rendering="crispEdges"/><rect x="0" y="0" width="253.415" height="750.932" transform="scale(1 -1)" fill="url(#paint15_diamond_578_28)" opacity="1" shape-rendering="crispEdges"/><rect x="0" y="0" width="253.415" height="750.932" transform="scale(-1 1)" fill="url(#paint15_diamond_578_28)" opacity="1" shape-rendering="crispEdges"/><rect x="0" y="0" width="253.415" height="750.932" transform="scale(-1)" fill="url(#paint15_diamond_578_28)" opacity="1" shape-rendering="crispEdges"/></g></g><path d="M167.689 253.39V244.844H169.912V259.301H167.689V256.854H167.538C167.199 257.588 166.671 258.212 165.955 258.727C165.239 259.235 164.334 259.489 163.241 259.489C162.337 259.489 161.533 259.292 160.829 258.896C160.125 258.495 159.573 257.892 159.171 257.089C158.769 256.28 158.568 255.26 158.568 254.03V244.844H160.791V253.88C160.791 254.934 161.087 255.775 161.677 256.402C162.274 257.03 163.034 257.343 163.957 257.343C164.51 257.343 165.072 257.202 165.644 256.92C166.222 256.637 166.705 256.204 167.095 255.621C167.491 255.037 167.689 254.294 167.689 253.39Z" data-figma-gradient-fill="{&#34;type&#34;:&#34;GRADIENT_DIAMOND&#34;,&#34;stops&#34;:[{&#34;color&#34;:{&#34;r&#34;:0.84734082221984863,&#34;g&#34;:1.0,&#34;b&#34;:0.38936322927474976,&#34;a&#34;:1.0},&#34;position&#34;:0.0},{&#34;color&#34;:{&#34;r&#34;:1.0,&#34;g&#34;:1.0,&#34;b&#34;:1.0,&#34;a&#34;:1.0},&#34;position&#34;:1.0}],&#34;stopsVar&#34;:[{&#34;color&#34;:{&#34;r&#34;:0.84734082221984863,&#34;g&#34;:1.0,&#34;b&#34;:0.38936322927474976,&#34;a&#34;:1.0},&#34;position&#34;:0.0},{&#34;color&#34;:{&#34;r&#34;:1.0,&#34;g&#34;:1.0,&#34;b&#34;:1.0,&#34;a&#34;:1.0},&#34;position&#34;:1.0}],&#34;transform&#34;:{&#34;m00&#34;:845.33660888671875,&#34;m01&#34;:-38.405532836914062,&#34;m02&#34;:-291.97772216796875,&#34;m10&#34;:260.86816406250,&#34;m11&#34;:124.17641448974609,&#34;m12&#34;:56.839527130126953},&#34;opacity&#34;:1.0,&#34;blendMode&#34;:&#34;NORMAL&#34;,&#34;visible&#34;:true}"/>
<g clip-path="url(#paint16_diamond_578_28_clip_path)" data-figma-skip-parse="true"><g transform="matrix(0.422668 0.130434 -0.0192028 0.0620882 111.488 249.362)"><rect x="0" y="0" width="253.415" height="750.932" fill="url(#paint16_diamond_578_28)" opacity="1" shape-rendering="crispEdges"/><rect x="0" y="0" width="253.415" height="750.932" transform="scale(1 -1)" fill="url(#paint16_diamond_578_28)" opacity="1" shape-rendering="crispEdges"/><rect x="0" y="0" width="253.415" height="750.932" transform="scale(-1 1)" fill="url(#paint16_diamond_578_28)" opacity="1" shape-rendering="crispEdges"/><rect x="0" y="0" width="253.415" height="750.932" transform="scale(-1)" fill="url(#paint16_diamond_578_28)" opacity="1" shape-rendering="crispEdges"/></g></g><path d="M176.121 259.64C175.204 259.64 174.372 259.467 173.625 259.122C172.877 258.771 172.283 258.266 171.844 257.607C171.404 256.942 171.184 256.139 171.184 255.197C171.184 254.369 171.347 253.698 171.674 253.183C172.001 252.662 172.437 252.254 172.984 251.96C173.53 251.665 174.133 251.445 174.793 251.301C175.459 251.15 176.128 251.031 176.8 250.943C177.679 250.83 178.392 250.745 178.939 250.689C179.492 250.626 179.894 250.523 180.145 250.378C180.402 250.234 180.531 249.983 180.531 249.625V249.55C180.531 248.621 180.277 247.9 179.768 247.385C179.265 246.871 178.502 246.613 177.478 246.613C176.417 246.613 175.584 246.846 174.981 247.31C174.378 247.774 173.954 248.27 173.709 248.797L171.599 248.044C171.976 247.166 172.478 246.482 173.106 245.992C173.741 245.497 174.432 245.151 175.179 244.957C175.933 244.756 176.674 244.656 177.403 244.656C177.868 244.656 178.402 244.712 179.005 244.825C179.614 244.932 180.201 245.155 180.767 245.493C181.338 245.832 181.813 246.344 182.19 247.028C182.567 247.712 182.755 248.628 182.755 249.776V259.301H180.531V257.343H180.418C180.267 257.657 180.016 257.993 179.664 258.35C179.313 258.708 178.845 259.012 178.26 259.263C177.676 259.514 176.963 259.64 176.121 259.64ZM176.461 257.644C177.34 257.644 178.081 257.472 178.684 257.127C179.294 256.782 179.752 256.336 180.06 255.79C180.374 255.244 180.531 254.67 180.531 254.068V252.035C180.437 252.148 180.23 252.251 179.909 252.345C179.595 252.433 179.231 252.512 178.816 252.581C178.408 252.643 178.009 252.7 177.62 252.75C177.236 252.794 176.926 252.832 176.687 252.863C176.109 252.938 175.569 253.061 175.066 253.23C174.57 253.393 174.168 253.641 173.86 253.974C173.559 254.3 173.408 254.746 173.408 255.31C173.408 256.082 173.694 256.666 174.265 257.061C174.843 257.45 175.575 257.644 176.461 257.644Z" data-figma-gradient-fill="{&#34;type&#34;:&#34;GRADIENT_DIAMOND&#34;,&#34;stops&#34;:[{&#34;color&#34;:{&#34;r&#34;:0.84734082221984863,&#34;g&#34;:1.0,&#34;b&#34;:0.38936322927474976,&#34;a&#34;:1.0},&#34;position&#34;:0.0},{&#34;color&#34;:{&#34;r&#34;:1.0,&#34;g&#34;:1.0,&#34;b&#34;:1.0,&#34;a&#34;:1.0},&#34;position&#34;:1.0}],&#34;stopsVar&#34;:[{&#34;color&#34;:{&#34;r&#34;:0.84734082221984863,&#34;g&#34;:1.0,&#34;b&#34;:0.38936322927474976,&#34;a&#34;:1.0},&#34;position&#34;:0.0},{&#34;color&#34;:{&#34;r&#34;:1.0,&#34;g&#34;:1.0,&#34;b&#34;:1.0,&#34;a&#34;:1.0},&#34;position&#34;:1.0}],&#34;transform&#34;:{&#34;m00&#34;:845.33660888671875,&#34;m01&#34;:-38.405532836914062,&#34;m02&#34;:-291.97772216796875,&#34;m10&#34;:260.86816406250,&#34;m11&#34;:124.17641448974609,&#34;m12&#34;:56.839527130126953},&#34;opacity&#34;:1.0,&#34;blendMode&#34;:&#34;NORMAL&#34;,&#34;visible&#34;:true}"/>
<g clip-path="url(#paint17_diamond_578_28_clip_path)" data-figma-skip-parse="true"><g transform="matrix(0.422668 0.130434 -0.0192028 0.0620882 111.488 249.362)"><rect x="0" y="0" width="253.415" height="750.932" fill="url(#paint17_diamond_578_28)" opacity="1" shape-rendering="crispEdges"/><rect x="0" y="0" width="253.415" height="750.932" transform="scale(1 -1)" fill="url(#paint17_diamond_578_28)" opacity="1" shape-rendering="crispEdges"/><rect x="0" y="0" width="253.415" height="750.932" transform="scale(-1 1)" fill="url(#paint17_diamond_578_28)" opacity="1" shape-rendering="crispEdges"/><rect x="0" y="0" width="253.415" height="750.932" transform="scale(-1)" fill="url(#paint17_diamond_578_28)" opacity="1" shape-rendering="crispEdges"/></g></g><path d="M186.915 240.025V259.301H184.691V240.025H186.915Z" data-figma-gradient-fill="{&#34;type&#34;:&#34;GRADIENT_DIAMOND&#34;,&#34;stops&#34;:[{&#34;color&#34;:{&#34;r&#34;:0.84734082221984863,&#34;g&#34;:1.0,&#34;b&#34;:0.38936322927474976,&#34;a&#34;:1.0},&#34;position&#34;:0.0},{&#34;color&#34;:{&#34;r&#34;:1.0,&#34;g&#34;:1.0,&#34;b&#34;:1.0,&#34;a&#34;:1.0},&#34;position&#34;:1.0}],&#34;stopsVar&#34;:[{&#34;color&#34;:{&#34;r&#34;:0.84734082221984863,&#34;g&#34;:1.0,&#34;b&#34;:0.38936322927474976,&#34;a&#34;:1.0},&#34;position&#34;:0.0},{&#34;color&#34;:{&#34;r&#34;:1.0,&#34;g&#34;:1.0,&#34;b&#34;:1.0,&#34;a&#34;:1.0},&#34;position&#34;:1.0}],&#34;transform&#34;:{&#34;m00&#34;:845.33660888671875,&#34;m01&#34;:-38.405532836914062,&#34;m02&#34;:-291.97772216796875,&#34;m10&#34;:260.86816406250,&#34;m11&#34;:124.17641448974609,&#34;m12&#34;:56.839527130126953},&#34;opacity&#34;:1.0,&#34;blendMode&#34;:&#34;NORMAL&#34;,&#34;visible&#34;:true}"/>
<g clip-path="url(#paint18_diamond_578_28_clip_path)" data-figma-skip-parse="true"><g transform="matrix(0.422668 0.130434 -0.0192028 0.0620882 111.488 249.362)"><rect x="0" y="0" width="253.415" height="750.932" fill="url(#paint18_diamond_578_28)" opacity="1" shape-rendering="crispEdges"/><rect x="0" y="0" width="253.415" height="750.932" transform="scale(1 -1)" fill="url(#paint18_diamond_578_28)" opacity="1" shape-rendering="crispEdges"/><rect x="0" y="0" width="253.415" height="750.932" transform="scale(-1 1)" fill="url(#paint18_diamond_578_28)" opacity="1" shape-rendering="crispEdges"/><rect x="0" y="0" width="253.415" height="750.932" transform="scale(-1)" fill="url(#paint18_diamond_578_28)" opacity="1" shape-rendering="crispEdges"/></g></g><path d="M188.865 259.301V244.844H191.089V259.301H188.865ZM189.996 242.434C189.562 242.434 189.188 242.287 188.874 241.992C188.567 241.697 188.413 241.343 188.413 240.929C188.413 240.514 188.567 240.16 188.874 239.865C189.188 239.57 189.562 239.423 189.996 239.423C190.429 239.423 190.8 239.57 191.108 239.865C191.422 240.16 191.579 240.514 191.579 240.929C191.579 241.343 191.422 241.697 191.108 241.992C190.8 242.287 190.429 242.434 189.996 242.434Z" data-figma-gradient-fill="{&#34;type&#34;:&#34;GRADIENT_DIAMOND&#34;,&#34;stops&#34;:[{&#34;color&#34;:{&#34;r&#34;:0.84734082221984863,&#34;g&#34;:1.0,&#34;b&#34;:0.38936322927474976,&#34;a&#34;:1.0},&#34;position&#34;:0.0},{&#34;color&#34;:{&#34;r&#34;:1.0,&#34;g&#34;:1.0,&#34;b&#34;:1.0,&#34;a&#34;:1.0},&#34;position&#34;:1.0}],&#34;stopsVar&#34;:[{&#34;color&#34;:{&#34;r&#34;:0.84734082221984863,&#34;g&#34;:1.0,&#34;b&#34;:0.38936322927474976,&#34;a&#34;:1.0},&#34;position&#34;:0.0},{&#34;color&#34;:{&#34;r&#34;:1.0,&#34;g&#34;:1.0,&#34;b&#34;:1.0,&#34;a&#34;:1.0},&#34;position&#34;:1.0}],&#34;transform&#34;:{&#34;m00&#34;:845.33660888671875,&#34;m01&#34;:-38.405532836914062,&#34;m02&#34;:-291.97772216796875,&#34;m10&#34;:260.86816406250,&#34;m11&#34;:124.17641448974609,&#34;m12&#34;:56.839527130126953},&#34;opacity&#34;:1.0,&#34;blendMode&#34;:&#34;NORMAL&#34;,&#34;visible&#34;:true}"/>
<g clip-path="url(#paint19_diamond_578_28_clip_path)" data-figma-skip-parse="true"><g transform="matrix(0.422668 0.130434 -0.0192028 0.0620882 111.488 249.362)"><rect x="0" y="0" width="253.415" height="750.932" fill="url(#paint19_diamond_578_28)" opacity="1" shape-rendering="crispEdges"/><rect x="0" y="0" width="253.415" height="750.932" transform="scale(1 -1)" fill="url(#paint19_diamond_578_28)" opacity="1" shape-rendering="crispEdges"/><rect x="0" y="0" width="253.415" height="750.932" transform="scale(-1 1)" fill="url(#paint19_diamond_578_28)" opacity="1" shape-rendering="crispEdges"/><rect x="0" y="0" width="253.415" height="750.932" transform="scale(-1)" fill="url(#paint19_diamond_578_28)" opacity="1" shape-rendering="crispEdges"/></g></g><path d="M199.333 244.844V246.726H191.833V244.844H199.333ZM194.019 241.38H196.243V255.16C196.243 255.787 196.334 256.258 196.516 256.571C196.704 256.879 196.943 257.086 197.232 257.193C197.527 257.293 197.838 257.343 198.165 257.343C198.41 257.343 198.611 257.331 198.768 257.306C198.925 257.274 199.05 257.249 199.145 257.23L199.597 259.226C199.446 259.282 199.236 259.339 198.966 259.395C198.696 259.458 198.353 259.489 197.939 259.489C197.31 259.489 196.695 259.354 196.092 259.085C195.495 258.815 194.999 258.404 194.603 257.852C194.214 257.299 194.019 256.603 194.019 255.762V241.38Z" data-figma-gradient-fill="{&#34;type&#34;:&#34;GRADIENT_DIAMOND&#34;,&#34;stops&#34;:[{&#34;color&#34;:{&#34;r&#34;:0.84734082221984863,&#34;g&#34;:1.0,&#34;b&#34;:0.38936322927474976,&#34;a&#34;:1.0},&#34;position&#34;:0.0},{&#34;color&#34;:{&#34;r&#34;:1.0,&#34;g&#34;:1.0,&#34;b&#34;:1.0,&#34;a&#34;:1.0},&#34;position&#34;:1.0}],&#34;stopsVar&#34;:[{&#34;color&#34;:{&#34;r&#34;:0.84734082221984863,&#34;g&#34;:1.0,&#34;b&#34;:0.38936322927474976,&#34;a&#34;:1.0},&#34;position&#34;:0.0},{&#34;color&#34;:{&#34;r&#34;:1.0,&#34;g&#34;:1.0,&#34;b&#34;:1.0,&#34;a&#34;:1.0},&#34;position&#34;:1.0}],&#34;transform&#34;:{&#34;m00&#34;:845.33660888671875,&#34;m01&#34;:-38.405532836914062,&#34;m02&#34;:-291.97772216796875,&#34;m10&#34;:260.86816406250,&#34;m11&#34;:124.17641448974609,&#34;m12&#34;:56.839527130126953},&#34;opacity&#34;:1.0,&#34;blendMode&#34;:&#34;NORMAL&#34;,&#34;visible&#34;:true}"/>
<g clip-path="url(#paint20_diamond_578_28_clip_path)" data-figma-skip-parse="true"><g transform="matrix(0.422668 0.130434 -0.0192028 0.0620882 111.488 249.362)"><rect x="0" y="0" width="253.415" height="750.932" fill="url(#paint20_diamond_578_28)" opacity="1" shape-rendering="crispEdges"/><rect x="0" y="0" width="253.415" height="750.932" transform="scale(1 -1)" fill="url(#paint20_diamond_578_28)" opacity="1" shape-rendering="crispEdges"/><rect x="0" y="0" width="253.415" height="750.932" transform="scale(-1 1)" fill="url(#paint20_diamond_578_28)" opacity="1" shape-rendering="crispEdges"/><rect x="0" y="0" width="253.415" height="750.932" transform="scale(-1)" fill="url(#paint20_diamond_578_28)" opacity="1" shape-rendering="crispEdges"/></g></g><path d="M201.988 264.722C201.611 264.722 201.275 264.691 200.979 264.628C200.684 264.572 200.48 264.515 200.367 264.459L200.932 262.501C201.473 262.639 201.95 262.689 202.365 262.652C202.779 262.614 203.147 262.429 203.467 262.096C203.794 261.77 204.092 261.24 204.362 260.506L204.777 259.376L199.425 244.844H201.837L205.832 256.364H205.983L209.978 244.844H212.39L206.247 261.409C205.97 262.156 205.628 262.774 205.22 263.264C204.811 263.759 204.337 264.126 203.797 264.365C203.263 264.603 202.66 264.722 201.988 264.722Z" data-figma-gradient-fill="{&#34;type&#34;:&#34;GRADIENT_DIAMOND&#34;,&#34;stops&#34;:[{&#34;color&#34;:{&#34;r&#34;:0.84734082221984863,&#34;g&#34;:1.0,&#34;b&#34;:0.38936322927474976,&#34;a&#34;:1.0},&#34;position&#34;:0.0},{&#34;color&#34;:{&#34;r&#34;:1.0,&#34;g&#34;:1.0,&#34;b&#34;:1.0,&#34;a&#34;:1.0},&#34;position&#34;:1.0}],&#34;stopsVar&#34;:[{&#34;color&#34;:{&#34;r&#34;:0.84734082221984863,&#34;g&#34;:1.0,&#34;b&#34;:0.38936322927474976,&#34;a&#34;:1.0},&#34;position&#34;:0.0},{&#34;color&#34;:{&#34;r&#34;:1.0,&#34;g&#34;:1.0,&#34;b&#34;:1.0,&#34;a&#34;:1.0},&#34;position&#34;:1.0}],&#34;transform&#34;:{&#34;m00&#34;:845.33660888671875,&#34;m01&#34;:-38.405532836914062,&#34;m02&#34;:-291.97772216796875,&#34;m10&#34;:260.86816406250,&#34;m11&#34;:124.17641448974609,&#34;m12&#34;:56.839527130126953},&#34;opacity&#34;:1.0,&#34;blendMode&#34;:&#34;NORMAL&#34;,&#34;visible&#34;:true}"/>
<g clip-path="url(#paint21_diamond_578_28_clip_path)" data-figma-skip-parse="true"><g transform="matrix(0.422668 0.130434 -0.0192028 0.0620882 111.488 249.362)"><rect x="0" y="0" width="253.415" height="750.932" fill="url(#paint21_diamond_578_28)" opacity="1" shape-rendering="crispEdges"/><rect x="0" y="0" width="253.415" height="750.932" transform="scale(1 -1)" fill="url(#paint21_diamond_578_28)" opacity="1" shape-rendering="crispEdges"/><rect x="0" y="0" width="253.415" height="750.932" transform="scale(-1 1)" fill="url(#paint21_diamond_578_28)" opacity="1" shape-rendering="crispEdges"/><rect x="0" y="0" width="253.415" height="750.932" transform="scale(-1)" fill="url(#paint21_diamond_578_28)" opacity="1" shape-rendering="crispEdges"/></g></g><path d="M213.916 259.452C213.451 259.452 213.053 259.285 212.72 258.953C212.387 258.62 212.22 258.222 212.22 257.757C212.22 257.293 212.387 256.895 212.72 256.562C213.053 256.23 213.451 256.063 213.916 256.063C214.381 256.063 214.78 256.23 215.113 256.562C215.446 256.895 215.612 257.293 215.612 257.757C215.612 258.065 215.534 258.347 215.377 258.605C215.226 258.862 215.022 259.069 214.764 259.226C214.513 259.376 214.23 259.452 213.916 259.452Z" data-figma-gradient-fill="{&#34;type&#34;:&#34;GRADIENT_DIAMOND&#34;,&#34;stops&#34;:[{&#34;color&#34;:{&#34;r&#34;:0.84734082221984863,&#34;g&#34;:1.0,&#34;b&#34;:0.38936322927474976,&#34;a&#34;:1.0},&#34;position&#34;:0.0},{&#34;color&#34;:{&#34;r&#34;:1.0,&#34;g&#34;:1.0,&#34;b&#34;:1.0,&#34;a&#34;:1.0},&#34;position&#34;:1.0}],&#34;stopsVar&#34;:[{&#34;color&#34;:{&#34;r&#34;:0.84734082221984863,&#34;g&#34;:1.0,&#34;b&#34;:0.38936322927474976,&#34;a&#34;:1.0},&#34;position&#34;:0.0},{&#34;color&#34;:{&#34;r&#34;:1.0,&#34;g&#34;:1.0,&#34;b&#34;:1.0,&#34;a&#34;:1.0},&#34;position&#34;:1.0}],&#34;transform&#34;:{&#34;m00&#34;:845.33660888671875,&#34;m01&#34;:-38.405532836914062,&#34;m02&#34;:-291.97772216796875,&#34;m10&#34;:260.86816406250,&#34;m11&#34;:124.17641448974609,&#34;m12&#34;:56.839527130126953},&#34;opacity&#34;:1.0,&#34;blendMode&#34;:&#34;NORMAL&#34;,&#34;visible&#34;:true}"/>
<g clip-path="url(#paint22_diamond_578_28_clip_path)" data-figma-skip-parse="true"><g transform="matrix(0.422668 0.130434 -0.0192028 0.0620882 111.488 249.362)"><rect x="0" y="0" width="253.415" height="750.932" fill="url(#paint22_diamond_578_28)" opacity="1" shape-rendering="crispEdges"/><rect x="0" y="0" width="253.415" height="750.932" transform="scale(1 -1)" fill="url(#paint22_diamond_578_28)" opacity="1" shape-rendering="crispEdges"/><rect x="0" y="0" width="253.415" height="750.932" transform="scale(-1 1)" fill="url(#paint22_diamond_578_28)" opacity="1" shape-rendering="crispEdges"/><rect x="0" y="0" width="253.415" height="750.932" transform="scale(-1)" fill="url(#paint22_diamond_578_28)" opacity="1" shape-rendering="crispEdges"/></g></g><path d="M217.937 240.025V241.719C217.937 242.234 217.843 242.783 217.654 243.366C217.472 243.944 217.202 244.505 216.844 245.051C216.492 245.591 216.065 246.061 215.563 246.463L214.357 245.484C214.752 244.919 215.095 244.333 215.384 243.724C215.679 243.109 215.826 242.453 215.826 241.757V240.025H217.937ZM222.761 240.025V241.719C222.761 242.234 222.667 242.783 222.479 243.366C222.297 243.944 222.027 244.505 221.668 245.051C221.317 245.591 220.89 246.061 220.387 246.463L219.181 245.484C219.577 244.919 219.919 244.333 220.208 243.724C220.503 243.109 220.651 242.453 220.651 241.757V240.025H222.761Z" data-figma-gradient-fill="{&#34;type&#34;:&#34;GRADIENT_DIAMOND&#34;,&#34;stops&#34;:[{&#34;color&#34;:{&#34;r&#34;:0.84734082221984863,&#34;g&#34;:1.0,&#34;b&#34;:0.38936322927474976,&#34;a&#34;:1.0},&#34;position&#34;:0.0},{&#34;color&#34;:{&#34;r&#34;:1.0,&#34;g&#34;:1.0,&#34;b&#34;:1.0,&#34;a&#34;:1.0},&#34;position&#34;:1.0}],&#34;stopsVar&#34;:[{&#34;color&#34;:{&#34;r&#34;:0.84734082221984863,&#34;g&#34;:1.0,&#34;b&#34;:0.38936322927474976,&#34;a&#34;:1.0},&#34;position&#34;:0.0},{&#34;color&#34;:{&#34;r&#34;:1.0,&#34;g&#34;:1.0,&#34;b&#34;:1.0,&#34;a&#34;:1.0},&#34;position&#34;:1.0}],&#34;transform&#34;:{&#34;m00&#34;:845.33660888671875,&#34;m01&#34;:-38.405532836914062,&#34;m02&#34;:-291.97772216796875,&#34;m10&#34;:260.86816406250,&#34;m11&#34;:124.17641448974609,&#34;m12&#34;:56.839527130126953},&#34;opacity&#34;:1.0,&#34;blendMode&#34;:&#34;NORMAL&#34;,&#34;visible&#34;:true}"/>
<path fill-rule="evenodd" clip-rule="evenodd" d="M169.019 10.9943L162.004 54.807H190.914V54.8132H261.419C262.511 54.8031 263.677 54.7915 264.922 54.7915C273.1 55.2012 277.886 59.8201 279.793 64.7739C282.993 71.1727 280.199 78.2845 274.418 82.5008C263.95 90.1342 252.588 98.3256 240.334 107.075C224.322 118.127 208.689 129.753 193.439 141.948C186.195 147.284 177.808 154.334 168.277 163.099C159.127 171.483 151.31 178.343 144.829 183.678C155.504 178.343 165.418 175.673 174.568 175.673C186.767 175.673 197.633 179.677 207.164 187.679C209.069 189.217 210.997 190.818 212.958 192.469C217.249 187.666 221.875 182.639 226.836 177.39C233.317 170.53 239.416 164.24 245.135 158.524C250.853 152.427 255.429 148.043 258.86 145.375C274.49 132.038 288.978 119.272 302.321 107.078C309.287 100.696 316.549 94.2641 324.105 87.7838L273.626 87.7775C274.764 86.9497 275.896 86.1312 277.014 85.3161C283.73 80.4173 287.575 71.6332 283.51 63.3368C282.221 60.0898 279.935 57.0358 276.65 54.807L349.577 54.8132C350.708 54.8022 351.92 54.7884 353.217 54.7884C361.394 55.1981 366.181 59.8203 368.088 64.7739C371.288 71.1727 368.497 78.2845 362.716 82.5008C352.247 90.1345 340.887 98.3283 328.632 107.078C312.62 118.13 296.987 129.753 281.737 141.948C274.493 147.284 266.106 154.334 256.575 163.099C247.425 171.483 239.608 178.343 233.127 183.678C243.801 178.343 253.713 175.673 262.863 175.673C275.062 175.673 285.931 179.674 295.462 187.676C305.374 195.679 316.049 205.209 327.486 216.261C338.923 227.693 350.359 237.604 361.796 245.988C373.234 254.372 382.961 258.562 390.967 258.562C393.634 258.181 396.302 257.61 398.97 256.848C401.638 256.086 403.926 254.942 405.832 253.419C408.882 250.751 410.409 247.701 410.409 244.271C410.409 240.079 408.692 235.695 405.261 231.123C401.83 226.931 398.778 224.074 396.11 222.549C395.73 222.169 395.542 221.787 395.541 221.407C395.541 220.264 396.302 219.307 397.827 218.545C399.351 217.784 400.877 217.784 402.401 218.545C407.357 221.213 411.362 225.026 414.412 229.98C417.461 234.934 418.989 240.459 418.989 246.556C418.989 252.653 417.078 258.37 413.266 263.705C409.835 268.659 405.069 272.853 398.97 276.282C392.87 280.093 386.39 282 379.527 282C373.809 282 368.089 280.283 362.371 276.854C356.652 273.805 349.408 267.897 340.64 259.133C337.717 256.078 334.379 252.512 330.623 248.44C330.269 253.835 328.389 258.925 324.971 263.708C321.54 268.662 316.774 272.853 310.675 276.282C304.575 280.093 298.092 282 291.229 282C285.511 282 279.791 280.283 274.073 276.854C268.354 273.805 261.11 267.897 252.342 259.133C243.955 250.368 232.136 237.41 216.886 220.262C215.568 218.705 214.257 217.178 212.958 215.677C212.823 216.068 212.689 216.456 212.539 216.832C211.777 218.737 210.823 220.644 209.679 222.549C208.536 224.454 206.63 225.408 203.962 225.408C202.056 225.408 200.339 224.642 198.814 223.117C196.909 221.593 195.954 219.498 195.954 216.832C195.955 215.688 196.716 213.592 198.239 210.546C199.242 208.742 200.724 206.621 202.677 204.183C199.339 200.577 196.071 197.17 192.867 193.968C185.623 186.346 176.663 182.533 165.988 182.533C157.601 182.533 149.404 185.203 141.398 190.538C133.392 195.492 128.246 202.16 125.958 210.543C125.577 212.83 125.003 214.926 124.241 216.832C123.478 218.737 122.525 220.644 121.381 222.549C120.237 224.454 118.332 225.408 115.664 225.408C113.758 225.408 112.041 224.645 110.516 223.121C108.61 221.596 107.656 219.499 107.656 216.832C107.656 215.688 108.42 213.591 109.944 210.543C111.851 207.113 115.473 202.54 120.81 196.824C126.147 190.726 132.057 184.249 138.538 177.39C145.019 170.53 151.118 164.24 156.837 158.524C162.555 152.427 167.131 148.046 170.562 145.378C186.193 132.04 200.683 119.27 214.026 107.075C220.991 100.693 228.253 94.2638 235.807 87.7838H190.914V87.8117H156.747L144.335 166.268C141.63 169.067 138.851 171.976 136.001 174.993C129.524 181.848 123.606 188.329 118.254 194.44C116.35 196.479 114.638 198.404 113.124 200.207C107.351 191.885 105.529 180.901 107.656 167.261L120.22 87.8117H81.5809L61.4495 215.454H26.5339L50.7891 54.7884L125.188 54.807L132.2 10.9943H169.019ZM254.283 182.536C245.897 182.537 237.701 185.201 229.696 190.535C225.901 192.883 222.753 195.622 220.243 198.742C226.306 204.081 232.624 209.917 239.188 216.261C250.626 227.693 262.064 237.604 273.501 245.988C284.939 254.371 294.663 258.562 302.669 258.562C305.337 258.181 308.006 257.61 310.675 256.848C313.343 256.086 315.631 254.943 317.537 253.419C320.587 250.751 322.111 247.701 322.111 244.271C322.111 242.098 321.648 239.876 320.726 237.601C316.017 232.397 310.836 226.617 305.184 220.262C296.797 210.353 288.787 201.587 281.162 193.965C273.919 186.344 264.957 182.536 254.283 182.536Z" fill="#D8FF63"/>
<path d="M165.988 186.028C175.722 186.028 183.764 189.455 190.336 196.37L190.367 196.405L190.399 196.436C190.57 196.607 190.742 196.781 190.914 196.954V215.454H148.856C141.306 215.454 134.738 214.418 129.157 212.356C129.221 212.031 129.295 211.706 129.352 211.375C131.399 203.96 135.944 198.018 143.236 193.505L143.289 193.474L143.335 193.44C150.853 188.43 158.388 186.028 165.988 186.028Z" fill="#D8FF63"/>
<path d="M78.2551 0C85.462 0.000261892 90.9189 1.94759 94.6199 5.8417C98.5152 9.5411 99.8778 14.6046 98.7095 21.0295C97.7355 27.4546 94.8125 32.6179 89.9433 36.5122C85.074 40.2106 78.936 42.0586 71.5354 42.059C64.134 42.0588 58.5798 40.2111 54.8787 36.5122C51.1778 32.6178 49.8152 27.455 50.7891 21.0295C51.9581 14.6046 54.9778 9.54108 59.8472 5.8417C64.7167 1.94826 70.854 0.000252604 78.2551 0Z" fill="#D8FF63"/>
<path d="M687.553 165.938C690.961 165.938 693.94 166.779 696.48 168.461C699.02 170.143 700.987 172.613 702.377 175.868C703.788 179.124 704.497 183.13 704.497 187.872C704.497 192.613 703.788 196.614 702.377 199.869C700.987 203.124 699.02 205.593 696.48 207.275C693.94 208.958 690.961 209.8 687.553 209.8C684.146 209.799 681.171 208.957 678.632 207.275C676.092 205.593 674.116 203.123 672.705 199.869C671.316 196.614 670.616 192.613 670.615 187.872C670.615 183.13 671.315 179.124 672.705 175.868C674.116 172.614 676.092 170.143 678.632 168.461C681.171 166.78 684.146 165.938 687.553 165.938Z" fill="white"/>
<path d="M467.523 195.046H450.594L458.805 169.641H459.327L467.523 195.046Z" fill="white"/>
<path d="M630.111 191.996C632.369 191.996 634.313 192.405 635.941 193.213C637.592 194.021 638.866 195.136 639.756 196.557C640.645 197.976 641.091 199.613 641.092 201.469C641.092 204.003 640.191 206.039 638.39 207.568C636.588 209.076 633.72 209.83 629.791 209.83H618.288V191.996H630.111Z" fill="white"/>
<path d="M629.007 165.771C632.134 165.772 634.547 166.517 636.24 168.003C637.955 169.488 638.807 171.446 638.808 173.87C638.808 175.64 638.362 177.162 637.472 178.43C636.603 179.696 635.408 180.683 633.889 181.382C632.391 182.058 630.677 182.396 628.746 182.396H618.288V165.771H629.007Z" fill="white"/>
<path d="M755.101 195.046H738.171L746.382 169.641H746.904L755.101 195.046Z" fill="white"/>
<path d="M803.031 165.907C805.746 165.907 807.999 166.308 809.779 167.116C811.581 167.903 812.912 169.066 813.78 170.595C814.67 172.124 815.116 174.001 815.116 176.229C815.116 178.436 814.671 180.286 813.78 181.772C812.912 183.258 811.589 184.373 809.809 185.115C808.028 185.858 805.791 186.228 803.099 186.228H793.521V165.907H803.031Z" fill="white"/>
<path d="M855.373 166.463C859.541 166.463 863.048 167.209 865.892 168.694C868.736 170.18 870.878 172.496 872.311 175.643C873.765 178.789 874.49 182.845 874.49 187.805C874.49 192.808 873.765 196.896 872.311 200.064C870.878 203.21 868.726 205.535 865.861 207.043C863.017 208.529 859.505 209.274 855.336 209.274H846.379V166.463H855.373Z" fill="white"/>
<path fill-rule="evenodd" clip-rule="evenodd" d="M910 238H422.014C421.168 234.435 419.771 231.056 417.818 227.884C415.876 224.729 413.572 221.969 410.912 219.622C412.725 219.028 414.434 218.289 416.039 217.402C420.924 214.715 424.668 210.859 427.273 205.834C429.901 200.808 431.215 194.797 431.215 187.805C431.215 180.834 429.9 174.848 427.273 169.844C424.668 164.84 420.948 161.001 416.106 158.335C411.264 155.647 405.483 154.301 398.773 154.301H374.932V221.436H391.543C391.553 223.218 392.451 224.547 393.28 225.377L393.66 225.757L394.126 226.022C396.15 227.179 398.812 229.571 402.103 233.58C403.262 235.132 404.158 236.605 404.827 238H357.88C355.92 236.466 353.961 234.885 352 233.259V138H910V238ZM515.208 153.385C510.344 153.385 505.997 154.234 502.175 155.938C498.354 157.642 495.35 160.017 493.157 163.053C490.986 166.089 489.912 169.642 489.933 173.705C489.911 178.666 491.527 182.616 494.784 185.544C498.041 188.471 502.48 190.62 508.102 191.996L515.372 193.837C517.802 194.427 519.852 195.084 521.523 195.805C523.217 196.526 524.499 197.4 525.367 198.427C526.257 199.454 526.703 200.72 526.703 202.228C526.703 203.843 526.216 205.273 525.24 206.518C524.263 207.762 522.884 208.74 521.104 209.439C519.346 210.139 517.267 210.483 514.879 210.483C512.447 210.483 510.265 210.115 508.333 209.372C506.423 208.608 504.893 207.484 503.742 205.999C502.613 204.491 501.968 202.608 501.816 200.357H488.171C488.279 205.187 489.442 209.242 491.657 212.52C493.894 215.775 496.999 218.236 500.973 219.896C504.968 221.557 509.659 222.383 515.044 222.383C520.472 222.383 525.107 221.564 528.95 219.926C532.815 218.265 535.769 215.94 537.811 212.947C539.874 209.932 540.917 206.366 540.938 202.258C540.917 199.462 540.406 196.984 539.408 194.821C538.431 192.658 537.053 190.775 535.272 189.18C533.492 187.584 531.382 186.238 528.95 185.146C526.519 184.054 523.849 183.179 520.94 182.523L514.946 181.081C513.491 180.753 512.122 180.361 510.841 179.902C509.56 179.422 508.429 178.868 507.452 178.234C506.475 177.579 505.702 176.801 505.138 175.905C504.595 175.01 504.348 173.959 504.392 172.758C504.392 171.316 504.806 170.026 505.631 168.89C506.478 167.754 507.696 166.871 509.281 166.237C510.866 165.582 512.81 165.254 515.11 165.254C518.495 165.254 521.175 165.985 523.15 167.447C525.126 168.911 526.249 170.965 526.51 173.607H540.028C539.963 169.609 538.895 166.09 536.833 163.053C534.77 160.016 531.879 157.643 528.167 155.938C524.477 154.235 520.156 153.385 515.208 153.385ZM687.553 153.385C681.626 153.385 676.304 154.739 671.593 157.448C666.882 160.136 663.162 164.049 660.426 169.183C657.69 174.318 656.32 180.551 656.32 187.872C656.321 195.169 657.69 201.383 660.426 206.518C663.162 211.652 666.881 215.578 671.593 218.288C676.304 220.997 681.626 222.352 687.553 222.353C693.438 222.352 698.74 221.006 703.452 218.318C708.185 215.609 711.921 211.689 714.656 206.555C717.414 201.42 718.792 195.191 718.792 187.872C718.792 180.551 717.414 174.318 714.656 169.183C711.92 164.048 708.185 160.136 703.452 157.448C698.74 154.739 693.437 153.385 687.553 153.385ZM426.953 221.436H442.062L447.011 206.127H471.099L476.041 221.436H491.149L468.158 154.301H449.981L426.953 221.436ZM543.089 221.436H557.189V193.701H585.824V221.436H599.895V154.301H585.824V181.998H557.189V154.301H543.089V221.436ZM604.187 221.436H632.688C637.682 221.435 641.886 220.627 645.295 219.01C648.703 217.393 651.277 215.197 653.014 212.422C654.773 209.625 655.648 206.443 655.648 202.881C655.648 199.583 654.954 196.744 653.565 194.362C652.176 191.959 650.361 190.084 648.124 188.751C645.911 187.42 643.534 186.697 640.995 186.588V185.935C643.318 185.41 645.382 184.527 647.184 183.282C649.007 182.015 650.441 180.396 651.483 178.43C652.526 176.441 653.043 174.133 653.043 171.511C653.043 168.146 652.222 165.173 650.572 162.595C648.922 159.994 646.454 157.966 643.175 156.502C639.896 155.038 635.803 154.301 630.896 154.301H604.187V221.436ZM714.522 221.436H729.639L734.588 206.127H758.669L763.61 221.436H778.727L755.728 154.301H737.551L714.522 221.436ZM779.42 221.436H793.521V197.638H803.814L816.452 221.436H832.023L817.863 195.339C818.067 195.25 818.277 195.178 818.476 195.084C822.101 193.38 824.866 190.927 826.776 187.737C828.687 184.525 829.643 180.687 829.643 176.229C829.642 171.794 828.702 167.937 826.813 164.66C824.946 161.361 822.222 158.812 818.64 157.021C815.079 155.207 810.778 154.301 805.741 154.301H779.42V221.436ZM832.277 221.436H855.926C862.7 221.435 868.522 220.09 873.386 217.402C878.27 214.715 882.015 210.858 884.62 205.834C887.248 200.808 888.561 194.797 888.562 187.805C888.562 180.835 887.247 174.848 884.62 169.844C882.014 164.839 878.288 161.001 873.445 158.335C868.603 155.648 862.829 154.301 856.12 154.301H832.277V221.436Z" fill="white"/>
<path d="M407.159 233.92C407.365 234.26 407.563 234.598 407.749 234.936C407.672 234.796 407.593 234.657 407.513 234.518C407.398 234.319 407.28 234.12 407.159 233.92Z" fill="white"/>
<path d="M405.261 231.123C405.462 231.392 405.657 231.66 405.847 231.928L405.261 231.123Z" fill="white"/>
<path d="M396.109 222.55C396.272 222.643 396.436 222.741 396.602 222.844L396.109 222.55Z" fill="white"/>
<path d="M398.027 166.463C402.196 166.463 405.701 167.209 408.545 168.694C411.39 170.18 413.532 172.496 414.965 175.643C416.42 178.789 417.145 182.844 417.145 187.805C417.144 192.808 416.42 196.896 414.965 200.064C413.532 203.21 411.38 205.535 408.515 207.043C405.67 208.529 402.159 209.274 397.99 209.274H389.032V166.463H398.027Z" fill="white"/>
<path d="M565.043 54C568.916 54 572.506 54.5466 575.813 55.6396C579.143 56.7328 582.092 58.3289 584.659 60.4277C587.227 62.5047 589.316 65.0523 590.926 68.0693C592.558 71.0863 593.603 74.5403 594.06 78.4316H579.763C579.502 76.5737 578.969 74.9232 578.164 73.4805C577.359 72.0156 576.325 70.7688 575.062 69.7412C573.801 68.7138 572.343 67.9264 570.689 67.3799C569.058 66.8333 567.284 66.5606 565.369 66.5605C561.909 66.5605 558.896 67.4242 556.328 69.1514C553.761 70.8567 551.769 73.3486 550.354 76.6279C548.94 79.8855 548.233 83.8432 548.233 88.5C548.233 93.2879 548.94 97.3108 550.354 100.568C551.791 103.826 553.793 106.286 556.36 107.947C558.928 109.609 561.899 110.439 565.271 110.439C567.164 110.439 568.916 110.188 570.526 109.686C572.158 109.183 573.605 108.45 574.867 107.488C576.129 106.504 577.174 105.312 578.001 103.913C578.849 102.514 579.436 100.918 579.763 99.125L594.06 99.1914C593.69 102.274 592.765 105.247 591.285 108.111C589.827 110.953 587.857 113.5 585.377 115.752C582.918 117.982 579.981 119.754 576.564 121.065C573.17 122.355 569.329 123 565.043 123C559.081 123 553.75 121.644 549.05 118.934C544.372 116.223 540.672 112.298 537.952 107.16C535.254 102.022 533.904 95.8023 533.904 88.5C533.904 81.1759 535.276 74.9445 538.018 69.8066C540.759 64.6691 544.48 60.7555 549.18 58.0664C553.88 55.3554 559.168 54 565.043 54Z" fill="white"/>
<path fill-rule="evenodd" clip-rule="evenodd" d="M626.967 54C632.864 54 638.173 55.3555 642.895 58.0664C647.638 60.7555 651.381 64.6689 654.123 69.8066C656.887 74.9445 658.268 81.1759 658.268 88.5C658.268 95.8241 656.887 102.056 654.123 107.193C651.381 112.331 647.638 116.255 642.895 118.966C638.173 121.655 632.864 123 626.967 123C621.026 123 615.695 121.645 610.974 118.934C606.252 116.223 602.52 112.298 599.778 107.16C597.037 102.022 595.666 95.8023 595.666 88.5C595.666 81.1759 597.037 74.9445 599.778 69.8066C602.52 64.669 606.252 60.7555 610.974 58.0664C615.695 55.3554 621.026 54 626.967 54ZM626.967 66.5605C623.551 66.5605 620.569 67.4025 618.023 69.0859C615.478 70.7694 613.497 73.2396 612.083 76.4971C610.69 79.7547 609.994 83.7557 609.994 88.5C609.994 93.2443 610.69 97.2453 612.083 100.503C613.497 103.76 615.478 106.231 618.023 107.914C620.569 109.598 623.551 110.439 626.967 110.439C630.383 110.439 633.364 109.598 635.91 107.914C638.456 106.231 640.425 103.76 641.817 100.503C643.232 97.2453 643.939 93.2443 643.939 88.5C643.939 83.7557 643.232 79.7547 641.817 76.4971C640.425 73.2397 638.456 70.7694 635.91 69.0859C633.364 67.4025 630.383 66.5605 626.967 66.5605Z" fill="white"/>
<path d="M796.167 107.259C798.234 107.259 800.051 108.024 801.617 109.554C803.184 111.084 803.978 112.921 804 115.063C803.978 116.506 803.597 117.83 802.857 119.032C802.139 120.213 801.192 121.163 800.018 121.885C798.843 122.584 797.559 122.934 796.167 122.935C794.013 122.935 792.163 122.169 790.618 120.639C789.073 119.086 788.311 117.228 788.333 115.063C788.311 112.921 789.073 111.084 790.618 109.554C792.163 108.024 794.013 107.259 796.167 107.259Z" fill="white"/>
<path d="M416.658 101.684H417.246L428.311 54.918H443.749L424.623 122.082H410.849L398.119 78.1699H397.598L384.9 122.082H371.127L362.096 90.3691C363.495 89.3517 364.882 88.347 366.251 87.3486C369.119 85.2572 371.567 82.4736 373.216 79.2861L378.503 101.585H379.058L391.266 54.918H404.484L416.658 101.684Z" fill="white"/>
<path d="M489.003 66.626H458.094V82.6299H486.686V94.3379H458.094V110.374H489.134V122.082H443.961V54.918H489.003V66.626Z" fill="white"/>
<path d="M507.019 110.374H535.677V122.082H492.886V54.918H507.019V110.374Z" fill="white"/>
<path d="M697.222 100.044H698.006L716.414 54.918H733.844V122.082H720.135V78.3662H719.58L702.281 121.754H692.946L675.647 78.2021H675.093V122.082H661.384V54.918H678.813L697.222 100.044Z" fill="white"/>
<path d="M783.177 66.626H752.268V82.6299H780.859V94.3379H752.268V110.374H783.308V122.082H738.135V54.918H783.177V66.626Z" fill="white"/>
<path d="M802.14 101.946H790.193L788.888 54.918H803.412L802.14 101.946Z" fill="white"/>
<path d="M359.946 56.3066C360.123 56.3841 360.297 56.4633 360.469 56.5459C360.653 56.6348 360.834 56.7269 361.013 56.8213C360.669 56.6391 360.313 56.468 359.946 56.3066Z" fill="white"/>
<path d="M355.428 55.0107C355.481 55.019 355.535 55.0294 355.588 55.0381C355.495 55.023 355.402 55.008 355.308 54.9941C355.348 55.0001 355.388 55.0046 355.428 55.0107Z" fill="white"/>
<path d="M354.951 54.9453C354.881 54.9361 354.81 54.9265 354.739 54.918H354.746C354.815 54.9262 354.883 54.9364 354.951 54.9453Z" fill="white"/>
<defs>
<clipPath id="paint1_diamond_578_28_clip_path"><path d="M0 246.049V244.355C0 243.84 0.0910848 243.294 0.273254 242.717C0.461706 242.133 0.731819 241.572 1.08359 241.032C1.44165 240.486 1.87195 240.012 2.37449 239.611L3.58057 240.59C3.18483 241.154 2.83933 241.744 2.54409 242.359C2.25513 242.968 2.11065 243.62 2.11065 244.317V246.049H0ZM4.82435 246.049V244.355C4.82435 243.84 4.91544 243.294 5.09761 242.717C5.28606 242.133 5.55617 241.572 5.90795 241.032C6.26601 240.486 6.6963 240.012 7.19884 239.611L8.40493 240.59C8.00918 241.154 7.66369 241.744 7.36845 242.359C7.07949 242.968 6.93501 243.62 6.93501 244.317V246.049H4.82435Z"/></clipPath><clipPath id="paint2_diamond_578_28_clip_path"><path d="M11.3751 240.025V259.301H9.03831V240.025H11.3751Z"/></clipPath><clipPath id="paint3_diamond_578_28_clip_path"><path d="M19.9305 244.844V246.726H12.4302V244.844H19.9305ZM14.6162 241.38H16.8399V255.16C16.8399 255.787 16.931 256.258 17.1132 256.571C17.3016 256.879 17.5403 257.086 17.8293 257.193C18.1245 257.293 18.4355 257.343 18.7621 257.343C19.0071 257.343 19.2081 257.331 19.3652 257.306C19.5222 257.274 19.6478 257.249 19.7421 257.23L20.1943 259.226C20.0436 259.282 19.8331 259.339 19.563 259.395C19.2929 259.458 18.9506 259.489 18.536 259.489C17.9078 259.489 17.2922 259.354 16.6892 259.085C16.0924 258.815 15.5961 258.404 15.2004 257.852C14.8109 257.299 14.6162 256.603 14.6162 255.762V241.38Z"/></clipPath><clipPath id="paint4_diamond_578_28_clip_path"><path d="M20.7382 259.301V257.607L28.9547 247.065V246.915H21.002V244.844H31.8192V246.613L23.8288 257.08V257.23H32.083V259.301H20.7382Z"/></clipPath><clipPath id="paint5_diamond_578_28_clip_path"><path d="M32.9708 259.301V257.607L41.1873 247.065V246.915H33.2346V244.844H44.0517V246.613L36.0614 257.08V257.23H44.3155V259.301H32.9708Z"/></clipPath><clipPath id="paint6_diamond_578_28_clip_path"><path d="M55.2169 259.64C54.2998 259.64 53.4674 259.467 52.7199 259.122C51.9724 258.771 51.3788 258.266 50.939 257.607C50.4993 256.942 50.2795 256.139 50.2795 255.197C50.2795 254.369 50.4428 253.698 50.7694 253.183C51.0961 252.662 51.5327 252.254 52.0792 251.96C52.6257 251.665 53.2287 251.445 53.8883 251.301C54.5542 251.15 55.2232 251.031 55.8953 250.943C56.7748 250.83 57.4877 250.745 58.0342 250.689C58.587 250.626 58.9891 250.523 59.2403 250.378C59.4979 250.234 59.6266 249.983 59.6266 249.625V249.55C59.6266 248.621 59.3722 247.9 58.8634 247.385C58.3609 246.871 57.5977 246.613 56.5737 246.613C55.5121 246.613 54.6798 246.846 54.0768 247.31C53.4737 247.774 53.0497 248.27 52.8047 248.797L50.6941 248.044C51.071 247.166 51.5735 246.482 52.2017 245.992C52.8361 245.497 53.5271 245.151 54.2746 244.957C55.0284 244.756 55.7697 244.656 56.4984 244.656C56.9632 244.656 57.4971 244.712 58.1002 244.825C58.7095 244.932 59.2969 245.155 59.8622 245.493C60.4338 245.832 60.9081 246.344 61.285 247.028C61.6619 247.712 61.8504 248.628 61.8504 249.776V259.301H59.6266V257.343H59.5136C59.3628 257.657 59.1115 257.993 58.7598 258.35C58.408 258.708 57.94 259.012 57.3558 259.263C56.7716 259.514 56.0586 259.64 55.2169 259.64ZM55.5561 257.644C56.4355 257.644 57.1768 257.472 57.7798 257.127C58.3892 256.782 58.8477 256.336 59.1555 255.79C59.4696 255.244 59.6266 254.67 59.6266 254.068V252.035C59.5324 252.148 59.3251 252.251 59.0048 252.345C58.6907 252.433 58.3263 252.512 57.9117 252.581C57.5034 252.643 57.1045 252.7 56.7151 252.75C56.3319 252.794 56.0209 252.832 55.7822 252.863C55.2043 252.938 54.6641 253.061 54.1616 253.23C53.6653 253.393 53.2633 253.641 52.9555 253.974C52.654 254.3 52.5032 254.746 52.5032 255.31C52.5032 256.082 52.789 256.666 53.3606 257.061C53.9386 257.45 54.6704 257.644 55.5561 257.644Z"/></clipPath><clipPath id="paint7_diamond_578_28_clip_path"><path d="M66.0102 240.025V259.301H63.7864V240.025H66.0102Z"/></clipPath><clipPath id="paint8_diamond_578_28_clip_path"><path d="M70.1841 240.025V259.301H67.9603V240.025H70.1841Z"/></clipPath><clipPath id="paint9_diamond_578_28_clip_path"><path d="M81.7332 259.64C80.8161 259.64 79.9838 259.467 79.2362 259.122C78.4887 258.771 77.8951 258.266 77.4554 257.607C77.0156 256.942 76.7958 256.139 76.7958 255.197C76.7958 254.369 76.9591 253.698 77.2858 253.183C77.6124 252.662 78.049 252.254 78.5955 251.96C79.142 251.665 79.7451 251.445 80.4046 251.301C81.0705 251.15 81.7395 251.031 82.4116 250.943C83.2911 250.83 84.0041 250.745 84.5506 250.689C85.1034 250.626 85.5054 250.523 85.7566 250.378C86.0142 250.234 86.143 249.983 86.143 249.625V249.55C86.143 248.621 85.8886 247.9 85.3798 247.385C84.8772 246.871 84.114 246.613 83.0901 246.613C82.0285 246.613 81.1961 246.846 80.5931 247.31C79.99 247.774 79.566 248.27 79.321 248.797L77.2104 248.044C77.5873 247.166 78.0898 246.482 78.718 245.992C79.3524 245.497 80.0434 245.151 80.791 244.957C81.5448 244.756 82.286 244.656 83.0147 244.656C83.4795 244.656 84.0135 244.712 84.6165 244.825C85.2258 244.932 85.8132 245.155 86.3785 245.493C86.9502 245.832 87.4244 246.344 87.8013 247.028C88.1782 247.712 88.3667 248.628 88.3667 249.776V259.301H86.143V257.343H86.0299C85.8791 257.657 85.6279 257.993 85.2761 258.35C84.9243 258.708 84.4563 259.012 83.8721 259.263C83.2879 259.514 82.575 259.64 81.7332 259.64ZM82.0724 257.644C82.9519 257.644 83.6931 257.472 84.2962 257.127C84.9055 256.782 85.364 256.336 85.6718 255.79C85.9859 255.244 86.143 254.67 86.143 254.068V252.035C86.0487 252.148 85.8415 252.251 85.5211 252.345C85.207 252.433 84.8427 252.512 84.4281 252.581C84.0198 252.643 83.6209 252.7 83.2314 252.75C82.8482 252.794 82.5373 252.832 82.2986 252.863C81.7207 252.938 81.1804 253.061 80.6779 253.23C80.1816 253.393 79.7796 253.641 79.4718 253.974C79.1703 254.3 79.0195 254.746 79.0195 255.31C79.0195 256.082 79.3053 256.666 79.877 257.061C80.4549 257.45 81.1867 257.644 82.0724 257.644Z"/></clipPath><clipPath id="paint10_diamond_578_28_clip_path"><path d="M90.6043 259.301V240.025H92.828V247.141H93.0164C93.1798 246.89 93.4059 246.57 93.6949 246.181C93.9901 245.785 94.411 245.434 94.9575 245.126C95.5103 244.813 96.2578 244.656 97.2001 244.656C98.4187 244.656 99.4929 244.96 100.423 245.569C101.352 246.177 102.078 247.04 102.599 248.157C103.121 249.274 103.381 250.592 103.381 252.11C103.381 253.641 103.121 254.968 102.599 256.091C102.078 257.208 101.355 258.074 100.432 258.689C99.5086 259.298 98.4438 259.602 97.2378 259.602C96.3081 259.602 95.5637 259.448 95.0046 259.141C94.4455 258.827 94.0152 258.473 93.7137 258.077C93.4122 257.676 93.1798 257.343 93.0164 257.08H92.7526V259.301H90.6043ZM92.7903 252.072C92.7903 253.164 92.9505 254.127 93.2709 254.962C93.5912 255.79 94.0592 256.44 94.6748 256.91C95.2904 257.375 96.0442 257.607 96.9362 257.607C97.8659 257.607 98.6417 257.362 99.2636 256.873C99.8918 256.377 100.363 255.712 100.677 254.877C100.997 254.036 101.158 253.102 101.158 252.072C101.158 251.056 101 250.14 100.686 249.324C100.379 248.502 99.9106 247.853 99.2825 247.376C98.6606 246.893 97.8785 246.651 96.9362 246.651C96.0317 246.651 95.2716 246.88 94.656 247.338C94.0404 247.79 93.5755 248.424 93.2614 249.239C92.9473 250.049 92.7903 250.993 92.7903 252.072Z"/></clipPath><clipPath id="paint11_diamond_578_28_clip_path"><path d="M110.54 259.602C109.233 259.602 108.087 259.292 107.101 258.67C106.121 258.049 105.354 257.18 104.801 256.063C104.255 254.946 103.982 253.641 103.982 252.148C103.982 250.642 104.255 249.327 104.801 248.204C105.354 247.081 106.121 246.209 107.101 245.588C108.087 244.966 109.233 244.656 110.54 244.656C111.846 244.656 112.99 244.966 113.97 245.588C114.956 246.209 115.722 247.081 116.269 248.204C116.821 249.327 117.098 250.642 117.098 252.148C117.098 253.641 116.821 254.946 116.269 256.063C115.722 257.18 114.956 258.049 113.97 258.67C112.99 259.292 111.846 259.602 110.54 259.602ZM110.54 257.607C111.532 257.607 112.349 257.353 112.99 256.844C113.63 256.336 114.105 255.668 114.412 254.84C114.72 254.011 114.874 253.114 114.874 252.148C114.874 251.181 114.72 250.281 114.412 249.447C114.105 248.612 113.63 247.937 112.99 247.423C112.349 246.908 111.532 246.651 110.54 246.651C109.547 246.651 108.731 246.908 108.09 247.423C107.449 247.937 106.975 248.612 106.667 249.447C106.359 250.281 106.205 251.181 106.205 252.148C106.205 253.114 106.359 254.011 106.667 254.84C106.975 255.668 107.449 256.336 108.09 256.844C108.731 257.353 109.547 257.607 110.54 257.607Z"/></clipPath><clipPath id="paint12_diamond_578_28_clip_path"><path d="M127.491 253.39V244.844H129.714V259.301H127.491V256.854H127.34C127.001 257.588 126.473 258.212 125.757 258.727C125.041 259.235 124.136 259.489 123.043 259.489C122.139 259.489 121.335 259.292 120.631 258.896C119.928 258.495 119.375 257.892 118.973 257.089C118.571 256.28 118.37 255.26 118.37 254.03V244.844H120.593V253.88C120.593 254.934 120.889 255.775 121.479 256.402C122.076 257.03 122.836 257.343 123.759 257.343C124.312 257.343 124.874 257.202 125.446 256.92C126.024 256.637 126.508 256.204 126.897 255.621C127.293 255.037 127.491 254.294 127.491 253.39Z"/></clipPath><clipPath id="paint13_diamond_578_28_clip_path"><path d="M137.959 244.844V246.726H130.459V244.844H137.959ZM132.645 241.38H134.868V255.16C134.868 255.787 134.959 256.258 135.142 256.571C135.33 256.879 135.569 257.086 135.858 257.193C136.153 257.293 136.464 257.343 136.79 257.343C137.035 257.343 137.236 257.331 137.394 257.306C137.551 257.274 137.676 257.249 137.77 257.23L138.223 259.226C138.072 259.282 137.862 259.339 137.591 259.395C137.321 259.458 136.979 259.489 136.564 259.489C135.936 259.489 135.321 259.354 134.718 259.085C134.121 258.815 133.624 258.404 133.229 257.852C132.839 257.299 132.645 256.603 132.645 255.762V241.38Z"/></clipPath><clipPath id="paint14_diamond_578_28_clip_path"><path d="M154.396 264.722V257.08H154.208C154.044 257.343 153.812 257.676 153.51 258.077C153.209 258.473 152.778 258.827 152.219 259.141C151.66 259.448 150.916 259.602 149.986 259.602C148.78 259.602 147.715 259.298 146.792 258.689C145.869 258.074 145.146 257.208 144.625 256.091C144.103 254.968 143.843 253.641 143.843 252.11C143.843 250.592 144.103 249.274 144.625 248.157C145.146 247.04 145.872 246.177 146.801 245.569C147.731 244.96 148.805 244.656 150.024 244.656C150.966 244.656 151.711 244.813 152.257 245.126C152.81 245.434 153.231 245.785 153.52 246.181C153.815 246.57 154.044 246.89 154.208 247.141H154.471V244.844H156.62V264.722H154.396ZM150.288 257.607C151.18 257.607 151.934 257.375 152.549 256.91C153.165 256.44 153.633 255.79 153.953 254.962C154.273 254.127 154.434 253.164 154.434 252.072C154.434 250.993 154.277 250.049 153.963 249.239C153.648 248.424 153.184 247.79 152.568 247.338C151.952 246.88 151.192 246.651 150.288 246.651C149.345 246.651 148.56 246.893 147.932 247.376C147.31 247.853 146.842 248.502 146.528 249.324C146.22 250.14 146.066 251.056 146.066 252.072C146.066 253.102 146.223 254.036 146.538 254.877C146.858 255.712 147.329 256.377 147.951 256.873C148.579 257.362 149.358 257.607 150.288 257.607Z"/></clipPath><clipPath id="paint15_diamond_578_28_clip_path"><path d="M167.689 253.39V244.844H169.912V259.301H167.689V256.854H167.538C167.199 257.588 166.671 258.212 165.955 258.727C165.239 259.235 164.334 259.489 163.241 259.489C162.337 259.489 161.533 259.292 160.829 258.896C160.125 258.495 159.573 257.892 159.171 257.089C158.769 256.28 158.568 255.26 158.568 254.03V244.844H160.791V253.88C160.791 254.934 161.087 255.775 161.677 256.402C162.274 257.03 163.034 257.343 163.957 257.343C164.51 257.343 165.072 257.202 165.644 256.92C166.222 256.637 166.705 256.204 167.095 255.621C167.491 255.037 167.689 254.294 167.689 253.39Z"/></clipPath><clipPath id="paint16_diamond_578_28_clip_path"><path d="M176.121 259.64C175.204 259.64 174.372 259.467 173.625 259.122C172.877 258.771 172.283 258.266 171.844 257.607C171.404 256.942 171.184 256.139 171.184 255.197C171.184 254.369 171.347 253.698 171.674 253.183C172.001 252.662 172.437 252.254 172.984 251.96C173.53 251.665 174.133 251.445 174.793 251.301C175.459 251.15 176.128 251.031 176.8 250.943C177.679 250.83 178.392 250.745 178.939 250.689C179.492 250.626 179.894 250.523 180.145 250.378C180.402 250.234 180.531 249.983 180.531 249.625V249.55C180.531 248.621 180.277 247.9 179.768 247.385C179.265 246.871 178.502 246.613 177.478 246.613C176.417 246.613 175.584 246.846 174.981 247.31C174.378 247.774 173.954 248.27 173.709 248.797L171.599 248.044C171.976 247.166 172.478 246.482 173.106 245.992C173.741 245.497 174.432 245.151 175.179 244.957C175.933 244.756 176.674 244.656 177.403 244.656C177.868 244.656 178.402 244.712 179.005 244.825C179.614 244.932 180.201 245.155 180.767 245.493C181.338 245.832 181.813 246.344 182.19 247.028C182.567 247.712 182.755 248.628 182.755 249.776V259.301H180.531V257.343H180.418C180.267 257.657 180.016 257.993 179.664 258.35C179.313 258.708 178.845 259.012 178.26 259.263C177.676 259.514 176.963 259.64 176.121 259.64ZM176.461 257.644C177.34 257.644 178.081 257.472 178.684 257.127C179.294 256.782 179.752 256.336 180.06 255.79C180.374 255.244 180.531 254.67 180.531 254.068V252.035C180.437 252.148 180.23 252.251 179.909 252.345C179.595 252.433 179.231 252.512 178.816 252.581C178.408 252.643 178.009 252.7 177.62 252.75C177.236 252.794 176.926 252.832 176.687 252.863C176.109 252.938 175.569 253.061 175.066 253.23C174.57 253.393 174.168 253.641 173.86 253.974C173.559 254.3 173.408 254.746 173.408 255.31C173.408 256.082 173.694 256.666 174.265 257.061C174.843 257.45 175.575 257.644 176.461 257.644Z"/></clipPath><clipPath id="paint17_diamond_578_28_clip_path"><path d="M186.915 240.025V259.301H184.691V240.025H186.915Z"/></clipPath><clipPath id="paint18_diamond_578_28_clip_path"><path d="M188.865 259.301V244.844H191.089V259.301H188.865ZM189.996 242.434C189.562 242.434 189.188 242.287 188.874 241.992C188.567 241.697 188.413 241.343 188.413 240.929C188.413 240.514 188.567 240.16 188.874 239.865C189.188 239.57 189.562 239.423 189.996 239.423C190.429 239.423 190.8 239.57 191.108 239.865C191.422 240.16 191.579 240.514 191.579 240.929C191.579 241.343 191.422 241.697 191.108 241.992C190.8 242.287 190.429 242.434 189.996 242.434Z"/></clipPath><clipPath id="paint19_diamond_578_28_clip_path"><path d="M199.333 244.844V246.726H191.833V244.844H199.333ZM194.019 241.38H196.243V255.16C196.243 255.787 196.334 256.258 196.516 256.571C196.704 256.879 196.943 257.086 197.232 257.193C197.527 257.293 197.838 257.343 198.165 257.343C198.41 257.343 198.611 257.331 198.768 257.306C198.925 257.274 199.05 257.249 199.145 257.23L199.597 259.226C199.446 259.282 199.236 259.339 198.966 259.395C198.696 259.458 198.353 259.489 197.939 259.489C197.31 259.489 196.695 259.354 196.092 259.085C195.495 258.815 194.999 258.404 194.603 257.852C194.214 257.299 194.019 256.603 194.019 255.762V241.38Z"/></clipPath><clipPath id="paint20_diamond_578_28_clip_path"><path d="M201.988 264.722C201.611 264.722 201.275 264.691 200.979 264.628C200.684 264.572 200.48 264.515 200.367 264.459L200.932 262.501C201.473 262.639 201.95 262.689 202.365 262.652C202.779 262.614 203.147 262.429 203.467 262.096C203.794 261.77 204.092 261.24 204.362 260.506L204.777 259.376L199.425 244.844H201.837L205.832 256.364H205.983L209.978 244.844H212.39L206.247 261.409C205.97 262.156 205.628 262.774 205.22 263.264C204.811 263.759 204.337 264.126 203.797 264.365C203.263 264.603 202.66 264.722 201.988 264.722Z"/></clipPath><clipPath id="paint21_diamond_578_28_clip_path"><path d="M213.916 259.452C213.451 259.452 213.053 259.285 212.72 258.953C212.387 258.62 212.22 258.222 212.22 257.757C212.22 257.293 212.387 256.895 212.72 256.562C213.053 256.23 213.451 256.063 213.916 256.063C214.381 256.063 214.78 256.23 215.113 256.562C215.446 256.895 215.612 257.293 215.612 257.757C215.612 258.065 215.534 258.347 215.377 258.605C215.226 258.862 215.022 259.069 214.764 259.226C214.513 259.376 214.23 259.452 213.916 259.452Z"/></clipPath><clipPath id="paint22_diamond_578_28_clip_path"><path d="M217.937 240.025V241.719C217.937 242.234 217.843 242.783 217.654 243.366C217.472 243.944 217.202 244.505 216.844 245.051C216.492 245.591 216.065 246.061 215.563 246.463L214.357 245.484C214.752 244.919 215.095 244.333 215.384 243.724C215.679 243.109 215.826 242.453 215.826 241.757V240.025H217.937ZM222.761 240.025V241.719C222.761 242.234 222.667 242.783 222.479 243.366C222.297 243.944 222.027 244.505 221.668 245.051C221.317 245.591 220.89 246.061 220.387 246.463L219.181 245.484C219.577 244.919 219.919 244.333 220.208 243.724C220.503 243.109 220.651 242.453 220.651 241.757V240.025H222.761Z"/></clipPath><linearGradient id="paint0_linear_578_28" x1="192.525" y1="33.8215" x2="818.232" y2="33.8215" gradientUnits="userSpaceOnUse">
<stop stop-color="#D8FF63"/>
<stop offset="1" stop-color="white"/>
</linearGradient>
<linearGradient id="paint1_diamond_578_28" x1="0" y1="0" x2="500" y2="500" gradientUnits="userSpaceOnUse">
<stop stop-color="#D8FF63"/>
<stop offset="1" stop-color="white"/>
</linearGradient>
<linearGradient id="paint2_diamond_578_28" x1="0" y1="0" x2="500" y2="500" gradientUnits="userSpaceOnUse">
<stop stop-color="#D8FF63"/>
<stop offset="1" stop-color="white"/>
</linearGradient>
<linearGradient id="paint3_diamond_578_28" x1="0" y1="0" x2="500" y2="500" gradientUnits="userSpaceOnUse">
<stop stop-color="#D8FF63"/>
<stop offset="1" stop-color="white"/>
</linearGradient>
<linearGradient id="paint4_diamond_578_28" x1="0" y1="0" x2="500" y2="500" gradientUnits="userSpaceOnUse">
<stop stop-color="#D8FF63"/>
<stop offset="1" stop-color="white"/>
</linearGradient>
<linearGradient id="paint5_diamond_578_28" x1="0" y1="0" x2="500" y2="500" gradientUnits="userSpaceOnUse">
<stop stop-color="#D8FF63"/>
<stop offset="1" stop-color="white"/>
</linearGradient>
<linearGradient id="paint6_diamond_578_28" x1="0" y1="0" x2="500" y2="500" gradientUnits="userSpaceOnUse">
<stop stop-color="#D8FF63"/>
<stop offset="1" stop-color="white"/>
</linearGradient>
<linearGradient id="paint7_diamond_578_28" x1="0" y1="0" x2="500" y2="500" gradientUnits="userSpaceOnUse">
<stop stop-color="#D8FF63"/>
<stop offset="1" stop-color="white"/>
</linearGradient>
<linearGradient id="paint8_diamond_578_28" x1="0" y1="0" x2="500" y2="500" gradientUnits="userSpaceOnUse">
<stop stop-color="#D8FF63"/>
<stop offset="1" stop-color="white"/>
</linearGradient>
<linearGradient id="paint9_diamond_578_28" x1="0" y1="0" x2="500" y2="500" gradientUnits="userSpaceOnUse">
<stop stop-color="#D8FF63"/>
<stop offset="1" stop-color="white"/>
</linearGradient>
<linearGradient id="paint10_diamond_578_28" x1="0" y1="0" x2="500" y2="500" gradientUnits="userSpaceOnUse">
<stop stop-color="#D8FF63"/>
<stop offset="1" stop-color="white"/>
</linearGradient>
<linearGradient id="paint11_diamond_578_28" x1="0" y1="0" x2="500" y2="500" gradientUnits="userSpaceOnUse">
<stop stop-color="#D8FF63"/>
<stop offset="1" stop-color="white"/>
</linearGradient>
<linearGradient id="paint12_diamond_578_28" x1="0" y1="0" x2="500" y2="500" gradientUnits="userSpaceOnUse">
<stop stop-color="#D8FF63"/>
<stop offset="1" stop-color="white"/>
</linearGradient>
<linearGradient id="paint13_diamond_578_28" x1="0" y1="0" x2="500" y2="500" gradientUnits="userSpaceOnUse">
<stop stop-color="#D8FF63"/>
<stop offset="1" stop-color="white"/>
</linearGradient>
<linearGradient id="paint14_diamond_578_28" x1="0" y1="0" x2="500" y2="500" gradientUnits="userSpaceOnUse">
<stop stop-color="#D8FF63"/>
<stop offset="1" stop-color="white"/>
</linearGradient>
<linearGradient id="paint15_diamond_578_28" x1="0" y1="0" x2="500" y2="500" gradientUnits="userSpaceOnUse">
<stop stop-color="#D8FF63"/>
<stop offset="1" stop-color="white"/>
</linearGradient>
<linearGradient id="paint16_diamond_578_28" x1="0" y1="0" x2="500" y2="500" gradientUnits="userSpaceOnUse">
<stop stop-color="#D8FF63"/>
<stop offset="1" stop-color="white"/>
</linearGradient>
<linearGradient id="paint17_diamond_578_28" x1="0" y1="0" x2="500" y2="500" gradientUnits="userSpaceOnUse">
<stop stop-color="#D8FF63"/>
<stop offset="1" stop-color="white"/>
</linearGradient>
<linearGradient id="paint18_diamond_578_28" x1="0" y1="0" x2="500" y2="500" gradientUnits="userSpaceOnUse">
<stop stop-color="#D8FF63"/>
<stop offset="1" stop-color="white"/>
</linearGradient>
<linearGradient id="paint19_diamond_578_28" x1="0" y1="0" x2="500" y2="500" gradientUnits="userSpaceOnUse">
<stop stop-color="#D8FF63"/>
<stop offset="1" stop-color="white"/>
</linearGradient>
<linearGradient id="paint20_diamond_578_28" x1="0" y1="0" x2="500" y2="500" gradientUnits="userSpaceOnUse">
<stop stop-color="#D8FF63"/>
<stop offset="1" stop-color="white"/>
</linearGradient>
<linearGradient id="paint21_diamond_578_28" x1="0" y1="0" x2="500" y2="500" gradientUnits="userSpaceOnUse">
<stop stop-color="#D8FF63"/>
<stop offset="1" stop-color="white"/>
</linearGradient>
<linearGradient id="paint22_diamond_578_28" x1="0" y1="0" x2="500" y2="500" gradientUnits="userSpaceOnUse">
<stop stop-color="#D8FF63"/>
<stop offset="1" stop-color="white"/>
</linearGradient>
</defs>
</svg>
