<svg width="1685" height="457" viewBox="0 0 1685 457" fill="none" xmlns="http://www.w3.org/2000/svg">
<path d="M312 49.5C309.515 49.5 307.5 51.5147 307.5 54C307.5 56.4853 309.515 58.5 312 58.5V54V49.5ZM1329.18 57.182C1330.94 55.4246 1330.94 52.5754 1329.18 50.818L1300.54 22.1802C1298.79 20.4228 1295.94 20.4228 1294.18 22.1802C1292.42 23.9376 1292.42 26.7868 1294.18 28.5442L1319.64 54L1294.18 79.4558C1292.42 81.2132 1292.42 84.0624 1294.18 85.8198C1295.94 87.5772 1298.79 87.5772 1300.54 85.8198L1329.18 57.182ZM312 54V58.5H1326V54V49.5H312V54Z" fill="url(#paint0_linear_552_27)"/>
<g clip-path="url(#paint1_diamond_552_27_clip_path)" data-figma-skip-parse="true"><g transform="matrix(0.684962 0.211377 -0.0311194 0.100618 180.674 404.107)"><rect x="0" y="0" width="252.333" height="743.564" fill="url(#paint1_diamond_552_27)" opacity="1" shape-rendering="crispEdges"/><rect x="0" y="0" width="252.333" height="743.564" transform="scale(1 -1)" fill="url(#paint1_diamond_552_27)" opacity="1" shape-rendering="crispEdges"/><rect x="0" y="0" width="252.333" height="743.564" transform="scale(-1 1)" fill="url(#paint1_diamond_552_27)" opacity="1" shape-rendering="crispEdges"/><rect x="0" y="0" width="252.333" height="743.564" transform="scale(-1)" fill="url(#paint1_diamond_552_27)" opacity="1" shape-rendering="crispEdges"/></g></g><path d="M0 398.738V395.993C0 395.159 0.147609 394.274 0.442827 393.339C0.748225 392.393 1.18596 391.483 1.75604 390.608C2.33629 389.724 3.03362 388.956 3.84802 388.305L5.80256 389.891C5.16123 390.807 4.60133 391.762 4.12287 392.759C3.6546 393.745 3.42046 394.803 3.42046 395.932V398.738H0ZM7.81819 398.738V395.993C7.81819 395.159 7.9658 394.274 8.26102 393.339C8.56641 392.393 9.00415 391.483 9.57423 390.608C10.1545 389.724 10.8518 388.956 11.6662 388.305L13.6208 389.891C12.9794 390.807 12.4195 391.762 11.9411 392.759C11.4728 393.745 11.2386 394.803 11.2386 395.932V398.738H7.81819Z" data-figma-gradient-fill="{&#34;type&#34;:&#34;GRADIENT_DIAMOND&#34;,&#34;stops&#34;:[{&#34;color&#34;:{&#34;r&#34;:0.84734082221984863,&#34;g&#34;:1.0,&#34;b&#34;:0.38936322927474976,&#34;a&#34;:1.0},&#34;position&#34;:0.0},{&#34;color&#34;:{&#34;r&#34;:1.0,&#34;g&#34;:1.0,&#34;b&#34;:1.0,&#34;a&#34;:1.0},&#34;position&#34;:1.0}],&#34;stopsVar&#34;:[{&#34;color&#34;:{&#34;r&#34;:0.84734082221984863,&#34;g&#34;:1.0,&#34;b&#34;:0.38936322927474976,&#34;a&#34;:1.0},&#34;position&#34;:0.0},{&#34;color&#34;:{&#34;r&#34;:1.0,&#34;g&#34;:1.0,&#34;b&#34;:1.0,&#34;a&#34;:1.0},&#34;position&#34;:1.0}],&#34;transform&#34;:{&#34;m00&#34;:1369.9249267578125,&#34;m01&#34;:-62.238754272460938,&#34;m02&#34;:-473.16958618164062,&#34;m10&#34;:422.754394531250,&#34;m11&#34;:201.23625183105469,&#34;m12&#34;:92.111824035644531},&#34;opacity&#34;:1.0,&#34;blendMode&#34;:&#34;NORMAL&#34;,&#34;visible&#34;:true}"/>
<g clip-path="url(#paint2_diamond_552_27_clip_path)" data-figma-skip-parse="true"><g transform="matrix(0.684962 0.211377 -0.0311194 0.100618 180.674 404.107)"><rect x="0" y="0" width="252.333" height="743.564" fill="url(#paint2_diamond_552_27)" opacity="1" shape-rendering="crispEdges"/><rect x="0" y="0" width="252.333" height="743.564" transform="scale(1 -1)" fill="url(#paint2_diamond_552_27)" opacity="1" shape-rendering="crispEdges"/><rect x="0" y="0" width="252.333" height="743.564" transform="scale(-1 1)" fill="url(#paint2_diamond_552_27)" opacity="1" shape-rendering="crispEdges"/><rect x="0" y="0" width="252.333" height="743.564" transform="scale(-1)" fill="url(#paint2_diamond_552_27)" opacity="1" shape-rendering="crispEdges"/></g></g><path d="M18.4341 388.976V420.214H14.6472V388.976H18.4341Z" data-figma-gradient-fill="{&#34;type&#34;:&#34;GRADIENT_DIAMOND&#34;,&#34;stops&#34;:[{&#34;color&#34;:{&#34;r&#34;:0.84734082221984863,&#34;g&#34;:1.0,&#34;b&#34;:0.38936322927474976,&#34;a&#34;:1.0},&#34;position&#34;:0.0},{&#34;color&#34;:{&#34;r&#34;:1.0,&#34;g&#34;:1.0,&#34;b&#34;:1.0,&#34;a&#34;:1.0},&#34;position&#34;:1.0}],&#34;stopsVar&#34;:[{&#34;color&#34;:{&#34;r&#34;:0.84734082221984863,&#34;g&#34;:1.0,&#34;b&#34;:0.38936322927474976,&#34;a&#34;:1.0},&#34;position&#34;:0.0},{&#34;color&#34;:{&#34;r&#34;:1.0,&#34;g&#34;:1.0,&#34;b&#34;:1.0,&#34;a&#34;:1.0},&#34;position&#34;:1.0}],&#34;transform&#34;:{&#34;m00&#34;:1369.9249267578125,&#34;m01&#34;:-62.238754272460938,&#34;m02&#34;:-473.16958618164062,&#34;m10&#34;:422.754394531250,&#34;m11&#34;:201.23625183105469,&#34;m12&#34;:92.111824035644531},&#34;opacity&#34;:1.0,&#34;blendMode&#34;:&#34;NORMAL&#34;,&#34;visible&#34;:true}"/>
<g clip-path="url(#paint3_diamond_552_27_clip_path)" data-figma-skip-parse="true"><g transform="matrix(0.684962 0.211377 -0.0311194 0.100618 180.674 404.107)"><rect x="0" y="0" width="252.333" height="743.564" fill="url(#paint3_diamond_552_27)" opacity="1" shape-rendering="crispEdges"/><rect x="0" y="0" width="252.333" height="743.564" transform="scale(1 -1)" fill="url(#paint3_diamond_552_27)" opacity="1" shape-rendering="crispEdges"/><rect x="0" y="0" width="252.333" height="743.564" transform="scale(-1 1)" fill="url(#paint3_diamond_552_27)" opacity="1" shape-rendering="crispEdges"/><rect x="0" y="0" width="252.333" height="743.564" transform="scale(-1)" fill="url(#paint3_diamond_552_27)" opacity="1" shape-rendering="crispEdges"/></g></g><path d="M32.2987 396.786V399.836H20.1439V396.786H32.2987ZM23.6865 391.173H27.2902V413.503C27.2902 414.52 27.4378 415.282 27.733 415.791C28.0384 416.289 28.4253 416.625 28.8936 416.798C29.372 416.96 29.8759 417.042 30.4053 417.042C30.8023 417.042 31.128 417.021 31.3825 416.981C31.637 416.93 31.8406 416.889 31.9933 416.859L32.7263 420.092C32.482 420.184 32.141 420.275 31.7032 420.367C31.2655 420.469 30.7107 420.519 30.0388 420.519C29.0208 420.519 28.0232 420.301 27.0459 419.863C26.0788 419.426 25.2746 418.76 24.6333 417.865C24.0021 416.97 23.6865 415.842 23.6865 414.479V391.173Z" data-figma-gradient-fill="{&#34;type&#34;:&#34;GRADIENT_DIAMOND&#34;,&#34;stops&#34;:[{&#34;color&#34;:{&#34;r&#34;:0.84734082221984863,&#34;g&#34;:1.0,&#34;b&#34;:0.38936322927474976,&#34;a&#34;:1.0},&#34;position&#34;:0.0},{&#34;color&#34;:{&#34;r&#34;:1.0,&#34;g&#34;:1.0,&#34;b&#34;:1.0,&#34;a&#34;:1.0},&#34;position&#34;:1.0}],&#34;stopsVar&#34;:[{&#34;color&#34;:{&#34;r&#34;:0.84734082221984863,&#34;g&#34;:1.0,&#34;b&#34;:0.38936322927474976,&#34;a&#34;:1.0},&#34;position&#34;:0.0},{&#34;color&#34;:{&#34;r&#34;:1.0,&#34;g&#34;:1.0,&#34;b&#34;:1.0,&#34;a&#34;:1.0},&#34;position&#34;:1.0}],&#34;transform&#34;:{&#34;m00&#34;:1369.9249267578125,&#34;m01&#34;:-62.238754272460938,&#34;m02&#34;:-473.16958618164062,&#34;m10&#34;:422.754394531250,&#34;m11&#34;:201.23625183105469,&#34;m12&#34;:92.111824035644531},&#34;opacity&#34;:1.0,&#34;blendMode&#34;:&#34;NORMAL&#34;,&#34;visible&#34;:true}"/>
<g clip-path="url(#paint4_diamond_552_27_clip_path)" data-figma-skip-parse="true"><g transform="matrix(0.684962 0.211377 -0.0311194 0.100618 180.674 404.107)"><rect x="0" y="0" width="252.333" height="743.564" fill="url(#paint4_diamond_552_27)" opacity="1" shape-rendering="crispEdges"/><rect x="0" y="0" width="252.333" height="743.564" transform="scale(1 -1)" fill="url(#paint4_diamond_552_27)" opacity="1" shape-rendering="crispEdges"/><rect x="0" y="0" width="252.333" height="743.564" transform="scale(-1 1)" fill="url(#paint4_diamond_552_27)" opacity="1" shape-rendering="crispEdges"/><rect x="0" y="0" width="252.333" height="743.564" transform="scale(-1)" fill="url(#paint4_diamond_552_27)" opacity="1" shape-rendering="crispEdges"/></g></g><path d="M33.6077 420.214V417.469L46.923 400.385V400.141H34.0352V396.786H51.5651V399.653L38.6162 416.615V416.859H51.9926V420.214H33.6077Z" data-figma-gradient-fill="{&#34;type&#34;:&#34;GRADIENT_DIAMOND&#34;,&#34;stops&#34;:[{&#34;color&#34;:{&#34;r&#34;:0.84734082221984863,&#34;g&#34;:1.0,&#34;b&#34;:0.38936322927474976,&#34;a&#34;:1.0},&#34;position&#34;:0.0},{&#34;color&#34;:{&#34;r&#34;:1.0,&#34;g&#34;:1.0,&#34;b&#34;:1.0,&#34;a&#34;:1.0},&#34;position&#34;:1.0}],&#34;stopsVar&#34;:[{&#34;color&#34;:{&#34;r&#34;:0.84734082221984863,&#34;g&#34;:1.0,&#34;b&#34;:0.38936322927474976,&#34;a&#34;:1.0},&#34;position&#34;:0.0},{&#34;color&#34;:{&#34;r&#34;:1.0,&#34;g&#34;:1.0,&#34;b&#34;:1.0,&#34;a&#34;:1.0},&#34;position&#34;:1.0}],&#34;transform&#34;:{&#34;m00&#34;:1369.9249267578125,&#34;m01&#34;:-62.238754272460938,&#34;m02&#34;:-473.16958618164062,&#34;m10&#34;:422.754394531250,&#34;m11&#34;:201.23625183105469,&#34;m12&#34;:92.111824035644531},&#34;opacity&#34;:1.0,&#34;blendMode&#34;:&#34;NORMAL&#34;,&#34;visible&#34;:true}"/>
<g clip-path="url(#paint5_diamond_552_27_clip_path)" data-figma-skip-parse="true"><g transform="matrix(0.684962 0.211377 -0.0311194 0.100618 180.674 404.107)"><rect x="0" y="0" width="252.333" height="743.564" fill="url(#paint5_diamond_552_27)" opacity="1" shape-rendering="crispEdges"/><rect x="0" y="0" width="252.333" height="743.564" transform="scale(1 -1)" fill="url(#paint5_diamond_552_27)" opacity="1" shape-rendering="crispEdges"/><rect x="0" y="0" width="252.333" height="743.564" transform="scale(-1 1)" fill="url(#paint5_diamond_552_27)" opacity="1" shape-rendering="crispEdges"/><rect x="0" y="0" width="252.333" height="743.564" transform="scale(-1)" fill="url(#paint5_diamond_552_27)" opacity="1" shape-rendering="crispEdges"/></g></g><path d="M53.4314 420.214V417.469L66.7467 400.385V400.141H53.8589V396.786H71.3888V399.653L58.4399 416.615V416.859H71.8163V420.214H53.4314Z" data-figma-gradient-fill="{&#34;type&#34;:&#34;GRADIENT_DIAMOND&#34;,&#34;stops&#34;:[{&#34;color&#34;:{&#34;r&#34;:0.84734082221984863,&#34;g&#34;:1.0,&#34;b&#34;:0.38936322927474976,&#34;a&#34;:1.0},&#34;position&#34;:0.0},{&#34;color&#34;:{&#34;r&#34;:1.0,&#34;g&#34;:1.0,&#34;b&#34;:1.0,&#34;a&#34;:1.0},&#34;position&#34;:1.0}],&#34;stopsVar&#34;:[{&#34;color&#34;:{&#34;r&#34;:0.84734082221984863,&#34;g&#34;:1.0,&#34;b&#34;:0.38936322927474976,&#34;a&#34;:1.0},&#34;position&#34;:0.0},{&#34;color&#34;:{&#34;r&#34;:1.0,&#34;g&#34;:1.0,&#34;b&#34;:1.0,&#34;a&#34;:1.0},&#34;position&#34;:1.0}],&#34;transform&#34;:{&#34;m00&#34;:1369.9249267578125,&#34;m01&#34;:-62.238754272460938,&#34;m02&#34;:-473.16958618164062,&#34;m10&#34;:422.754394531250,&#34;m11&#34;:201.23625183105469,&#34;m12&#34;:92.111824035644531},&#34;opacity&#34;:1.0,&#34;blendMode&#34;:&#34;NORMAL&#34;,&#34;visible&#34;:true}"/>
<g clip-path="url(#paint6_diamond_552_27_clip_path)" data-figma-skip-parse="true"><g transform="matrix(0.684962 0.211377 -0.0311194 0.100618 180.674 404.107)"><rect x="0" y="0" width="252.333" height="743.564" fill="url(#paint6_diamond_552_27)" opacity="1" shape-rendering="crispEdges"/><rect x="0" y="0" width="252.333" height="743.564" transform="scale(1 -1)" fill="url(#paint6_diamond_552_27)" opacity="1" shape-rendering="crispEdges"/><rect x="0" y="0" width="252.333" height="743.564" transform="scale(-1 1)" fill="url(#paint6_diamond_552_27)" opacity="1" shape-rendering="crispEdges"/><rect x="0" y="0" width="252.333" height="743.564" transform="scale(-1)" fill="url(#paint6_diamond_552_27)" opacity="1" shape-rendering="crispEdges"/></g></g><path d="M89.4827 420.763C87.9964 420.763 86.6476 420.484 85.4362 419.924C84.2248 419.355 83.2627 418.536 82.5502 417.469C81.8376 416.391 81.4813 415.089 81.4813 413.564C81.4813 412.222 81.7459 411.134 82.2753 410.3C82.8047 409.456 83.5122 408.795 84.3978 408.317C85.2835 407.839 86.2607 407.483 87.3296 407.249C88.4087 407.005 89.4929 406.812 90.5821 406.67C92.0073 406.487 93.1627 406.349 94.0484 406.258C94.9442 406.156 95.5957 405.988 96.0029 405.754C96.4203 405.521 96.629 405.114 96.629 404.534V404.412C96.629 402.907 96.2167 401.738 95.3921 400.904C94.5777 400.07 93.3409 399.653 91.6816 399.653C89.9611 399.653 88.6123 400.03 87.635 400.782C86.6578 401.534 85.9706 402.338 85.5736 403.192L82.1531 401.972C82.7639 400.548 83.5783 399.44 84.5963 398.647C85.6245 397.843 86.7443 397.284 87.9557 396.969C89.1773 396.643 90.3785 396.481 91.5594 396.481C92.3127 396.481 93.178 396.572 94.1553 396.755C95.1427 396.928 96.0946 397.289 97.0107 397.838C97.9371 398.387 98.7057 399.216 99.3165 400.324C99.9273 401.433 100.233 402.917 100.233 404.778V420.214H96.629V417.042H96.4458C96.2014 417.55 95.7942 418.094 95.2242 418.674C94.6541 419.253 93.8957 419.747 92.949 420.153C92.0022 420.56 90.8468 420.763 89.4827 420.763ZM90.0324 417.53C91.4576 417.53 92.6588 417.25 93.6361 416.691C94.6236 416.132 95.3667 415.41 95.8655 414.525C96.3745 413.64 96.629 412.71 96.629 411.734V408.439C96.4763 408.622 96.1404 408.79 95.6212 408.942C95.1122 409.085 94.5218 409.212 93.8499 409.324C93.1882 409.425 92.5418 409.517 91.9106 409.598C91.2896 409.669 90.7857 409.73 90.3989 409.781C89.4623 409.903 88.5869 410.102 87.7725 410.376C86.9682 410.641 86.3167 411.042 85.8179 411.581C85.3293 412.11 85.085 412.832 85.085 413.747C85.085 414.998 85.5481 415.943 86.4745 416.584C87.4111 417.215 88.597 417.53 90.0324 417.53Z" data-figma-gradient-fill="{&#34;type&#34;:&#34;GRADIENT_DIAMOND&#34;,&#34;stops&#34;:[{&#34;color&#34;:{&#34;r&#34;:0.84734082221984863,&#34;g&#34;:1.0,&#34;b&#34;:0.38936322927474976,&#34;a&#34;:1.0},&#34;position&#34;:0.0},{&#34;color&#34;:{&#34;r&#34;:1.0,&#34;g&#34;:1.0,&#34;b&#34;:1.0,&#34;a&#34;:1.0},&#34;position&#34;:1.0}],&#34;stopsVar&#34;:[{&#34;color&#34;:{&#34;r&#34;:0.84734082221984863,&#34;g&#34;:1.0,&#34;b&#34;:0.38936322927474976,&#34;a&#34;:1.0},&#34;position&#34;:0.0},{&#34;color&#34;:{&#34;r&#34;:1.0,&#34;g&#34;:1.0,&#34;b&#34;:1.0,&#34;a&#34;:1.0},&#34;position&#34;:1.0}],&#34;transform&#34;:{&#34;m00&#34;:1369.9249267578125,&#34;m01&#34;:-62.238754272460938,&#34;m02&#34;:-473.16958618164062,&#34;m10&#34;:422.754394531250,&#34;m11&#34;:201.23625183105469,&#34;m12&#34;:92.111824035644531},&#34;opacity&#34;:1.0,&#34;blendMode&#34;:&#34;NORMAL&#34;,&#34;visible&#34;:true}"/>
<g clip-path="url(#paint7_diamond_552_27_clip_path)" data-figma-skip-parse="true"><g transform="matrix(0.684962 0.211377 -0.0311194 0.100618 180.674 404.107)"><rect x="0" y="0" width="252.333" height="743.564" fill="url(#paint7_diamond_552_27)" opacity="1" shape-rendering="crispEdges"/><rect x="0" y="0" width="252.333" height="743.564" transform="scale(1 -1)" fill="url(#paint7_diamond_552_27)" opacity="1" shape-rendering="crispEdges"/><rect x="0" y="0" width="252.333" height="743.564" transform="scale(-1 1)" fill="url(#paint7_diamond_552_27)" opacity="1" shape-rendering="crispEdges"/><rect x="0" y="0" width="252.333" height="743.564" transform="scale(-1)" fill="url(#paint7_diamond_552_27)" opacity="1" shape-rendering="crispEdges"/></g></g><path d="M106.974 388.976V420.214H103.37V388.976H106.974Z" data-figma-gradient-fill="{&#34;type&#34;:&#34;GRADIENT_DIAMOND&#34;,&#34;stops&#34;:[{&#34;color&#34;:{&#34;r&#34;:0.84734082221984863,&#34;g&#34;:1.0,&#34;b&#34;:0.38936322927474976,&#34;a&#34;:1.0},&#34;position&#34;:0.0},{&#34;color&#34;:{&#34;r&#34;:1.0,&#34;g&#34;:1.0,&#34;b&#34;:1.0,&#34;a&#34;:1.0},&#34;position&#34;:1.0}],&#34;stopsVar&#34;:[{&#34;color&#34;:{&#34;r&#34;:0.84734082221984863,&#34;g&#34;:1.0,&#34;b&#34;:0.38936322927474976,&#34;a&#34;:1.0},&#34;position&#34;:0.0},{&#34;color&#34;:{&#34;r&#34;:1.0,&#34;g&#34;:1.0,&#34;b&#34;:1.0,&#34;a&#34;:1.0},&#34;position&#34;:1.0}],&#34;transform&#34;:{&#34;m00&#34;:1369.9249267578125,&#34;m01&#34;:-62.238754272460938,&#34;m02&#34;:-473.16958618164062,&#34;m10&#34;:422.754394531250,&#34;m11&#34;:201.23625183105469,&#34;m12&#34;:92.111824035644531},&#34;opacity&#34;:1.0,&#34;blendMode&#34;:&#34;NORMAL&#34;,&#34;visible&#34;:true}"/>
<g clip-path="url(#paint8_diamond_552_27_clip_path)" data-figma-skip-parse="true"><g transform="matrix(0.684962 0.211377 -0.0311194 0.100618 180.674 404.107)"><rect x="0" y="0" width="252.333" height="743.564" fill="url(#paint8_diamond_552_27)" opacity="1" shape-rendering="crispEdges"/><rect x="0" y="0" width="252.333" height="743.564" transform="scale(1 -1)" fill="url(#paint8_diamond_552_27)" opacity="1" shape-rendering="crispEdges"/><rect x="0" y="0" width="252.333" height="743.564" transform="scale(-1 1)" fill="url(#paint8_diamond_552_27)" opacity="1" shape-rendering="crispEdges"/><rect x="0" y="0" width="252.333" height="743.564" transform="scale(-1)" fill="url(#paint8_diamond_552_27)" opacity="1" shape-rendering="crispEdges"/></g></g><path d="M113.738 388.976V420.214H110.134V388.976H113.738Z" data-figma-gradient-fill="{&#34;type&#34;:&#34;GRADIENT_DIAMOND&#34;,&#34;stops&#34;:[{&#34;color&#34;:{&#34;r&#34;:0.84734082221984863,&#34;g&#34;:1.0,&#34;b&#34;:0.38936322927474976,&#34;a&#34;:1.0},&#34;position&#34;:0.0},{&#34;color&#34;:{&#34;r&#34;:1.0,&#34;g&#34;:1.0,&#34;b&#34;:1.0,&#34;a&#34;:1.0},&#34;position&#34;:1.0}],&#34;stopsVar&#34;:[{&#34;color&#34;:{&#34;r&#34;:0.84734082221984863,&#34;g&#34;:1.0,&#34;b&#34;:0.38936322927474976,&#34;a&#34;:1.0},&#34;position&#34;:0.0},{&#34;color&#34;:{&#34;r&#34;:1.0,&#34;g&#34;:1.0,&#34;b&#34;:1.0,&#34;a&#34;:1.0},&#34;position&#34;:1.0}],&#34;transform&#34;:{&#34;m00&#34;:1369.9249267578125,&#34;m01&#34;:-62.238754272460938,&#34;m02&#34;:-473.16958618164062,&#34;m10&#34;:422.754394531250,&#34;m11&#34;:201.23625183105469,&#34;m12&#34;:92.111824035644531},&#34;opacity&#34;:1.0,&#34;blendMode&#34;:&#34;NORMAL&#34;,&#34;visible&#34;:true}"/>
<g clip-path="url(#paint9_diamond_552_27_clip_path)" data-figma-skip-parse="true"><g transform="matrix(0.684962 0.211377 -0.0311194 0.100618 180.674 404.107)"><rect x="0" y="0" width="252.333" height="743.564" fill="url(#paint9_diamond_552_27)" opacity="1" shape-rendering="crispEdges"/><rect x="0" y="0" width="252.333" height="743.564" transform="scale(1 -1)" fill="url(#paint9_diamond_552_27)" opacity="1" shape-rendering="crispEdges"/><rect x="0" y="0" width="252.333" height="743.564" transform="scale(-1 1)" fill="url(#paint9_diamond_552_27)" opacity="1" shape-rendering="crispEdges"/><rect x="0" y="0" width="252.333" height="743.564" transform="scale(-1)" fill="url(#paint9_diamond_552_27)" opacity="1" shape-rendering="crispEdges"/></g></g><path d="M132.454 420.763C130.968 420.763 129.619 420.484 128.408 419.924C127.196 419.355 126.234 418.536 125.522 417.469C124.809 416.391 124.453 415.089 124.453 413.564C124.453 412.222 124.717 411.134 125.247 410.3C125.776 409.456 126.484 408.795 127.369 408.317C128.255 407.839 129.232 407.483 130.301 407.249C131.38 407.005 132.464 406.812 133.554 406.67C134.979 406.487 136.134 406.349 137.02 406.258C137.916 406.156 138.567 405.988 138.974 405.754C139.392 405.521 139.6 405.114 139.6 404.534V404.412C139.6 402.907 139.188 401.738 138.364 400.904C137.549 400.07 136.312 399.653 134.653 399.653C132.933 399.653 131.584 400.03 130.607 400.782C129.629 401.534 128.942 402.338 128.545 403.192L125.125 401.972C125.735 400.548 126.55 399.44 127.568 398.647C128.596 397.843 129.716 397.284 130.927 396.969C132.149 396.643 133.35 396.481 134.531 396.481C135.284 396.481 136.149 396.572 137.127 396.755C138.114 396.928 139.066 397.289 139.982 397.838C140.909 398.387 141.677 399.216 142.288 400.324C142.899 401.433 143.204 402.917 143.204 404.778V420.214H139.6V417.042H139.417C139.173 417.55 138.766 418.094 138.196 418.674C137.626 419.253 136.867 419.747 135.92 420.153C134.974 420.56 133.818 420.763 132.454 420.763ZM133.004 417.53C134.429 417.53 135.63 417.25 136.608 416.691C137.595 416.132 138.338 415.41 138.837 414.525C139.346 413.64 139.6 412.71 139.6 411.734V408.439C139.448 408.622 139.112 408.79 138.593 408.942C138.084 409.085 137.493 409.212 136.821 409.324C136.16 409.425 135.513 409.517 134.882 409.598C134.261 409.669 133.757 409.73 133.37 409.781C132.434 409.903 131.558 410.102 130.744 410.376C129.94 410.641 129.288 411.042 128.789 411.581C128.301 412.11 128.056 412.832 128.056 413.747C128.056 414.998 128.52 415.943 129.446 416.584C130.383 417.215 131.569 417.53 133.004 417.53Z" data-figma-gradient-fill="{&#34;type&#34;:&#34;GRADIENT_DIAMOND&#34;,&#34;stops&#34;:[{&#34;color&#34;:{&#34;r&#34;:0.84734082221984863,&#34;g&#34;:1.0,&#34;b&#34;:0.38936322927474976,&#34;a&#34;:1.0},&#34;position&#34;:0.0},{&#34;color&#34;:{&#34;r&#34;:1.0,&#34;g&#34;:1.0,&#34;b&#34;:1.0,&#34;a&#34;:1.0},&#34;position&#34;:1.0}],&#34;stopsVar&#34;:[{&#34;color&#34;:{&#34;r&#34;:0.84734082221984863,&#34;g&#34;:1.0,&#34;b&#34;:0.38936322927474976,&#34;a&#34;:1.0},&#34;position&#34;:0.0},{&#34;color&#34;:{&#34;r&#34;:1.0,&#34;g&#34;:1.0,&#34;b&#34;:1.0,&#34;a&#34;:1.0},&#34;position&#34;:1.0}],&#34;transform&#34;:{&#34;m00&#34;:1369.9249267578125,&#34;m01&#34;:-62.238754272460938,&#34;m02&#34;:-473.16958618164062,&#34;m10&#34;:422.754394531250,&#34;m11&#34;:201.23625183105469,&#34;m12&#34;:92.111824035644531},&#34;opacity&#34;:1.0,&#34;blendMode&#34;:&#34;NORMAL&#34;,&#34;visible&#34;:true}"/>
<g clip-path="url(#paint10_diamond_552_27_clip_path)" data-figma-skip-parse="true"><g transform="matrix(0.684962 0.211377 -0.0311194 0.100618 180.674 404.107)"><rect x="0" y="0" width="252.333" height="743.564" fill="url(#paint10_diamond_552_27)" opacity="1" shape-rendering="crispEdges"/><rect x="0" y="0" width="252.333" height="743.564" transform="scale(1 -1)" fill="url(#paint10_diamond_552_27)" opacity="1" shape-rendering="crispEdges"/><rect x="0" y="0" width="252.333" height="743.564" transform="scale(-1 1)" fill="url(#paint10_diamond_552_27)" opacity="1" shape-rendering="crispEdges"/><rect x="0" y="0" width="252.333" height="743.564" transform="scale(-1)" fill="url(#paint10_diamond_552_27)" opacity="1" shape-rendering="crispEdges"/></g></g><path d="M146.83 420.214V388.976H150.434V400.507H150.739C151.004 400.101 151.371 399.582 151.839 398.952C152.317 398.311 152.999 397.742 153.885 397.243C154.781 396.735 155.992 396.481 157.519 396.481C159.494 396.481 161.235 396.974 162.742 397.96C164.248 398.947 165.424 400.345 166.269 402.155C167.114 403.965 167.536 406.1 167.536 408.561C167.536 411.042 167.114 413.193 166.269 415.013C165.424 416.823 164.253 418.226 162.757 419.223C161.26 420.209 159.535 420.702 157.58 420.702C156.074 420.702 154.867 420.453 153.961 419.955C153.055 419.447 152.358 418.872 151.869 418.231C151.381 417.581 151.004 417.042 150.739 416.615H150.312V420.214H146.83ZM150.373 408.5C150.373 410.269 150.633 411.83 151.152 413.183C151.671 414.525 152.429 415.577 153.427 416.34C154.425 417.093 155.646 417.469 157.092 417.469C158.598 417.469 159.856 417.072 160.863 416.279C161.881 415.476 162.645 414.398 163.154 413.045C163.673 411.683 163.933 410.168 163.933 408.5C163.933 406.853 163.678 405.368 163.169 404.046C162.67 402.714 161.912 401.662 160.894 400.889C159.886 400.106 158.619 399.714 157.092 399.714C155.626 399.714 154.394 400.085 153.396 400.828C152.399 401.56 151.645 402.587 151.136 403.909C150.627 405.221 150.373 406.751 150.373 408.5Z" data-figma-gradient-fill="{&#34;type&#34;:&#34;GRADIENT_DIAMOND&#34;,&#34;stops&#34;:[{&#34;color&#34;:{&#34;r&#34;:0.84734082221984863,&#34;g&#34;:1.0,&#34;b&#34;:0.38936322927474976,&#34;a&#34;:1.0},&#34;position&#34;:0.0},{&#34;color&#34;:{&#34;r&#34;:1.0,&#34;g&#34;:1.0,&#34;b&#34;:1.0,&#34;a&#34;:1.0},&#34;position&#34;:1.0}],&#34;stopsVar&#34;:[{&#34;color&#34;:{&#34;r&#34;:0.84734082221984863,&#34;g&#34;:1.0,&#34;b&#34;:0.38936322927474976,&#34;a&#34;:1.0},&#34;position&#34;:0.0},{&#34;color&#34;:{&#34;r&#34;:1.0,&#34;g&#34;:1.0,&#34;b&#34;:1.0,&#34;a&#34;:1.0},&#34;position&#34;:1.0}],&#34;transform&#34;:{&#34;m00&#34;:1369.9249267578125,&#34;m01&#34;:-62.238754272460938,&#34;m02&#34;:-473.16958618164062,&#34;m10&#34;:422.754394531250,&#34;m11&#34;:201.23625183105469,&#34;m12&#34;:92.111824035644531},&#34;opacity&#34;:1.0,&#34;blendMode&#34;:&#34;NORMAL&#34;,&#34;visible&#34;:true}"/>
<g clip-path="url(#paint11_diamond_552_27_clip_path)" data-figma-skip-parse="true"><g transform="matrix(0.684962 0.211377 -0.0311194 0.100618 180.674 404.107)"><rect x="0" y="0" width="252.333" height="743.564" fill="url(#paint11_diamond_552_27)" opacity="1" shape-rendering="crispEdges"/><rect x="0" y="0" width="252.333" height="743.564" transform="scale(1 -1)" fill="url(#paint11_diamond_552_27)" opacity="1" shape-rendering="crispEdges"/><rect x="0" y="0" width="252.333" height="743.564" transform="scale(-1 1)" fill="url(#paint11_diamond_552_27)" opacity="1" shape-rendering="crispEdges"/><rect x="0" y="0" width="252.333" height="743.564" transform="scale(-1)" fill="url(#paint11_diamond_552_27)" opacity="1" shape-rendering="crispEdges"/></g></g><path d="M179.137 420.702C177.02 420.702 175.162 420.199 173.564 419.192C171.976 418.186 170.734 416.777 169.838 414.967C168.952 413.157 168.509 411.042 168.509 408.622C168.509 406.182 168.952 404.051 169.838 402.231C170.734 400.411 171.976 398.997 173.564 397.991C175.162 396.984 177.02 396.481 179.137 396.481C181.255 396.481 183.107 396.984 184.695 397.991C186.294 398.997 187.536 400.411 188.421 402.231C189.317 404.051 189.765 406.182 189.765 408.622C189.765 411.042 189.317 413.157 188.421 414.967C187.536 416.777 186.294 418.186 184.695 419.192C183.107 420.199 181.255 420.702 179.137 420.702ZM179.137 417.469C180.746 417.469 182.069 417.057 183.107 416.233C184.146 415.41 184.914 414.327 185.413 412.984C185.912 411.642 186.161 410.188 186.161 408.622C186.161 407.056 185.912 405.597 185.413 404.244C184.914 402.892 184.146 401.799 183.107 400.965C182.069 400.131 180.746 399.714 179.137 399.714C177.529 399.714 176.205 400.131 175.167 400.965C174.129 401.799 173.36 402.892 172.861 404.244C172.362 405.597 172.113 407.056 172.113 408.622C172.113 410.188 172.362 411.642 172.861 412.984C173.36 414.327 174.129 415.41 175.167 416.233C176.205 417.057 177.529 417.469 179.137 417.469Z" data-figma-gradient-fill="{&#34;type&#34;:&#34;GRADIENT_DIAMOND&#34;,&#34;stops&#34;:[{&#34;color&#34;:{&#34;r&#34;:0.84734082221984863,&#34;g&#34;:1.0,&#34;b&#34;:0.38936322927474976,&#34;a&#34;:1.0},&#34;position&#34;:0.0},{&#34;color&#34;:{&#34;r&#34;:1.0,&#34;g&#34;:1.0,&#34;b&#34;:1.0,&#34;a&#34;:1.0},&#34;position&#34;:1.0}],&#34;stopsVar&#34;:[{&#34;color&#34;:{&#34;r&#34;:0.84734082221984863,&#34;g&#34;:1.0,&#34;b&#34;:0.38936322927474976,&#34;a&#34;:1.0},&#34;position&#34;:0.0},{&#34;color&#34;:{&#34;r&#34;:1.0,&#34;g&#34;:1.0,&#34;b&#34;:1.0,&#34;a&#34;:1.0},&#34;position&#34;:1.0}],&#34;transform&#34;:{&#34;m00&#34;:1369.9249267578125,&#34;m01&#34;:-62.238754272460938,&#34;m02&#34;:-473.16958618164062,&#34;m10&#34;:422.754394531250,&#34;m11&#34;:201.23625183105469,&#34;m12&#34;:92.111824035644531},&#34;opacity&#34;:1.0,&#34;blendMode&#34;:&#34;NORMAL&#34;,&#34;visible&#34;:true}"/>
<g clip-path="url(#paint12_diamond_552_27_clip_path)" data-figma-skip-parse="true"><g transform="matrix(0.684962 0.211377 -0.0311194 0.100618 180.674 404.107)"><rect x="0" y="0" width="252.333" height="743.564" fill="url(#paint12_diamond_552_27)" opacity="1" shape-rendering="crispEdges"/><rect x="0" y="0" width="252.333" height="743.564" transform="scale(1 -1)" fill="url(#paint12_diamond_552_27)" opacity="1" shape-rendering="crispEdges"/><rect x="0" y="0" width="252.333" height="743.564" transform="scale(-1 1)" fill="url(#paint12_diamond_552_27)" opacity="1" shape-rendering="crispEdges"/><rect x="0" y="0" width="252.333" height="743.564" transform="scale(-1)" fill="url(#paint12_diamond_552_27)" opacity="1" shape-rendering="crispEdges"/></g></g><path d="M206.607 410.635V396.786H210.211V420.214H206.607V416.249H206.363C205.813 417.438 204.958 418.45 203.798 419.284C202.637 420.108 201.171 420.519 199.4 420.519C197.934 420.519 196.631 420.199 195.491 419.558C194.351 418.908 193.455 417.931 192.803 416.63C192.152 415.318 191.826 413.666 191.826 411.673V396.786H195.43V411.429C195.43 413.137 195.908 414.5 196.865 415.516C197.832 416.533 199.064 417.042 200.56 417.042C201.456 417.042 202.367 416.813 203.294 416.355C204.23 415.898 205.014 415.196 205.645 414.25C206.287 413.305 206.607 412.1 206.607 410.635Z" data-figma-gradient-fill="{&#34;type&#34;:&#34;GRADIENT_DIAMOND&#34;,&#34;stops&#34;:[{&#34;color&#34;:{&#34;r&#34;:0.84734082221984863,&#34;g&#34;:1.0,&#34;b&#34;:0.38936322927474976,&#34;a&#34;:1.0},&#34;position&#34;:0.0},{&#34;color&#34;:{&#34;r&#34;:1.0,&#34;g&#34;:1.0,&#34;b&#34;:1.0,&#34;a&#34;:1.0},&#34;position&#34;:1.0}],&#34;stopsVar&#34;:[{&#34;color&#34;:{&#34;r&#34;:0.84734082221984863,&#34;g&#34;:1.0,&#34;b&#34;:0.38936322927474976,&#34;a&#34;:1.0},&#34;position&#34;:0.0},{&#34;color&#34;:{&#34;r&#34;:1.0,&#34;g&#34;:1.0,&#34;b&#34;:1.0,&#34;a&#34;:1.0},&#34;position&#34;:1.0}],&#34;transform&#34;:{&#34;m00&#34;:1369.9249267578125,&#34;m01&#34;:-62.238754272460938,&#34;m02&#34;:-473.16958618164062,&#34;m10&#34;:422.754394531250,&#34;m11&#34;:201.23625183105469,&#34;m12&#34;:92.111824035644531},&#34;opacity&#34;:1.0,&#34;blendMode&#34;:&#34;NORMAL&#34;,&#34;visible&#34;:true}"/>
<g clip-path="url(#paint13_diamond_552_27_clip_path)" data-figma-skip-parse="true"><g transform="matrix(0.684962 0.211377 -0.0311194 0.100618 180.674 404.107)"><rect x="0" y="0" width="252.333" height="743.564" fill="url(#paint13_diamond_552_27)" opacity="1" shape-rendering="crispEdges"/><rect x="0" y="0" width="252.333" height="743.564" transform="scale(1 -1)" fill="url(#paint13_diamond_552_27)" opacity="1" shape-rendering="crispEdges"/><rect x="0" y="0" width="252.333" height="743.564" transform="scale(-1 1)" fill="url(#paint13_diamond_552_27)" opacity="1" shape-rendering="crispEdges"/><rect x="0" y="0" width="252.333" height="743.564" transform="scale(-1)" fill="url(#paint13_diamond_552_27)" opacity="1" shape-rendering="crispEdges"/></g></g><path d="M223.572 396.786V399.836H211.417V396.786H223.572ZM214.959 391.173H218.563V413.503C218.563 414.52 218.711 415.282 219.006 415.791C219.311 416.289 219.698 416.625 220.166 416.798C220.645 416.96 221.149 417.042 221.678 417.042C222.075 417.042 222.401 417.021 222.655 416.981C222.91 416.93 223.114 416.889 223.266 416.859L223.999 420.092C223.755 420.184 223.414 420.275 222.976 420.367C222.538 420.469 221.984 420.519 221.312 420.519C220.294 420.519 219.296 420.301 218.319 419.863C217.352 419.426 216.548 418.76 215.906 417.865C215.275 416.97 214.959 415.842 214.959 414.479V391.173Z" data-figma-gradient-fill="{&#34;type&#34;:&#34;GRADIENT_DIAMOND&#34;,&#34;stops&#34;:[{&#34;color&#34;:{&#34;r&#34;:0.84734082221984863,&#34;g&#34;:1.0,&#34;b&#34;:0.38936322927474976,&#34;a&#34;:1.0},&#34;position&#34;:0.0},{&#34;color&#34;:{&#34;r&#34;:1.0,&#34;g&#34;:1.0,&#34;b&#34;:1.0,&#34;a&#34;:1.0},&#34;position&#34;:1.0}],&#34;stopsVar&#34;:[{&#34;color&#34;:{&#34;r&#34;:0.84734082221984863,&#34;g&#34;:1.0,&#34;b&#34;:0.38936322927474976,&#34;a&#34;:1.0},&#34;position&#34;:0.0},{&#34;color&#34;:{&#34;r&#34;:1.0,&#34;g&#34;:1.0,&#34;b&#34;:1.0,&#34;a&#34;:1.0},&#34;position&#34;:1.0}],&#34;transform&#34;:{&#34;m00&#34;:1369.9249267578125,&#34;m01&#34;:-62.238754272460938,&#34;m02&#34;:-473.16958618164062,&#34;m10&#34;:422.754394531250,&#34;m11&#34;:201.23625183105469,&#34;m12&#34;:92.111824035644531},&#34;opacity&#34;:1.0,&#34;blendMode&#34;:&#34;NORMAL&#34;,&#34;visible&#34;:true}"/>
<g clip-path="url(#paint14_diamond_552_27_clip_path)" data-figma-skip-parse="true"><g transform="matrix(0.684962 0.211377 -0.0311194 0.100618 180.674 404.107)"><rect x="0" y="0" width="252.333" height="743.564" fill="url(#paint14_diamond_552_27)" opacity="1" shape-rendering="crispEdges"/><rect x="0" y="0" width="252.333" height="743.564" transform="scale(1 -1)" fill="url(#paint14_diamond_552_27)" opacity="1" shape-rendering="crispEdges"/><rect x="0" y="0" width="252.333" height="743.564" transform="scale(-1 1)" fill="url(#paint14_diamond_552_27)" opacity="1" shape-rendering="crispEdges"/><rect x="0" y="0" width="252.333" height="743.564" transform="scale(-1)" fill="url(#paint14_diamond_552_27)" opacity="1" shape-rendering="crispEdges"/></g></g><path d="M250.209 429V416.615H249.904C249.639 417.042 249.262 417.581 248.774 418.231C248.285 418.872 247.588 419.447 246.682 419.955C245.776 420.453 244.569 420.702 243.063 420.702C241.108 420.702 239.383 420.209 237.886 419.223C236.39 418.226 235.219 416.823 234.374 415.013C233.529 413.193 233.107 411.042 233.107 408.561C233.107 406.1 233.529 403.965 234.374 402.155C235.219 400.345 236.395 398.947 237.902 397.96C239.408 396.974 241.149 396.481 243.124 396.481C244.651 396.481 245.857 396.735 246.743 397.243C247.639 397.742 248.321 398.311 248.789 398.952C249.267 399.582 249.639 400.101 249.904 400.507H250.331V396.786H253.813V429H250.209ZM243.551 417.469C244.997 417.469 246.219 417.093 247.216 416.34C248.214 415.577 248.972 414.525 249.491 413.183C250.011 411.83 250.27 410.269 250.27 408.5C250.27 406.751 250.016 405.221 249.507 403.909C248.998 402.587 248.244 401.56 247.247 400.828C246.249 400.085 245.017 399.714 243.551 399.714C242.024 399.714 240.752 400.106 239.734 400.889C238.726 401.662 237.968 402.714 237.459 404.046C236.96 405.368 236.71 406.853 236.71 408.5C236.71 410.168 236.965 411.683 237.474 413.045C237.993 414.398 238.757 415.476 239.764 416.279C240.782 417.072 242.045 417.469 243.551 417.469Z" data-figma-gradient-fill="{&#34;type&#34;:&#34;GRADIENT_DIAMOND&#34;,&#34;stops&#34;:[{&#34;color&#34;:{&#34;r&#34;:0.84734082221984863,&#34;g&#34;:1.0,&#34;b&#34;:0.38936322927474976,&#34;a&#34;:1.0},&#34;position&#34;:0.0},{&#34;color&#34;:{&#34;r&#34;:1.0,&#34;g&#34;:1.0,&#34;b&#34;:1.0,&#34;a&#34;:1.0},&#34;position&#34;:1.0}],&#34;stopsVar&#34;:[{&#34;color&#34;:{&#34;r&#34;:0.84734082221984863,&#34;g&#34;:1.0,&#34;b&#34;:0.38936322927474976,&#34;a&#34;:1.0},&#34;position&#34;:0.0},{&#34;color&#34;:{&#34;r&#34;:1.0,&#34;g&#34;:1.0,&#34;b&#34;:1.0,&#34;a&#34;:1.0},&#34;position&#34;:1.0}],&#34;transform&#34;:{&#34;m00&#34;:1369.9249267578125,&#34;m01&#34;:-62.238754272460938,&#34;m02&#34;:-473.16958618164062,&#34;m10&#34;:422.754394531250,&#34;m11&#34;:201.23625183105469,&#34;m12&#34;:92.111824035644531},&#34;opacity&#34;:1.0,&#34;blendMode&#34;:&#34;NORMAL&#34;,&#34;visible&#34;:true}"/>
<g clip-path="url(#paint15_diamond_552_27_clip_path)" data-figma-skip-parse="true"><g transform="matrix(0.684962 0.211377 -0.0311194 0.100618 180.674 404.107)"><rect x="0" y="0" width="252.333" height="743.564" fill="url(#paint15_diamond_552_27)" opacity="1" shape-rendering="crispEdges"/><rect x="0" y="0" width="252.333" height="743.564" transform="scale(1 -1)" fill="url(#paint15_diamond_552_27)" opacity="1" shape-rendering="crispEdges"/><rect x="0" y="0" width="252.333" height="743.564" transform="scale(-1 1)" fill="url(#paint15_diamond_552_27)" opacity="1" shape-rendering="crispEdges"/><rect x="0" y="0" width="252.333" height="743.564" transform="scale(-1)" fill="url(#paint15_diamond_552_27)" opacity="1" shape-rendering="crispEdges"/></g></g><path d="M271.751 410.635V396.786H275.354V420.214H271.751V416.249H271.506C270.957 417.438 270.101 418.45 268.941 419.284C267.78 420.108 266.315 420.519 264.543 420.519C263.077 420.519 261.774 420.199 260.634 419.558C259.494 418.908 258.598 417.931 257.947 416.63C257.295 415.318 256.969 413.666 256.969 411.673V396.786H260.573V411.429C260.573 413.137 261.052 414.5 262.008 415.516C262.976 416.533 264.207 417.042 265.704 417.042C266.6 417.042 267.511 416.813 268.437 416.355C269.374 415.898 270.157 415.196 270.789 414.25C271.43 413.305 271.751 412.1 271.751 410.635Z" data-figma-gradient-fill="{&#34;type&#34;:&#34;GRADIENT_DIAMOND&#34;,&#34;stops&#34;:[{&#34;color&#34;:{&#34;r&#34;:0.84734082221984863,&#34;g&#34;:1.0,&#34;b&#34;:0.38936322927474976,&#34;a&#34;:1.0},&#34;position&#34;:0.0},{&#34;color&#34;:{&#34;r&#34;:1.0,&#34;g&#34;:1.0,&#34;b&#34;:1.0,&#34;a&#34;:1.0},&#34;position&#34;:1.0}],&#34;stopsVar&#34;:[{&#34;color&#34;:{&#34;r&#34;:0.84734082221984863,&#34;g&#34;:1.0,&#34;b&#34;:0.38936322927474976,&#34;a&#34;:1.0},&#34;position&#34;:0.0},{&#34;color&#34;:{&#34;r&#34;:1.0,&#34;g&#34;:1.0,&#34;b&#34;:1.0,&#34;a&#34;:1.0},&#34;position&#34;:1.0}],&#34;transform&#34;:{&#34;m00&#34;:1369.9249267578125,&#34;m01&#34;:-62.238754272460938,&#34;m02&#34;:-473.16958618164062,&#34;m10&#34;:422.754394531250,&#34;m11&#34;:201.23625183105469,&#34;m12&#34;:92.111824035644531},&#34;opacity&#34;:1.0,&#34;blendMode&#34;:&#34;NORMAL&#34;,&#34;visible&#34;:true}"/>
<g clip-path="url(#paint16_diamond_552_27_clip_path)" data-figma-skip-parse="true"><g transform="matrix(0.684962 0.211377 -0.0311194 0.100618 180.674 404.107)"><rect x="0" y="0" width="252.333" height="743.564" fill="url(#paint16_diamond_552_27)" opacity="1" shape-rendering="crispEdges"/><rect x="0" y="0" width="252.333" height="743.564" transform="scale(1 -1)" fill="url(#paint16_diamond_552_27)" opacity="1" shape-rendering="crispEdges"/><rect x="0" y="0" width="252.333" height="743.564" transform="scale(-1 1)" fill="url(#paint16_diamond_552_27)" opacity="1" shape-rendering="crispEdges"/><rect x="0" y="0" width="252.333" height="743.564" transform="scale(-1)" fill="url(#paint16_diamond_552_27)" opacity="1" shape-rendering="crispEdges"/></g></g><path d="M285.417 420.763C283.93 420.763 282.582 420.484 281.37 419.924C280.159 419.355 279.197 418.536 278.484 417.469C277.772 416.391 277.415 415.089 277.415 413.564C277.415 412.222 277.68 411.134 278.209 410.3C278.739 409.456 279.446 408.795 280.332 408.317C281.218 407.839 282.195 407.483 283.264 407.249C284.343 407.005 285.427 406.812 286.516 406.67C287.941 406.487 289.097 406.349 289.982 406.258C290.878 406.156 291.53 405.988 291.937 405.754C292.354 405.521 292.563 405.114 292.563 404.534V404.412C292.563 402.907 292.151 401.738 291.326 400.904C290.512 400.07 289.275 399.653 287.616 399.653C285.895 399.653 284.546 400.03 283.569 400.782C282.592 401.534 281.905 402.338 281.508 403.192L278.087 401.972C278.698 400.548 279.512 399.44 280.53 398.647C281.559 397.843 282.678 397.284 283.89 396.969C285.111 396.643 286.313 396.481 287.493 396.481C288.247 396.481 289.112 396.572 290.089 396.755C291.077 396.928 292.029 397.289 292.945 397.838C293.871 398.387 294.64 399.216 295.251 400.324C295.861 401.433 296.167 402.917 296.167 404.778V420.214H292.563V417.042H292.38C292.136 417.55 291.728 418.094 291.158 418.674C290.588 419.253 289.83 419.747 288.883 420.153C287.936 420.56 286.781 420.763 285.417 420.763ZM285.966 417.53C287.392 417.53 288.593 417.25 289.57 416.691C290.558 416.132 291.301 415.41 291.8 414.525C292.309 413.64 292.563 412.71 292.563 411.734V408.439C292.41 408.622 292.074 408.79 291.555 408.942C291.046 409.085 290.456 409.212 289.784 409.324C289.122 409.425 288.476 409.517 287.845 409.598C287.224 409.669 286.72 409.73 286.333 409.781C285.396 409.903 284.521 410.102 283.707 410.376C282.902 410.641 282.251 411.042 281.752 411.581C281.263 412.11 281.019 412.832 281.019 413.747C281.019 414.998 281.482 415.943 282.409 416.584C283.345 417.215 284.531 417.53 285.966 417.53Z" data-figma-gradient-fill="{&#34;type&#34;:&#34;GRADIENT_DIAMOND&#34;,&#34;stops&#34;:[{&#34;color&#34;:{&#34;r&#34;:0.84734082221984863,&#34;g&#34;:1.0,&#34;b&#34;:0.38936322927474976,&#34;a&#34;:1.0},&#34;position&#34;:0.0},{&#34;color&#34;:{&#34;r&#34;:1.0,&#34;g&#34;:1.0,&#34;b&#34;:1.0,&#34;a&#34;:1.0},&#34;position&#34;:1.0}],&#34;stopsVar&#34;:[{&#34;color&#34;:{&#34;r&#34;:0.84734082221984863,&#34;g&#34;:1.0,&#34;b&#34;:0.38936322927474976,&#34;a&#34;:1.0},&#34;position&#34;:0.0},{&#34;color&#34;:{&#34;r&#34;:1.0,&#34;g&#34;:1.0,&#34;b&#34;:1.0,&#34;a&#34;:1.0},&#34;position&#34;:1.0}],&#34;transform&#34;:{&#34;m00&#34;:1369.9249267578125,&#34;m01&#34;:-62.238754272460938,&#34;m02&#34;:-473.16958618164062,&#34;m10&#34;:422.754394531250,&#34;m11&#34;:201.23625183105469,&#34;m12&#34;:92.111824035644531},&#34;opacity&#34;:1.0,&#34;blendMode&#34;:&#34;NORMAL&#34;,&#34;visible&#34;:true}"/>
<g clip-path="url(#paint17_diamond_552_27_clip_path)" data-figma-skip-parse="true"><g transform="matrix(0.684962 0.211377 -0.0311194 0.100618 180.674 404.107)"><rect x="0" y="0" width="252.333" height="743.564" fill="url(#paint17_diamond_552_27)" opacity="1" shape-rendering="crispEdges"/><rect x="0" y="0" width="252.333" height="743.564" transform="scale(1 -1)" fill="url(#paint17_diamond_552_27)" opacity="1" shape-rendering="crispEdges"/><rect x="0" y="0" width="252.333" height="743.564" transform="scale(-1 1)" fill="url(#paint17_diamond_552_27)" opacity="1" shape-rendering="crispEdges"/><rect x="0" y="0" width="252.333" height="743.564" transform="scale(-1)" fill="url(#paint17_diamond_552_27)" opacity="1" shape-rendering="crispEdges"/></g></g><path d="M302.908 388.976V420.214H299.304V388.976H302.908Z" data-figma-gradient-fill="{&#34;type&#34;:&#34;GRADIENT_DIAMOND&#34;,&#34;stops&#34;:[{&#34;color&#34;:{&#34;r&#34;:0.84734082221984863,&#34;g&#34;:1.0,&#34;b&#34;:0.38936322927474976,&#34;a&#34;:1.0},&#34;position&#34;:0.0},{&#34;color&#34;:{&#34;r&#34;:1.0,&#34;g&#34;:1.0,&#34;b&#34;:1.0,&#34;a&#34;:1.0},&#34;position&#34;:1.0}],&#34;stopsVar&#34;:[{&#34;color&#34;:{&#34;r&#34;:0.84734082221984863,&#34;g&#34;:1.0,&#34;b&#34;:0.38936322927474976,&#34;a&#34;:1.0},&#34;position&#34;:0.0},{&#34;color&#34;:{&#34;r&#34;:1.0,&#34;g&#34;:1.0,&#34;b&#34;:1.0,&#34;a&#34;:1.0},&#34;position&#34;:1.0}],&#34;transform&#34;:{&#34;m00&#34;:1369.9249267578125,&#34;m01&#34;:-62.238754272460938,&#34;m02&#34;:-473.16958618164062,&#34;m10&#34;:422.754394531250,&#34;m11&#34;:201.23625183105469,&#34;m12&#34;:92.111824035644531},&#34;opacity&#34;:1.0,&#34;blendMode&#34;:&#34;NORMAL&#34;,&#34;visible&#34;:true}"/>
<g clip-path="url(#paint18_diamond_552_27_clip_path)" data-figma-skip-parse="true"><g transform="matrix(0.684962 0.211377 -0.0311194 0.100618 180.674 404.107)"><rect x="0" y="0" width="252.333" height="743.564" fill="url(#paint18_diamond_552_27)" opacity="1" shape-rendering="crispEdges"/><rect x="0" y="0" width="252.333" height="743.564" transform="scale(1 -1)" fill="url(#paint18_diamond_552_27)" opacity="1" shape-rendering="crispEdges"/><rect x="0" y="0" width="252.333" height="743.564" transform="scale(-1 1)" fill="url(#paint18_diamond_552_27)" opacity="1" shape-rendering="crispEdges"/><rect x="0" y="0" width="252.333" height="743.564" transform="scale(-1)" fill="url(#paint18_diamond_552_27)" opacity="1" shape-rendering="crispEdges"/></g></g><path d="M306.068 420.214V396.786H309.672V420.214H306.068ZM307.901 392.881C307.198 392.881 306.593 392.642 306.084 392.164C305.585 391.686 305.335 391.112 305.335 390.44C305.335 389.769 305.585 389.195 306.084 388.717C306.593 388.239 307.198 388 307.901 388C308.603 388 309.204 388.239 309.703 388.717C310.212 389.195 310.466 389.769 310.466 390.44C310.466 391.112 310.212 391.686 309.703 392.164C309.204 392.642 308.603 392.881 307.901 392.881Z" data-figma-gradient-fill="{&#34;type&#34;:&#34;GRADIENT_DIAMOND&#34;,&#34;stops&#34;:[{&#34;color&#34;:{&#34;r&#34;:0.84734082221984863,&#34;g&#34;:1.0,&#34;b&#34;:0.38936322927474976,&#34;a&#34;:1.0},&#34;position&#34;:0.0},{&#34;color&#34;:{&#34;r&#34;:1.0,&#34;g&#34;:1.0,&#34;b&#34;:1.0,&#34;a&#34;:1.0},&#34;position&#34;:1.0}],&#34;stopsVar&#34;:[{&#34;color&#34;:{&#34;r&#34;:0.84734082221984863,&#34;g&#34;:1.0,&#34;b&#34;:0.38936322927474976,&#34;a&#34;:1.0},&#34;position&#34;:0.0},{&#34;color&#34;:{&#34;r&#34;:1.0,&#34;g&#34;:1.0,&#34;b&#34;:1.0,&#34;a&#34;:1.0},&#34;position&#34;:1.0}],&#34;transform&#34;:{&#34;m00&#34;:1369.9249267578125,&#34;m01&#34;:-62.238754272460938,&#34;m02&#34;:-473.16958618164062,&#34;m10&#34;:422.754394531250,&#34;m11&#34;:201.23625183105469,&#34;m12&#34;:92.111824035644531},&#34;opacity&#34;:1.0,&#34;blendMode&#34;:&#34;NORMAL&#34;,&#34;visible&#34;:true}"/>
<g clip-path="url(#paint19_diamond_552_27_clip_path)" data-figma-skip-parse="true"><g transform="matrix(0.684962 0.211377 -0.0311194 0.100618 180.674 404.107)"><rect x="0" y="0" width="252.333" height="743.564" fill="url(#paint19_diamond_552_27)" opacity="1" shape-rendering="crispEdges"/><rect x="0" y="0" width="252.333" height="743.564" transform="scale(1 -1)" fill="url(#paint19_diamond_552_27)" opacity="1" shape-rendering="crispEdges"/><rect x="0" y="0" width="252.333" height="743.564" transform="scale(-1 1)" fill="url(#paint19_diamond_552_27)" opacity="1" shape-rendering="crispEdges"/><rect x="0" y="0" width="252.333" height="743.564" transform="scale(-1)" fill="url(#paint19_diamond_552_27)" opacity="1" shape-rendering="crispEdges"/></g></g><path d="M323.033 396.786V399.836H310.878V396.786H323.033ZM314.421 391.173H318.024V413.503C318.024 414.52 318.172 415.282 318.467 415.791C318.772 416.289 319.159 416.625 319.628 416.798C320.106 416.96 320.61 417.042 321.139 417.042C321.536 417.042 321.862 417.021 322.117 416.981C322.371 416.93 322.575 416.889 322.727 416.859L323.46 420.092C323.216 420.184 322.875 420.275 322.437 420.367C322 420.469 321.445 420.519 320.773 420.519C319.755 420.519 318.757 420.301 317.78 419.863C316.813 419.426 316.009 418.76 315.367 417.865C314.736 416.97 314.421 415.842 314.421 414.479V391.173Z" data-figma-gradient-fill="{&#34;type&#34;:&#34;GRADIENT_DIAMOND&#34;,&#34;stops&#34;:[{&#34;color&#34;:{&#34;r&#34;:0.84734082221984863,&#34;g&#34;:1.0,&#34;b&#34;:0.38936322927474976,&#34;a&#34;:1.0},&#34;position&#34;:0.0},{&#34;color&#34;:{&#34;r&#34;:1.0,&#34;g&#34;:1.0,&#34;b&#34;:1.0,&#34;a&#34;:1.0},&#34;position&#34;:1.0}],&#34;stopsVar&#34;:[{&#34;color&#34;:{&#34;r&#34;:0.84734082221984863,&#34;g&#34;:1.0,&#34;b&#34;:0.38936322927474976,&#34;a&#34;:1.0},&#34;position&#34;:0.0},{&#34;color&#34;:{&#34;r&#34;:1.0,&#34;g&#34;:1.0,&#34;b&#34;:1.0,&#34;a&#34;:1.0},&#34;position&#34;:1.0}],&#34;transform&#34;:{&#34;m00&#34;:1369.9249267578125,&#34;m01&#34;:-62.238754272460938,&#34;m02&#34;:-473.16958618164062,&#34;m10&#34;:422.754394531250,&#34;m11&#34;:201.23625183105469,&#34;m12&#34;:92.111824035644531},&#34;opacity&#34;:1.0,&#34;blendMode&#34;:&#34;NORMAL&#34;,&#34;visible&#34;:true}"/>
<g clip-path="url(#paint20_diamond_552_27_clip_path)" data-figma-skip-parse="true"><g transform="matrix(0.684962 0.211377 -0.0311194 0.100618 180.674 404.107)"><rect x="0" y="0" width="252.333" height="743.564" fill="url(#paint20_diamond_552_27)" opacity="1" shape-rendering="crispEdges"/><rect x="0" y="0" width="252.333" height="743.564" transform="scale(1 -1)" fill="url(#paint20_diamond_552_27)" opacity="1" shape-rendering="crispEdges"/><rect x="0" y="0" width="252.333" height="743.564" transform="scale(-1 1)" fill="url(#paint20_diamond_552_27)" opacity="1" shape-rendering="crispEdges"/><rect x="0" y="0" width="252.333" height="743.564" transform="scale(-1)" fill="url(#paint20_diamond_552_27)" opacity="1" shape-rendering="crispEdges"/></g></g><path d="M327.335 429C326.724 429 326.179 428.949 325.701 428.847C325.222 428.756 324.891 428.664 324.708 428.573L325.624 425.4C326.5 425.624 327.274 425.705 327.945 425.644C328.617 425.583 329.213 425.283 329.732 424.744C330.261 424.216 330.745 423.356 331.183 422.167L331.854 420.336L323.181 396.786H327.09L333.565 415.455H333.809L340.283 396.786H344.193L334.237 423.631C333.789 424.841 333.234 425.843 332.572 426.636C331.91 427.439 331.142 428.034 330.266 428.42C329.401 428.807 328.424 429 327.335 429Z" data-figma-gradient-fill="{&#34;type&#34;:&#34;GRADIENT_DIAMOND&#34;,&#34;stops&#34;:[{&#34;color&#34;:{&#34;r&#34;:0.84734082221984863,&#34;g&#34;:1.0,&#34;b&#34;:0.38936322927474976,&#34;a&#34;:1.0},&#34;position&#34;:0.0},{&#34;color&#34;:{&#34;r&#34;:1.0,&#34;g&#34;:1.0,&#34;b&#34;:1.0,&#34;a&#34;:1.0},&#34;position&#34;:1.0}],&#34;stopsVar&#34;:[{&#34;color&#34;:{&#34;r&#34;:0.84734082221984863,&#34;g&#34;:1.0,&#34;b&#34;:0.38936322927474976,&#34;a&#34;:1.0},&#34;position&#34;:0.0},{&#34;color&#34;:{&#34;r&#34;:1.0,&#34;g&#34;:1.0,&#34;b&#34;:1.0,&#34;a&#34;:1.0},&#34;position&#34;:1.0}],&#34;transform&#34;:{&#34;m00&#34;:1369.9249267578125,&#34;m01&#34;:-62.238754272460938,&#34;m02&#34;:-473.16958618164062,&#34;m10&#34;:422.754394531250,&#34;m11&#34;:201.23625183105469,&#34;m12&#34;:92.111824035644531},&#34;opacity&#34;:1.0,&#34;blendMode&#34;:&#34;NORMAL&#34;,&#34;visible&#34;:true}"/>
<g clip-path="url(#paint21_diamond_552_27_clip_path)" data-figma-skip-parse="true"><g transform="matrix(0.684962 0.211377 -0.0311194 0.100618 180.674 404.107)"><rect x="0" y="0" width="252.333" height="743.564" fill="url(#paint21_diamond_552_27)" opacity="1" shape-rendering="crispEdges"/><rect x="0" y="0" width="252.333" height="743.564" transform="scale(1 -1)" fill="url(#paint21_diamond_552_27)" opacity="1" shape-rendering="crispEdges"/><rect x="0" y="0" width="252.333" height="743.564" transform="scale(-1 1)" fill="url(#paint21_diamond_552_27)" opacity="1" shape-rendering="crispEdges"/><rect x="0" y="0" width="252.333" height="743.564" transform="scale(-1)" fill="url(#paint21_diamond_552_27)" opacity="1" shape-rendering="crispEdges"/></g></g><path d="M346.666 420.458C345.913 420.458 345.266 420.189 344.727 419.65C344.187 419.111 343.917 418.465 343.917 417.713C343.917 416.96 344.187 416.315 344.727 415.776C345.266 415.237 345.913 414.967 346.666 414.967C347.419 414.967 348.066 415.237 348.605 415.776C349.145 416.315 349.414 416.96 349.414 417.713C349.414 418.211 349.287 418.669 349.033 419.086C348.788 419.502 348.458 419.838 348.04 420.092C347.633 420.336 347.175 420.458 346.666 420.458Z" data-figma-gradient-fill="{&#34;type&#34;:&#34;GRADIENT_DIAMOND&#34;,&#34;stops&#34;:[{&#34;color&#34;:{&#34;r&#34;:0.84734082221984863,&#34;g&#34;:1.0,&#34;b&#34;:0.38936322927474976,&#34;a&#34;:1.0},&#34;position&#34;:0.0},{&#34;color&#34;:{&#34;r&#34;:1.0,&#34;g&#34;:1.0,&#34;b&#34;:1.0,&#34;a&#34;:1.0},&#34;position&#34;:1.0}],&#34;stopsVar&#34;:[{&#34;color&#34;:{&#34;r&#34;:0.84734082221984863,&#34;g&#34;:1.0,&#34;b&#34;:0.38936322927474976,&#34;a&#34;:1.0},&#34;position&#34;:0.0},{&#34;color&#34;:{&#34;r&#34;:1.0,&#34;g&#34;:1.0,&#34;b&#34;:1.0,&#34;a&#34;:1.0},&#34;position&#34;:1.0}],&#34;transform&#34;:{&#34;m00&#34;:1369.9249267578125,&#34;m01&#34;:-62.238754272460938,&#34;m02&#34;:-473.16958618164062,&#34;m10&#34;:422.754394531250,&#34;m11&#34;:201.23625183105469,&#34;m12&#34;:92.111824035644531},&#34;opacity&#34;:1.0,&#34;blendMode&#34;:&#34;NORMAL&#34;,&#34;visible&#34;:true}"/>
<g clip-path="url(#paint22_diamond_552_27_clip_path)" data-figma-skip-parse="true"><g transform="matrix(0.684962 0.211377 -0.0311194 0.100618 180.674 404.107)"><rect x="0" y="0" width="252.333" height="743.564" fill="url(#paint22_diamond_552_27)" opacity="1" shape-rendering="crispEdges"/><rect x="0" y="0" width="252.333" height="743.564" transform="scale(1 -1)" fill="url(#paint22_diamond_552_27)" opacity="1" shape-rendering="crispEdges"/><rect x="0" y="0" width="252.333" height="743.564" transform="scale(-1 1)" fill="url(#paint22_diamond_552_27)" opacity="1" shape-rendering="crispEdges"/><rect x="0" y="0" width="252.333" height="743.564" transform="scale(-1)" fill="url(#paint22_diamond_552_27)" opacity="1" shape-rendering="crispEdges"/></g></g><path d="M353.182 388.976V391.722C353.182 392.556 353.029 393.445 352.724 394.391C352.429 395.327 351.991 396.237 351.411 397.121C350.84 397.996 350.148 398.758 349.334 399.409L347.379 397.823C348.021 396.908 348.575 395.957 349.044 394.971C349.522 393.974 349.761 392.911 349.761 391.783V388.976H353.182ZM361 388.976V391.722C361 392.556 360.847 393.445 360.542 394.391C360.247 395.327 359.809 396.237 359.229 397.121C358.659 397.996 357.966 398.758 357.152 399.409L355.197 397.823C355.839 396.908 356.394 395.957 356.862 394.971C357.34 393.974 357.58 392.911 357.58 391.783V388.976H361Z" data-figma-gradient-fill="{&#34;type&#34;:&#34;GRADIENT_DIAMOND&#34;,&#34;stops&#34;:[{&#34;color&#34;:{&#34;r&#34;:0.84734082221984863,&#34;g&#34;:1.0,&#34;b&#34;:0.38936322927474976,&#34;a&#34;:1.0},&#34;position&#34;:0.0},{&#34;color&#34;:{&#34;r&#34;:1.0,&#34;g&#34;:1.0,&#34;b&#34;:1.0,&#34;a&#34;:1.0},&#34;position&#34;:1.0}],&#34;stopsVar&#34;:[{&#34;color&#34;:{&#34;r&#34;:0.84734082221984863,&#34;g&#34;:1.0,&#34;b&#34;:0.38936322927474976,&#34;a&#34;:1.0},&#34;position&#34;:0.0},{&#34;color&#34;:{&#34;r&#34;:1.0,&#34;g&#34;:1.0,&#34;b&#34;:1.0,&#34;a&#34;:1.0},&#34;position&#34;:1.0}],&#34;transform&#34;:{&#34;m00&#34;:1369.9249267578125,&#34;m01&#34;:-62.238754272460938,&#34;m02&#34;:-473.16958618164062,&#34;m10&#34;:422.754394531250,&#34;m11&#34;:201.23625183105469,&#34;m12&#34;:92.111824035644531},&#34;opacity&#34;:1.0,&#34;blendMode&#34;:&#34;NORMAL&#34;,&#34;visible&#34;:true}"/>
<path fill-rule="evenodd" clip-rule="evenodd" d="M273.906 17.817L262.538 88.8185H309.389V88.8286H423.647C425.416 88.8121 427.306 88.7934 429.323 88.7933C442.577 89.4573 450.333 96.9425 453.423 104.971C458.61 115.34 454.082 126.865 444.712 133.698C427.748 146.069 409.336 159.343 389.478 173.522C363.528 191.432 338.194 210.274 313.48 230.037C301.741 238.683 288.149 250.109 272.704 264.313C257.876 277.899 245.208 289.017 234.705 297.663C252.004 289.017 268.071 284.69 282.899 284.69C302.669 284.69 320.277 291.178 335.723 304.147C338.81 306.639 341.935 309.234 345.113 311.908C352.067 304.125 359.564 295.98 367.602 287.472C378.105 276.355 387.99 266.162 397.258 256.898C406.525 247.018 413.94 239.913 419.5 235.59C444.83 213.976 468.309 193.289 489.932 173.527C501.22 163.184 512.99 152.761 525.234 142.259L443.429 142.249C445.273 140.908 447.108 139.581 448.919 138.26C459.804 130.322 466.035 116.087 459.447 102.642C457.358 97.3796 453.653 92.4304 448.33 88.8185L566.513 88.8286C568.346 88.8107 570.31 88.7883 572.411 88.7883C585.664 89.4523 593.421 96.9428 596.511 104.971C601.698 115.34 597.175 126.865 587.805 133.698C570.84 146.069 552.43 159.348 532.571 173.527C506.621 191.437 481.287 210.274 456.573 230.037C444.834 238.683 431.242 250.108 415.797 264.313C400.968 277.9 388.301 289.017 377.798 297.663C395.096 289.017 411.16 284.691 425.987 284.69C445.757 284.69 463.37 291.173 478.816 304.142C494.88 317.111 512.179 332.555 530.714 350.465C549.248 368.992 567.781 385.053 586.315 398.639C604.85 412.226 620.614 419.017 633.589 419.017C637.911 418.399 642.234 417.474 646.557 416.24C650.881 415.005 654.59 413.151 657.678 410.682C662.621 406.359 665.096 401.416 665.096 395.858C665.096 389.065 662.312 381.96 656.752 374.55C651.193 367.758 646.247 363.126 641.922 360.656C641.306 360.04 641.002 359.421 641.001 358.805C641.001 356.953 642.234 355.402 644.705 354.167C647.175 352.933 649.648 352.934 652.118 354.167C660.149 358.49 666.64 364.67 671.582 372.699C676.524 380.726 678.999 389.68 679 399.56C679 409.441 675.904 418.706 669.726 427.352C664.165 435.381 656.442 442.176 646.557 447.734C636.672 453.91 626.17 457 615.05 457C605.782 457 596.514 454.218 587.246 448.66C577.979 443.719 566.24 434.146 552.031 419.942C547.294 414.992 541.884 409.213 535.796 402.613C535.223 411.357 532.176 419.606 526.638 427.357C521.077 435.385 513.353 442.176 503.469 447.734C493.584 453.91 483.078 457 471.957 457C462.69 457 453.421 454.218 444.153 448.66C434.886 443.719 423.147 434.146 408.938 419.942C395.345 405.738 376.192 384.74 351.479 356.949C349.343 354.426 347.218 351.951 345.113 349.519C344.893 350.153 344.678 350.781 344.434 351.391C343.198 354.478 341.652 357.569 339.799 360.656C337.946 363.743 334.857 365.288 330.535 365.289C327.446 365.289 324.662 364.047 322.191 361.577C319.104 359.107 317.557 355.712 317.556 351.391C317.558 349.538 318.791 346.14 321.26 341.204C322.885 338.28 325.287 334.844 328.451 330.893C323.042 325.049 317.746 319.527 312.554 314.338C300.815 301.987 286.294 295.807 268.995 295.807C255.403 295.807 242.118 300.134 229.144 308.78C216.171 316.808 207.831 327.614 204.124 341.199C203.506 344.905 202.576 348.303 201.341 351.391C200.105 354.479 198.56 357.568 196.706 360.656C194.853 363.743 191.765 365.289 187.442 365.289C184.353 365.289 181.569 364.052 179.098 361.582C176.01 359.112 174.463 355.713 174.463 351.391C174.464 349.538 175.701 346.139 178.172 341.199C181.262 335.641 187.131 328.229 195.78 318.966C204.429 309.085 214.007 298.588 224.509 287.472C235.013 276.355 244.897 266.162 254.165 256.898C263.431 247.018 270.847 239.918 276.407 235.595C301.739 213.979 325.22 193.285 346.844 173.522C358.131 163.18 369.899 152.761 382.141 142.259H309.389V142.305H254.019L233.905 269.448C229.521 273.984 225.017 278.699 220.398 283.588C209.903 294.696 200.311 305.199 191.639 315.103C188.553 318.408 185.779 321.528 183.325 324.449C173.97 310.962 171.018 293.162 174.463 271.058L194.824 142.305H132.207L99.583 349.157H43L82.3072 88.7883L202.876 88.8185L214.239 17.817H273.906ZM412.083 295.812C398.493 295.813 385.21 300.13 372.237 308.775C366.088 312.58 360.986 317.019 356.919 322.075C366.743 330.727 376.982 340.185 387.621 350.465C406.156 368.993 424.692 385.053 443.228 398.639C461.762 412.226 477.521 419.017 490.496 419.017C494.82 418.399 499.145 417.475 503.469 416.24C507.793 415.005 511.501 413.152 514.59 410.682C519.533 406.359 522.003 401.416 522.003 395.858C522.003 392.337 521.252 388.735 519.758 385.048C512.127 376.614 503.731 367.248 494.572 356.949C480.979 340.892 467.999 326.685 455.642 314.333C443.904 301.983 429.381 295.812 412.083 295.812Z" fill="#D8FF63"/>
<path d="M268.995 301.471C284.77 301.471 297.801 307.024 308.453 318.231L308.503 318.287L308.554 318.337C308.831 318.615 309.11 318.897 309.389 319.177V349.157H241.232C228.996 349.157 218.352 347.479 209.307 344.137C209.412 343.611 209.531 343.083 209.624 342.548C212.941 330.53 220.306 320.902 232.123 313.589L232.209 313.538L232.284 313.483C244.468 305.364 256.678 301.471 268.995 301.471Z" fill="#D8FF63"/>
<path d="M126.818 0C138.497 0.000424414 147.34 3.1562 153.338 9.46686C159.651 15.462 161.859 23.6677 159.965 34.0797C158.387 44.492 153.65 52.8595 145.759 59.1704C137.868 65.164 127.921 68.1589 115.928 68.1594C103.933 68.1591 94.9325 65.1648 88.9347 59.1704C82.937 52.8593 80.7288 44.4927 82.3072 34.0797C84.2016 23.6678 89.0952 15.462 96.9863 9.46686C104.878 3.15728 114.824 0.000409361 126.818 0Z" fill="#D8FF63"/>
<path d="M762.29 299.13C768.435 299.13 773.523 300.041 777.554 301.861C781.634 303.633 784.657 306.241 786.623 309.686C788.639 313.13 789.646 317.363 789.646 322.382C789.646 327.352 788.639 331.51 786.623 334.856C784.657 338.203 781.658 340.713 777.627 342.386C773.596 344.059 768.533 344.895 762.438 344.896H740.759V299.13H762.29Z" fill="white"/>
<path d="M1592.37 299.13C1598.52 299.13 1603.61 300.041 1607.64 301.861C1611.72 303.633 1614.74 306.241 1616.71 309.686C1618.72 313.13 1619.73 317.363 1619.73 322.382C1619.73 327.352 1618.72 331.51 1616.71 334.856C1614.74 338.203 1611.74 340.713 1607.71 342.386C1603.68 344.059 1598.62 344.895 1592.52 344.896H1570.84V299.13H1592.37Z" fill="white"/>
<path fill-rule="evenodd" clip-rule="evenodd" d="M1685 447H658.734C665.088 442.291 670.418 436.888 674.657 430.768C681.469 421.207 685 410.762 685 399.56C684.999 388.782 682.321 378.864 676.93 369.947C677.774 369.565 678.601 369.162 679.411 368.737C687.62 364.456 693.888 358.477 698.214 350.801C702.54 343.124 704.703 334.266 704.703 324.228C704.703 314.189 702.565 305.331 698.288 297.654C694.06 289.928 687.915 283.9 679.854 279.569C671.792 275.19 662.034 273 650.58 273H591V394.625C590.623 394.353 590.243 394.08 589.862 393.801C581.252 387.489 572.631 380.626 564 373.212V250H1685V447ZM708.83 424.173H740.759V370.583H764.064L792.67 424.173H827.916L795.874 365.441C796.335 365.241 796.791 365.037 797.241 364.825C805.451 360.987 811.719 355.476 816.045 348.291C820.371 341.057 822.533 332.421 822.533 322.382C822.533 312.392 820.395 303.707 816.118 296.325C811.891 288.895 805.721 283.162 797.61 279.127C789.548 275.043 779.815 273 768.41 273H708.83V424.173ZM828.485 424.173H930.538V397.82H860.414V361.726H925.008V335.373H860.414V299.352H930.243V273H828.485V424.173ZM982.963 424.173H1024.11L1076.17 273H1040.77L1004.2 387.855H1002.8L966.299 273H930.831L982.963 424.173ZM1077.73 424.173H1109.66V273H1077.73V424.173ZM1119.32 424.173H1221.37V397.82H1151.25V361.726H1215.84V335.373H1151.25V299.352H1221.08V274.554L1263.84 424.173H1294.96L1323.64 325.335H1324.82L1353.58 424.173H1384.7L1427.91 273H1393.03L1368.03 378.26H1366.71L1339.2 273H1309.34L1281.76 378.038H1280.51L1255.51 273H1119.32V424.173ZM1428.38 424.173H1530.44V397.82H1460.31V361.726H1524.91V335.373H1460.31V299.352H1530.14V273H1428.38V424.173ZM1538.91 424.173H1570.84V370.583H1594.15L1622.75 424.173H1658L1625.96 365.441C1626.42 365.241 1626.87 365.037 1627.33 364.825C1635.53 360.987 1641.8 355.476 1646.13 348.291C1650.45 341.057 1652.62 332.421 1652.62 322.382C1652.62 312.392 1650.48 303.707 1646.2 296.325C1641.97 288.895 1635.81 283.162 1627.69 279.127C1619.63 275.043 1609.9 273 1598.49 273H1538.91V424.173Z" fill="white"/>
<path d="M649.393 375.159C650.244 376.12 651.125 377.152 652.033 378.259C656.878 384.748 658.963 390.423 659.09 395.378L659.096 395.858C659.095 399.333 657.656 402.687 653.84 406.065C651.467 407.941 648.526 409.438 644.909 410.471C640.983 411.592 637.066 412.435 633.159 413.013C630.024 412.97 626.616 412.458 622.929 411.444V375.159H649.393Z" fill="white"/>
<path d="M660.198 408.185C660.078 408.321 659.955 408.456 659.83 408.591L660.198 408.185Z" fill="white"/>
<path d="M644.46 299.13C650.654 299.13 655.766 300.189 659.797 302.305C663.828 304.371 666.827 307.299 668.793 311.088C670.808 314.828 671.816 319.208 671.816 324.228C671.816 329.198 670.808 333.602 668.793 337.44C666.827 341.229 663.828 344.207 659.797 346.372C658.108 347.27 654.146 348.492 654.146 348.492C654.146 348.492 648 349.221 640.684 349.546C633.757 349.853 622.929 349.546 622.929 349.546V299.13H644.46Z" fill="white"/>
<path d="M595.929 205.82H660.67V232.173H564V162.062C574.132 154.762 583.835 147.731 593.107 140.97C594.081 140.26 595.023 139.499 595.929 138.694V205.82Z" fill="white"/>
<path d="M697.131 232.173H665.202V81H697.131V232.173Z" fill="white"/>
<path d="M770.571 195.855H771.972L808.546 81H843.939L791.881 232.173H750.735L698.604 81H734.071L770.571 195.855Z" fill="white"/>
<path d="M947.262 107.352H877.433V143.373H942.026V169.726H877.433V205.82H947.558V232.173H845.505V81H947.262V107.352Z" fill="white"/>
<path fill-rule="evenodd" clip-rule="evenodd" d="M1015.61 81C1027.02 81 1036.75 83.0425 1044.81 87.127C1052.93 91.1621 1059.09 96.8947 1063.32 104.325C1067.6 111.707 1069.74 120.392 1069.74 130.382C1069.74 140.421 1067.57 149.057 1063.25 156.291C1058.92 163.476 1052.66 168.987 1044.45 172.825C1044 173.037 1043.54 173.241 1043.08 173.441L1075.12 232.173H1039.87L1011.27 178.583H987.963V232.173H956.035V81H1015.61ZM987.963 152.896H1009.64C1015.74 152.896 1020.8 152.059 1024.83 150.386C1028.86 148.713 1031.86 146.203 1033.83 142.856C1035.84 139.51 1036.85 135.352 1036.85 130.382C1036.85 125.363 1035.84 121.13 1033.83 117.686C1031.86 114.241 1028.84 111.633 1024.76 109.861C1020.73 108.041 1015.64 107.131 1009.49 107.131H987.963V152.896Z" fill="white"/>
<path d="M1130.75 146.104H1132.23L1166.66 81H1202.43L1147.34 178.73V232.173H1115.64V178.73L1060.56 81H1096.32L1130.75 146.104Z" fill="white"/>
<defs>
<clipPath id="paint1_diamond_552_27_clip_path"><path d="M0 398.738V395.993C0 395.159 0.147609 394.274 0.442827 393.339C0.748225 392.393 1.18596 391.483 1.75604 390.608C2.33629 389.724 3.03362 388.956 3.84802 388.305L5.80256 389.891C5.16123 390.807 4.60133 391.762 4.12287 392.759C3.6546 393.745 3.42046 394.803 3.42046 395.932V398.738H0ZM7.81819 398.738V395.993C7.81819 395.159 7.9658 394.274 8.26102 393.339C8.56641 392.393 9.00415 391.483 9.57423 390.608C10.1545 389.724 10.8518 388.956 11.6662 388.305L13.6208 389.891C12.9794 390.807 12.4195 391.762 11.9411 392.759C11.4728 393.745 11.2386 394.803 11.2386 395.932V398.738H7.81819Z"/></clipPath><clipPath id="paint2_diamond_552_27_clip_path"><path d="M18.4341 388.976V420.214H14.6472V388.976H18.4341Z"/></clipPath><clipPath id="paint3_diamond_552_27_clip_path"><path d="M32.2987 396.786V399.836H20.1439V396.786H32.2987ZM23.6865 391.173H27.2902V413.503C27.2902 414.52 27.4378 415.282 27.733 415.791C28.0384 416.289 28.4253 416.625 28.8936 416.798C29.372 416.96 29.8759 417.042 30.4053 417.042C30.8023 417.042 31.128 417.021 31.3825 416.981C31.637 416.93 31.8406 416.889 31.9933 416.859L32.7263 420.092C32.482 420.184 32.141 420.275 31.7032 420.367C31.2655 420.469 30.7107 420.519 30.0388 420.519C29.0208 420.519 28.0232 420.301 27.0459 419.863C26.0788 419.426 25.2746 418.76 24.6333 417.865C24.0021 416.97 23.6865 415.842 23.6865 414.479V391.173Z"/></clipPath><clipPath id="paint4_diamond_552_27_clip_path"><path d="M33.6077 420.214V417.469L46.923 400.385V400.141H34.0352V396.786H51.5651V399.653L38.6162 416.615V416.859H51.9926V420.214H33.6077Z"/></clipPath><clipPath id="paint5_diamond_552_27_clip_path"><path d="M53.4314 420.214V417.469L66.7467 400.385V400.141H53.8589V396.786H71.3888V399.653L58.4399 416.615V416.859H71.8163V420.214H53.4314Z"/></clipPath><clipPath id="paint6_diamond_552_27_clip_path"><path d="M89.4827 420.763C87.9964 420.763 86.6476 420.484 85.4362 419.924C84.2248 419.355 83.2627 418.536 82.5502 417.469C81.8376 416.391 81.4813 415.089 81.4813 413.564C81.4813 412.222 81.7459 411.134 82.2753 410.3C82.8047 409.456 83.5122 408.795 84.3978 408.317C85.2835 407.839 86.2607 407.483 87.3296 407.249C88.4087 407.005 89.4929 406.812 90.5821 406.67C92.0073 406.487 93.1627 406.349 94.0484 406.258C94.9442 406.156 95.5957 405.988 96.0029 405.754C96.4203 405.521 96.629 405.114 96.629 404.534V404.412C96.629 402.907 96.2167 401.738 95.3921 400.904C94.5777 400.07 93.3409 399.653 91.6816 399.653C89.9611 399.653 88.6123 400.03 87.635 400.782C86.6578 401.534 85.9706 402.338 85.5736 403.192L82.1531 401.972C82.7639 400.548 83.5783 399.44 84.5963 398.647C85.6245 397.843 86.7443 397.284 87.9557 396.969C89.1773 396.643 90.3785 396.481 91.5594 396.481C92.3127 396.481 93.178 396.572 94.1553 396.755C95.1427 396.928 96.0946 397.289 97.0107 397.838C97.9371 398.387 98.7057 399.216 99.3165 400.324C99.9273 401.433 100.233 402.917 100.233 404.778V420.214H96.629V417.042H96.4458C96.2014 417.55 95.7942 418.094 95.2242 418.674C94.6541 419.253 93.8957 419.747 92.949 420.153C92.0022 420.56 90.8468 420.763 89.4827 420.763ZM90.0324 417.53C91.4576 417.53 92.6588 417.25 93.6361 416.691C94.6236 416.132 95.3667 415.41 95.8655 414.525C96.3745 413.64 96.629 412.71 96.629 411.734V408.439C96.4763 408.622 96.1404 408.79 95.6212 408.942C95.1122 409.085 94.5218 409.212 93.8499 409.324C93.1882 409.425 92.5418 409.517 91.9106 409.598C91.2896 409.669 90.7857 409.73 90.3989 409.781C89.4623 409.903 88.5869 410.102 87.7725 410.376C86.9682 410.641 86.3167 411.042 85.8179 411.581C85.3293 412.11 85.085 412.832 85.085 413.747C85.085 414.998 85.5481 415.943 86.4745 416.584C87.4111 417.215 88.597 417.53 90.0324 417.53Z"/></clipPath><clipPath id="paint7_diamond_552_27_clip_path"><path d="M106.974 388.976V420.214H103.37V388.976H106.974Z"/></clipPath><clipPath id="paint8_diamond_552_27_clip_path"><path d="M113.738 388.976V420.214H110.134V388.976H113.738Z"/></clipPath><clipPath id="paint9_diamond_552_27_clip_path"><path d="M132.454 420.763C130.968 420.763 129.619 420.484 128.408 419.924C127.196 419.355 126.234 418.536 125.522 417.469C124.809 416.391 124.453 415.089 124.453 413.564C124.453 412.222 124.717 411.134 125.247 410.3C125.776 409.456 126.484 408.795 127.369 408.317C128.255 407.839 129.232 407.483 130.301 407.249C131.38 407.005 132.464 406.812 133.554 406.67C134.979 406.487 136.134 406.349 137.02 406.258C137.916 406.156 138.567 405.988 138.974 405.754C139.392 405.521 139.6 405.114 139.6 404.534V404.412C139.6 402.907 139.188 401.738 138.364 400.904C137.549 400.07 136.312 399.653 134.653 399.653C132.933 399.653 131.584 400.03 130.607 400.782C129.629 401.534 128.942 402.338 128.545 403.192L125.125 401.972C125.735 400.548 126.55 399.44 127.568 398.647C128.596 397.843 129.716 397.284 130.927 396.969C132.149 396.643 133.35 396.481 134.531 396.481C135.284 396.481 136.149 396.572 137.127 396.755C138.114 396.928 139.066 397.289 139.982 397.838C140.909 398.387 141.677 399.216 142.288 400.324C142.899 401.433 143.204 402.917 143.204 404.778V420.214H139.6V417.042H139.417C139.173 417.55 138.766 418.094 138.196 418.674C137.626 419.253 136.867 419.747 135.92 420.153C134.974 420.56 133.818 420.763 132.454 420.763ZM133.004 417.53C134.429 417.53 135.63 417.25 136.608 416.691C137.595 416.132 138.338 415.41 138.837 414.525C139.346 413.64 139.6 412.71 139.6 411.734V408.439C139.448 408.622 139.112 408.79 138.593 408.942C138.084 409.085 137.493 409.212 136.821 409.324C136.16 409.425 135.513 409.517 134.882 409.598C134.261 409.669 133.757 409.73 133.37 409.781C132.434 409.903 131.558 410.102 130.744 410.376C129.94 410.641 129.288 411.042 128.789 411.581C128.301 412.11 128.056 412.832 128.056 413.747C128.056 414.998 128.52 415.943 129.446 416.584C130.383 417.215 131.569 417.53 133.004 417.53Z"/></clipPath><clipPath id="paint10_diamond_552_27_clip_path"><path d="M146.83 420.214V388.976H150.434V400.507H150.739C151.004 400.101 151.371 399.582 151.839 398.952C152.317 398.311 152.999 397.742 153.885 397.243C154.781 396.735 155.992 396.481 157.519 396.481C159.494 396.481 161.235 396.974 162.742 397.96C164.248 398.947 165.424 400.345 166.269 402.155C167.114 403.965 167.536 406.1 167.536 408.561C167.536 411.042 167.114 413.193 166.269 415.013C165.424 416.823 164.253 418.226 162.757 419.223C161.26 420.209 159.535 420.702 157.58 420.702C156.074 420.702 154.867 420.453 153.961 419.955C153.055 419.447 152.358 418.872 151.869 418.231C151.381 417.581 151.004 417.042 150.739 416.615H150.312V420.214H146.83ZM150.373 408.5C150.373 410.269 150.633 411.83 151.152 413.183C151.671 414.525 152.429 415.577 153.427 416.34C154.425 417.093 155.646 417.469 157.092 417.469C158.598 417.469 159.856 417.072 160.863 416.279C161.881 415.476 162.645 414.398 163.154 413.045C163.673 411.683 163.933 410.168 163.933 408.5C163.933 406.853 163.678 405.368 163.169 404.046C162.67 402.714 161.912 401.662 160.894 400.889C159.886 400.106 158.619 399.714 157.092 399.714C155.626 399.714 154.394 400.085 153.396 400.828C152.399 401.56 151.645 402.587 151.136 403.909C150.627 405.221 150.373 406.751 150.373 408.5Z"/></clipPath><clipPath id="paint11_diamond_552_27_clip_path"><path d="M179.137 420.702C177.02 420.702 175.162 420.199 173.564 419.192C171.976 418.186 170.734 416.777 169.838 414.967C168.952 413.157 168.509 411.042 168.509 408.622C168.509 406.182 168.952 404.051 169.838 402.231C170.734 400.411 171.976 398.997 173.564 397.991C175.162 396.984 177.02 396.481 179.137 396.481C181.255 396.481 183.107 396.984 184.695 397.991C186.294 398.997 187.536 400.411 188.421 402.231C189.317 404.051 189.765 406.182 189.765 408.622C189.765 411.042 189.317 413.157 188.421 414.967C187.536 416.777 186.294 418.186 184.695 419.192C183.107 420.199 181.255 420.702 179.137 420.702ZM179.137 417.469C180.746 417.469 182.069 417.057 183.107 416.233C184.146 415.41 184.914 414.327 185.413 412.984C185.912 411.642 186.161 410.188 186.161 408.622C186.161 407.056 185.912 405.597 185.413 404.244C184.914 402.892 184.146 401.799 183.107 400.965C182.069 400.131 180.746 399.714 179.137 399.714C177.529 399.714 176.205 400.131 175.167 400.965C174.129 401.799 173.36 402.892 172.861 404.244C172.362 405.597 172.113 407.056 172.113 408.622C172.113 410.188 172.362 411.642 172.861 412.984C173.36 414.327 174.129 415.41 175.167 416.233C176.205 417.057 177.529 417.469 179.137 417.469Z"/></clipPath><clipPath id="paint12_diamond_552_27_clip_path"><path d="M206.607 410.635V396.786H210.211V420.214H206.607V416.249H206.363C205.813 417.438 204.958 418.45 203.798 419.284C202.637 420.108 201.171 420.519 199.4 420.519C197.934 420.519 196.631 420.199 195.491 419.558C194.351 418.908 193.455 417.931 192.803 416.63C192.152 415.318 191.826 413.666 191.826 411.673V396.786H195.43V411.429C195.43 413.137 195.908 414.5 196.865 415.516C197.832 416.533 199.064 417.042 200.56 417.042C201.456 417.042 202.367 416.813 203.294 416.355C204.23 415.898 205.014 415.196 205.645 414.25C206.287 413.305 206.607 412.1 206.607 410.635Z"/></clipPath><clipPath id="paint13_diamond_552_27_clip_path"><path d="M223.572 396.786V399.836H211.417V396.786H223.572ZM214.959 391.173H218.563V413.503C218.563 414.52 218.711 415.282 219.006 415.791C219.311 416.289 219.698 416.625 220.166 416.798C220.645 416.96 221.149 417.042 221.678 417.042C222.075 417.042 222.401 417.021 222.655 416.981C222.91 416.93 223.114 416.889 223.266 416.859L223.999 420.092C223.755 420.184 223.414 420.275 222.976 420.367C222.538 420.469 221.984 420.519 221.312 420.519C220.294 420.519 219.296 420.301 218.319 419.863C217.352 419.426 216.548 418.76 215.906 417.865C215.275 416.97 214.959 415.842 214.959 414.479V391.173Z"/></clipPath><clipPath id="paint14_diamond_552_27_clip_path"><path d="M250.209 429V416.615H249.904C249.639 417.042 249.262 417.581 248.774 418.231C248.285 418.872 247.588 419.447 246.682 419.955C245.776 420.453 244.569 420.702 243.063 420.702C241.108 420.702 239.383 420.209 237.886 419.223C236.39 418.226 235.219 416.823 234.374 415.013C233.529 413.193 233.107 411.042 233.107 408.561C233.107 406.1 233.529 403.965 234.374 402.155C235.219 400.345 236.395 398.947 237.902 397.96C239.408 396.974 241.149 396.481 243.124 396.481C244.651 396.481 245.857 396.735 246.743 397.243C247.639 397.742 248.321 398.311 248.789 398.952C249.267 399.582 249.639 400.101 249.904 400.507H250.331V396.786H253.813V429H250.209ZM243.551 417.469C244.997 417.469 246.219 417.093 247.216 416.34C248.214 415.577 248.972 414.525 249.491 413.183C250.011 411.83 250.27 410.269 250.27 408.5C250.27 406.751 250.016 405.221 249.507 403.909C248.998 402.587 248.244 401.56 247.247 400.828C246.249 400.085 245.017 399.714 243.551 399.714C242.024 399.714 240.752 400.106 239.734 400.889C238.726 401.662 237.968 402.714 237.459 404.046C236.96 405.368 236.71 406.853 236.71 408.5C236.71 410.168 236.965 411.683 237.474 413.045C237.993 414.398 238.757 415.476 239.764 416.279C240.782 417.072 242.045 417.469 243.551 417.469Z"/></clipPath><clipPath id="paint15_diamond_552_27_clip_path"><path d="M271.751 410.635V396.786H275.354V420.214H271.751V416.249H271.506C270.957 417.438 270.101 418.45 268.941 419.284C267.78 420.108 266.315 420.519 264.543 420.519C263.077 420.519 261.774 420.199 260.634 419.558C259.494 418.908 258.598 417.931 257.947 416.63C257.295 415.318 256.969 413.666 256.969 411.673V396.786H260.573V411.429C260.573 413.137 261.052 414.5 262.008 415.516C262.976 416.533 264.207 417.042 265.704 417.042C266.6 417.042 267.511 416.813 268.437 416.355C269.374 415.898 270.157 415.196 270.789 414.25C271.43 413.305 271.751 412.1 271.751 410.635Z"/></clipPath><clipPath id="paint16_diamond_552_27_clip_path"><path d="M285.417 420.763C283.93 420.763 282.582 420.484 281.37 419.924C280.159 419.355 279.197 418.536 278.484 417.469C277.772 416.391 277.415 415.089 277.415 413.564C277.415 412.222 277.68 411.134 278.209 410.3C278.739 409.456 279.446 408.795 280.332 408.317C281.218 407.839 282.195 407.483 283.264 407.249C284.343 407.005 285.427 406.812 286.516 406.67C287.941 406.487 289.097 406.349 289.982 406.258C290.878 406.156 291.53 405.988 291.937 405.754C292.354 405.521 292.563 405.114 292.563 404.534V404.412C292.563 402.907 292.151 401.738 291.326 400.904C290.512 400.07 289.275 399.653 287.616 399.653C285.895 399.653 284.546 400.03 283.569 400.782C282.592 401.534 281.905 402.338 281.508 403.192L278.087 401.972C278.698 400.548 279.512 399.44 280.53 398.647C281.559 397.843 282.678 397.284 283.89 396.969C285.111 396.643 286.313 396.481 287.493 396.481C288.247 396.481 289.112 396.572 290.089 396.755C291.077 396.928 292.029 397.289 292.945 397.838C293.871 398.387 294.64 399.216 295.251 400.324C295.861 401.433 296.167 402.917 296.167 404.778V420.214H292.563V417.042H292.38C292.136 417.55 291.728 418.094 291.158 418.674C290.588 419.253 289.83 419.747 288.883 420.153C287.936 420.56 286.781 420.763 285.417 420.763ZM285.966 417.53C287.392 417.53 288.593 417.25 289.57 416.691C290.558 416.132 291.301 415.41 291.8 414.525C292.309 413.64 292.563 412.71 292.563 411.734V408.439C292.41 408.622 292.074 408.79 291.555 408.942C291.046 409.085 290.456 409.212 289.784 409.324C289.122 409.425 288.476 409.517 287.845 409.598C287.224 409.669 286.72 409.73 286.333 409.781C285.396 409.903 284.521 410.102 283.707 410.376C282.902 410.641 282.251 411.042 281.752 411.581C281.263 412.11 281.019 412.832 281.019 413.747C281.019 414.998 281.482 415.943 282.409 416.584C283.345 417.215 284.531 417.53 285.966 417.53Z"/></clipPath><clipPath id="paint17_diamond_552_27_clip_path"><path d="M302.908 388.976V420.214H299.304V388.976H302.908Z"/></clipPath><clipPath id="paint18_diamond_552_27_clip_path"><path d="M306.068 420.214V396.786H309.672V420.214H306.068ZM307.901 392.881C307.198 392.881 306.593 392.642 306.084 392.164C305.585 391.686 305.335 391.112 305.335 390.44C305.335 389.769 305.585 389.195 306.084 388.717C306.593 388.239 307.198 388 307.901 388C308.603 388 309.204 388.239 309.703 388.717C310.212 389.195 310.466 389.769 310.466 390.44C310.466 391.112 310.212 391.686 309.703 392.164C309.204 392.642 308.603 392.881 307.901 392.881Z"/></clipPath><clipPath id="paint19_diamond_552_27_clip_path"><path d="M323.033 396.786V399.836H310.878V396.786H323.033ZM314.421 391.173H318.024V413.503C318.024 414.52 318.172 415.282 318.467 415.791C318.772 416.289 319.159 416.625 319.628 416.798C320.106 416.96 320.61 417.042 321.139 417.042C321.536 417.042 321.862 417.021 322.117 416.981C322.371 416.93 322.575 416.889 322.727 416.859L323.46 420.092C323.216 420.184 322.875 420.275 322.437 420.367C322 420.469 321.445 420.519 320.773 420.519C319.755 420.519 318.757 420.301 317.78 419.863C316.813 419.426 316.009 418.76 315.367 417.865C314.736 416.97 314.421 415.842 314.421 414.479V391.173Z"/></clipPath><clipPath id="paint20_diamond_552_27_clip_path"><path d="M327.335 429C326.724 429 326.179 428.949 325.701 428.847C325.222 428.756 324.891 428.664 324.708 428.573L325.624 425.4C326.5 425.624 327.274 425.705 327.945 425.644C328.617 425.583 329.213 425.283 329.732 424.744C330.261 424.216 330.745 423.356 331.183 422.167L331.854 420.336L323.181 396.786H327.09L333.565 415.455H333.809L340.283 396.786H344.193L334.237 423.631C333.789 424.841 333.234 425.843 332.572 426.636C331.91 427.439 331.142 428.034 330.266 428.42C329.401 428.807 328.424 429 327.335 429Z"/></clipPath><clipPath id="paint21_diamond_552_27_clip_path"><path d="M346.666 420.458C345.913 420.458 345.266 420.189 344.727 419.65C344.187 419.111 343.917 418.465 343.917 417.713C343.917 416.96 344.187 416.315 344.727 415.776C345.266 415.237 345.913 414.967 346.666 414.967C347.419 414.967 348.066 415.237 348.605 415.776C349.145 416.315 349.414 416.96 349.414 417.713C349.414 418.211 349.287 418.669 349.033 419.086C348.788 419.502 348.458 419.838 348.04 420.092C347.633 420.336 347.175 420.458 346.666 420.458Z"/></clipPath><clipPath id="paint22_diamond_552_27_clip_path"><path d="M353.182 388.976V391.722C353.182 392.556 353.029 393.445 352.724 394.391C352.429 395.327 351.991 396.237 351.411 397.121C350.84 397.996 350.148 398.758 349.334 399.409L347.379 397.823C348.021 396.908 348.575 395.957 349.044 394.971C349.522 393.974 349.761 392.911 349.761 391.783V388.976H353.182ZM361 388.976V391.722C361 392.556 360.847 393.445 360.542 394.391C360.247 395.327 359.809 396.237 359.229 397.121C358.659 397.996 357.966 398.758 357.152 399.409L355.197 397.823C355.839 396.908 356.394 395.957 356.862 394.971C357.34 393.974 357.58 392.911 357.58 391.783V388.976H361Z"/></clipPath><linearGradient id="paint0_linear_552_27" x1="312" y1="54.5" x2="1326" y2="54.5" gradientUnits="userSpaceOnUse">
<stop stop-color="#D8FF63"/>
<stop offset="1" stop-color="white"/>
</linearGradient>
<linearGradient id="paint1_diamond_552_27" x1="0" y1="0" x2="500" y2="500" gradientUnits="userSpaceOnUse">
<stop stop-color="#D8FF63"/>
<stop offset="1" stop-color="white"/>
</linearGradient>
<linearGradient id="paint2_diamond_552_27" x1="0" y1="0" x2="500" y2="500" gradientUnits="userSpaceOnUse">
<stop stop-color="#D8FF63"/>
<stop offset="1" stop-color="white"/>
</linearGradient>
<linearGradient id="paint3_diamond_552_27" x1="0" y1="0" x2="500" y2="500" gradientUnits="userSpaceOnUse">
<stop stop-color="#D8FF63"/>
<stop offset="1" stop-color="white"/>
</linearGradient>
<linearGradient id="paint4_diamond_552_27" x1="0" y1="0" x2="500" y2="500" gradientUnits="userSpaceOnUse">
<stop stop-color="#D8FF63"/>
<stop offset="1" stop-color="white"/>
</linearGradient>
<linearGradient id="paint5_diamond_552_27" x1="0" y1="0" x2="500" y2="500" gradientUnits="userSpaceOnUse">
<stop stop-color="#D8FF63"/>
<stop offset="1" stop-color="white"/>
</linearGradient>
<linearGradient id="paint6_diamond_552_27" x1="0" y1="0" x2="500" y2="500" gradientUnits="userSpaceOnUse">
<stop stop-color="#D8FF63"/>
<stop offset="1" stop-color="white"/>
</linearGradient>
<linearGradient id="paint7_diamond_552_27" x1="0" y1="0" x2="500" y2="500" gradientUnits="userSpaceOnUse">
<stop stop-color="#D8FF63"/>
<stop offset="1" stop-color="white"/>
</linearGradient>
<linearGradient id="paint8_diamond_552_27" x1="0" y1="0" x2="500" y2="500" gradientUnits="userSpaceOnUse">
<stop stop-color="#D8FF63"/>
<stop offset="1" stop-color="white"/>
</linearGradient>
<linearGradient id="paint9_diamond_552_27" x1="0" y1="0" x2="500" y2="500" gradientUnits="userSpaceOnUse">
<stop stop-color="#D8FF63"/>
<stop offset="1" stop-color="white"/>
</linearGradient>
<linearGradient id="paint10_diamond_552_27" x1="0" y1="0" x2="500" y2="500" gradientUnits="userSpaceOnUse">
<stop stop-color="#D8FF63"/>
<stop offset="1" stop-color="white"/>
</linearGradient>
<linearGradient id="paint11_diamond_552_27" x1="0" y1="0" x2="500" y2="500" gradientUnits="userSpaceOnUse">
<stop stop-color="#D8FF63"/>
<stop offset="1" stop-color="white"/>
</linearGradient>
<linearGradient id="paint12_diamond_552_27" x1="0" y1="0" x2="500" y2="500" gradientUnits="userSpaceOnUse">
<stop stop-color="#D8FF63"/>
<stop offset="1" stop-color="white"/>
</linearGradient>
<linearGradient id="paint13_diamond_552_27" x1="0" y1="0" x2="500" y2="500" gradientUnits="userSpaceOnUse">
<stop stop-color="#D8FF63"/>
<stop offset="1" stop-color="white"/>
</linearGradient>
<linearGradient id="paint14_diamond_552_27" x1="0" y1="0" x2="500" y2="500" gradientUnits="userSpaceOnUse">
<stop stop-color="#D8FF63"/>
<stop offset="1" stop-color="white"/>
</linearGradient>
<linearGradient id="paint15_diamond_552_27" x1="0" y1="0" x2="500" y2="500" gradientUnits="userSpaceOnUse">
<stop stop-color="#D8FF63"/>
<stop offset="1" stop-color="white"/>
</linearGradient>
<linearGradient id="paint16_diamond_552_27" x1="0" y1="0" x2="500" y2="500" gradientUnits="userSpaceOnUse">
<stop stop-color="#D8FF63"/>
<stop offset="1" stop-color="white"/>
</linearGradient>
<linearGradient id="paint17_diamond_552_27" x1="0" y1="0" x2="500" y2="500" gradientUnits="userSpaceOnUse">
<stop stop-color="#D8FF63"/>
<stop offset="1" stop-color="white"/>
</linearGradient>
<linearGradient id="paint18_diamond_552_27" x1="0" y1="0" x2="500" y2="500" gradientUnits="userSpaceOnUse">
<stop stop-color="#D8FF63"/>
<stop offset="1" stop-color="white"/>
</linearGradient>
<linearGradient id="paint19_diamond_552_27" x1="0" y1="0" x2="500" y2="500" gradientUnits="userSpaceOnUse">
<stop stop-color="#D8FF63"/>
<stop offset="1" stop-color="white"/>
</linearGradient>
<linearGradient id="paint20_diamond_552_27" x1="0" y1="0" x2="500" y2="500" gradientUnits="userSpaceOnUse">
<stop stop-color="#D8FF63"/>
<stop offset="1" stop-color="white"/>
</linearGradient>
<linearGradient id="paint21_diamond_552_27" x1="0" y1="0" x2="500" y2="500" gradientUnits="userSpaceOnUse">
<stop stop-color="#D8FF63"/>
<stop offset="1" stop-color="white"/>
</linearGradient>
<linearGradient id="paint22_diamond_552_27" x1="0" y1="0" x2="500" y2="500" gradientUnits="userSpaceOnUse">
<stop stop-color="#D8FF63"/>
<stop offset="1" stop-color="white"/>
</linearGradient>
</defs>
</svg>
