<svg width="1979" height="364" viewBox="0 0 1979 364" fill="none" xmlns="http://www.w3.org/2000/svg">
<path fill-rule="evenodd" clip-rule="evenodd" d="M150.67 11.6181L143.252 57.9167H173.823V57.9232H248.378C249.533 57.9125 250.766 57.9003 252.082 57.9003C260.73 58.3332 265.791 63.2141 267.807 68.449C271.192 75.2108 268.237 82.7262 262.123 87.1817C251.054 95.2482 239.04 103.904 226.082 113.15C209.15 124.829 192.619 137.115 176.493 150.002C168.833 155.64 159.964 163.091 149.885 172.353C140.21 181.212 131.944 188.462 125.09 194.1C136.379 188.462 146.862 185.64 156.538 185.64C169.438 185.641 180.928 189.871 191.006 198.328C193.021 199.953 195.06 201.645 197.134 203.389C201.671 198.313 206.563 193.002 211.808 187.454C218.662 180.205 225.111 173.558 231.159 167.518C237.205 161.075 242.044 156.442 245.672 153.623C262.201 139.529 277.521 126.04 291.63 113.153C298.996 106.409 306.676 99.6124 314.665 92.7644L261.286 92.7578C262.49 91.8831 263.687 91.0181 264.869 90.1567C271.971 84.9799 276.037 75.6975 271.738 66.9304C270.375 63.4992 267.958 60.2719 264.484 57.9167L341.601 57.9232C342.797 57.9116 344.078 57.897 345.449 57.897C354.097 58.3299 359.158 63.2144 361.174 68.449C364.559 75.2108 361.608 82.7262 355.494 87.1817C344.424 95.2485 332.411 103.907 319.453 113.153C302.52 124.832 285.989 137.115 269.863 150.002C262.203 155.64 253.334 163.09 243.256 172.353C233.58 181.212 225.314 188.462 218.461 194.1C229.748 188.462 240.23 185.641 249.905 185.64C262.805 185.641 274.298 189.868 284.377 198.324C294.858 206.781 306.147 216.852 318.241 228.531C330.335 240.612 342.428 251.085 354.522 259.944C366.616 268.804 376.902 273.232 385.368 273.232C388.189 272.829 391.01 272.226 393.83 271.421C396.652 270.616 399.072 269.407 401.087 267.797C404.312 264.978 405.927 261.755 405.927 258.13C405.927 253.701 404.111 249.068 400.483 244.236C396.855 239.807 393.628 236.787 390.806 235.176C390.404 234.775 390.206 234.371 390.205 233.969C390.205 232.761 391.01 231.75 392.622 230.945C394.234 230.14 395.847 230.141 397.459 230.945C402.7 233.764 406.935 237.794 410.16 243.029C413.384 248.263 415 254.102 415 260.545C415 266.988 412.98 273.029 408.948 278.667C405.32 283.902 400.281 288.334 393.83 291.958C387.38 295.985 380.528 298 373.271 298C367.224 298 361.176 296.186 355.129 292.562C349.082 289.34 341.422 283.097 332.15 273.836C329.06 270.608 325.529 266.839 321.557 262.536C321.183 268.237 319.195 273.616 315.581 278.67C311.953 283.905 306.913 288.334 300.463 291.958C294.013 295.985 287.158 298 279.901 298C273.854 298 267.806 296.186 261.759 292.562C255.712 289.34 248.052 283.097 238.78 273.836C229.911 264.573 217.413 250.881 201.287 232.759C199.894 231.114 198.507 229.5 197.134 227.914C196.99 228.327 196.849 228.737 196.69 229.134C195.884 231.148 194.875 233.163 193.666 235.176C192.457 237.189 190.441 238.197 187.621 238.197C185.605 238.197 183.789 237.387 182.177 235.777C180.162 234.166 179.153 231.952 179.152 229.134C179.153 227.926 179.958 225.711 181.569 222.492C182.63 220.585 184.196 218.345 186.261 215.768C182.732 211.958 179.276 208.357 175.888 204.973C168.228 196.919 158.753 192.889 147.465 192.889C138.596 192.89 129.928 195.711 121.462 201.349C112.997 206.584 107.555 213.63 105.136 222.489C104.733 224.905 104.126 227.121 103.32 229.134C102.514 231.148 101.505 233.163 100.296 235.176C99.0862 237.189 97.0714 238.197 94.2504 238.197C92.2349 238.197 90.4186 237.391 88.8061 235.78C86.7908 234.169 85.7819 231.953 85.7819 229.134C85.7822 227.926 86.5896 225.71 88.2019 222.489C90.2178 218.865 94.0478 214.031 99.6914 207.991C105.335 201.548 111.585 194.703 118.438 187.454C125.291 180.205 131.741 173.558 137.788 167.518C143.834 161.075 148.674 156.446 152.302 153.627C168.831 139.531 184.153 126.037 198.263 113.15C205.628 106.406 213.307 99.6121 221.295 92.7644H173.823V92.7939H137.693L124.568 175.702C121.708 178.659 118.769 181.734 115.755 184.922C108.907 192.165 102.648 199.014 96.989 205.472C94.9754 207.627 93.1653 209.661 91.5644 211.566C85.4598 202.772 83.5335 191.165 85.7819 176.751L99.0675 92.7939H58.2091L36.9213 227.678H0L25.6485 57.897L104.321 57.9167L111.736 11.6181H150.67ZM240.832 192.893C231.964 192.893 223.297 195.709 214.832 201.345C210.82 203.827 207.491 206.722 204.837 210.018C211.248 215.66 217.929 221.828 224.87 228.531C236.965 240.612 249.06 251.085 261.155 259.944C273.249 268.804 283.532 273.232 291.998 273.232C294.819 272.829 297.642 272.227 300.463 271.421C303.285 270.616 305.704 269.408 307.72 267.797C310.945 264.978 312.557 261.755 312.557 258.13C312.557 255.835 312.067 253.486 311.092 251.082C306.113 245.582 300.634 239.475 294.658 232.759C285.788 222.288 277.318 213.024 269.255 204.97C261.596 196.917 252.12 192.893 240.832 192.893Z" fill="#D8FF63"/>
<path d="M147.465 196.583C157.759 196.583 166.262 200.204 173.212 207.512L173.245 207.548L173.278 207.581C173.459 207.762 173.641 207.946 173.823 208.129V227.678H129.349C121.365 227.678 114.42 226.584 108.518 224.404C108.586 224.061 108.664 223.717 108.725 223.368C110.889 215.532 115.695 209.253 123.406 204.484L123.462 204.452L123.511 204.416C131.461 199.122 139.428 196.583 147.465 196.583Z" fill="#D8FF63"/>
<path d="M54.6924 0C62.3133 0.000276751 68.0836 2.05809 71.9972 6.17314C76.1163 10.0824 77.5572 15.4332 76.3217 22.2227C75.2918 29.0123 72.2009 34.4685 67.052 38.5838C61.903 42.492 55.4123 44.4449 47.5866 44.4453C39.76 44.4451 33.8868 42.4926 29.9731 38.5838C26.0595 34.4684 24.6187 29.0128 25.6485 22.2227C26.8847 15.4333 30.0779 10.0824 35.2269 6.17314C40.3762 2.0588 46.8661 0.000266936 54.6924 0Z" fill="#D8FF63"/>
<path d="M1771.01 56C1781.48 56 1791.18 57.4732 1800.12 60.4199C1809.11 63.3667 1817.08 67.6694 1824.02 73.3271C1830.96 78.926 1836.6 85.7918 1840.95 93.9248C1845.36 102.058 1848.19 111.37 1849.42 121.86H1810.79C1810.08 116.851 1808.64 112.401 1806.47 108.512C1804.29 104.563 1801.5 101.204 1798.09 98.4336C1794.68 95.6636 1790.74 93.5417 1786.27 92.0684C1781.86 90.595 1777.07 89.8584 1771.89 89.8584C1762.55 89.8584 1754.4 92.186 1747.46 96.8418C1740.53 101.439 1735.15 108.158 1731.32 116.998C1727.5 125.779 1725.59 136.447 1725.59 149C1725.59 161.907 1727.5 172.751 1731.32 181.532C1735.2 190.313 1740.61 196.944 1747.55 201.423C1754.49 205.902 1762.52 208.142 1771.63 208.142C1776.75 208.142 1781.48 207.464 1785.83 206.108C1790.24 204.753 1794.15 202.779 1797.56 200.186C1800.97 197.534 1803.79 194.322 1806.03 190.55C1808.32 186.778 1809.91 182.475 1810.79 177.643L1849.42 177.819C1848.42 186.129 1845.92 194.145 1841.92 201.865C1837.98 209.527 1832.66 216.393 1825.96 222.463C1819.31 228.474 1811.38 233.248 1802.15 236.784C1792.97 240.261 1782.6 242 1771.01 242C1754.9 242 1740.5 238.346 1727.8 231.038C1715.15 223.73 1705.16 213.151 1697.81 199.302C1690.52 185.452 1686.87 168.684 1686.87 149C1686.87 129.257 1690.58 112.46 1697.99 98.6104C1705.39 84.7606 1715.45 74.211 1728.15 66.9619C1740.85 59.6539 1755.14 56 1771.01 56Z" fill="white"/>
<path d="M515.797 239.524H478.754V121.684H477.255L430.511 238.641H419.187C419.019 238.354 418.849 238.068 418.674 237.784C414.558 231.103 409.041 225.819 402.196 222.138L402.061 222.065L401.924 221.997L401.508 221.797C400.405 221.285 399.274 220.908 398.129 220.666L358.542 121.241H357.043V239.524H344.839C338.353 234.002 331.841 227.982 325.309 221.456L325.188 221.337L322.897 219.137C321.927 218.208 320.961 217.29 320 216.382V124.953C321.706 123.758 323.415 122.568 325.13 121.386L325.196 121.34L325.261 121.294C338.243 112.031 350.283 103.352 361.383 95.2637C368.436 90.1241 373.667 81.1997 372.458 71.5859L416.84 180.118H418.957L468.7 58.4756H515.797V239.524Z" fill="white"/>
<path fill-rule="evenodd" clip-rule="evenodd" d="M691.438 239.524H650.515L637.142 198.24H571.925L558.525 239.524H517.603L579.957 58.4756H629.171L691.438 239.524ZM581.622 168.36H627.463L605.27 99.8477H603.858L581.622 168.36Z" fill="white"/>
<path fill-rule="evenodd" clip-rule="evenodd" d="M764.573 58.4756C778.214 58.4756 789.856 60.9209 799.499 65.8125C809.201 70.6452 816.58 77.5119 821.637 86.4111C826.752 95.2513 829.31 105.654 829.31 117.617C829.31 129.64 826.722 139.983 821.548 148.646C816.374 157.251 808.877 163.851 799.058 168.448C798.519 168.702 797.974 168.947 797.423 169.187L835.748 239.524H793.59L759.376 175.344H731.499V239.524H693.31V58.4756H764.573ZM731.499 144.58H757.429C764.72 144.58 770.776 143.578 775.598 141.574C780.419 139.57 784.006 136.564 786.357 132.557C788.768 128.549 789.974 123.569 789.974 117.617C789.974 111.606 788.768 106.537 786.357 102.411C784.006 98.286 780.39 95.1626 775.51 93.041C770.688 90.8604 764.602 89.7696 757.253 89.7695H731.499V144.58Z" fill="white"/>
<path d="M874.618 138.304H876.999L942 58.4756H987.774L920.745 139.541L987.793 238.382L987.774 58.4756H1109.51V90.0352H1025.98V133.176H1103.24V164.735H1025.98V207.965H1109.86V239.524H942.882L893.403 165.09L874.618 188.074V239.524H836.429V58.4756H874.618V138.304Z" fill="white"/>
<path d="M1261.47 90.0352H1206.17V239.524H1168.42V90.0352H1113.12V58.4756H1261.47V90.0352Z" fill="white"/>
<path fill-rule="evenodd" clip-rule="evenodd" d="M1337.29 58.4756C1350.99 58.4756 1362.66 61.0976 1372.3 66.3428C1381.95 71.5291 1389.3 78.7491 1394.35 88.002C1399.47 97.1959 1402.03 107.804 1402.03 119.827C1402.03 131.85 1399.44 142.458 1394.27 151.652C1389.09 160.846 1381.59 168.006 1371.78 173.134C1362.01 178.261 1350.2 180.825 1336.32 180.825H1304.22V239.524H1266.03V58.4756H1337.29ZM1304.22 150.149H1330.15C1337.5 150.149 1343.55 148.882 1348.32 146.348C1353.14 143.755 1356.72 140.189 1359.08 135.651C1361.49 131.054 1362.69 125.78 1362.69 119.827C1362.69 113.816 1361.49 108.57 1359.08 104.091C1356.72 99.553 1353.14 96.0465 1348.32 93.5713C1343.49 91.0371 1337.38 89.7695 1329.97 89.7695H1304.22V150.149Z" fill="white"/>
<path d="M1445.15 207.965H1522.59V239.524H1406.96V58.4756H1445.15V207.965Z" fill="white"/>
<path fill-rule="evenodd" clip-rule="evenodd" d="M1696.67 239.524H1655.74L1642.37 198.24H1577.15L1563.75 239.524H1522.83L1585.18 58.4756H1634.4L1696.67 239.524ZM1586.85 168.36H1632.69L1610.5 99.8477H1609.09L1586.85 168.36Z" fill="white"/>
<path d="M1978.65 90.0352H1895.12V133.176H1972.38V164.735H1895.12V207.965H1979V239.524H1856.94V58.4756H1978.65V90.0352Z" fill="white"/>
<path d="M361.174 68.449C361.28 68.6603 361.38 68.8724 361.474 69.085C361.427 68.9786 361.378 68.8727 361.328 68.7666L361.174 68.449Z" fill="white"/>
<path d="M367.283 58.9316C367.172 58.7785 367.058 58.6268 366.943 58.4756H367.097L367.283 58.9316Z" fill="white"/>
<path d="M559.326 310.951C559.326 318.059 558.018 324.17 555.402 329.284C552.786 334.377 549.201 338.299 544.645 341.051C540.111 343.782 534.956 345.147 529.179 345.147C523.381 345.147 518.204 343.782 513.648 341.051C509.114 338.299 505.539 334.366 502.924 329.252C500.308 324.137 499 318.037 499 310.951C499 303.843 500.308 297.743 502.924 292.65C505.539 287.536 509.114 283.614 513.648 280.883C518.204 278.131 523.381 276.755 529.179 276.755C534.956 276.755 540.111 278.131 544.645 280.883C549.201 283.614 552.786 287.536 555.402 292.65C558.018 297.743 559.326 303.843 559.326 310.951ZM549.321 310.951C549.321 305.533 548.438 300.972 546.672 297.266C544.928 293.539 542.531 290.722 539.479 288.815C536.449 286.886 533.016 285.922 529.179 285.922C525.321 285.922 521.877 286.886 518.847 288.815C515.817 290.722 513.419 293.539 511.654 297.266C509.91 300.972 509.038 305.533 509.038 310.951C509.038 316.369 509.91 320.941 511.654 324.668C513.419 328.374 515.817 331.191 518.847 333.12C521.877 335.027 525.321 335.98 529.179 335.98C533.016 335.98 536.449 335.027 539.479 333.12C542.531 331.191 544.928 328.374 546.672 324.668C548.438 320.941 549.321 316.369 549.321 310.951Z" fill="white"/>
<path d="M573.548 314.592V344.237H563.772V294.308H573.156V302.435H573.777C574.932 299.791 576.741 297.667 579.205 296.064C581.69 294.46 584.818 293.658 588.589 293.658C592.011 293.658 595.008 294.373 597.58 295.804C600.152 297.212 602.147 299.314 603.564 302.11C604.981 304.905 605.689 308.361 605.689 312.479V344.237H595.913V313.649C595.913 310.03 594.964 307.202 593.068 305.165C591.172 303.106 588.567 302.077 585.253 302.077C582.987 302.077 580.97 302.565 579.205 303.54C577.461 304.515 576.077 305.945 575.052 307.831C574.049 309.694 573.548 311.948 573.548 314.592Z" fill="white"/>
<path d="M621.211 277.665V344.237H611.435V277.665H621.211Z" fill="white"/>
<path d="M633.177 362.96C631.717 362.96 630.387 362.841 629.188 362.602C627.989 362.386 627.095 362.147 626.507 361.887L628.861 353.923C630.648 354.4 632.24 354.606 633.635 354.541C635.03 354.476 636.261 353.956 637.33 352.981C638.419 352.005 639.379 350.413 640.207 348.202L641.417 344.887L623.041 294.308H633.504L646.223 333.055H646.746L659.465 294.308H669.961L649.264 350.9C648.305 353.501 647.084 355.7 645.602 357.499C644.12 359.319 642.354 360.684 640.305 361.595C638.256 362.505 635.88 362.96 633.177 362.96Z" fill="white"/>
<path d="M712.228 294.308V302.11H684.795V294.308H712.228ZM692.152 282.346H701.929V329.577C701.929 331.462 702.212 332.881 702.779 333.835C703.345 334.767 704.076 335.406 704.969 335.753C705.885 336.078 706.877 336.24 707.945 336.24C708.729 336.24 709.416 336.186 710.005 336.078C710.593 335.969 711.051 335.883 711.378 335.818L713.144 343.847C712.577 344.063 711.77 344.28 710.724 344.497C709.678 344.735 708.37 344.865 706.8 344.887C704.228 344.93 701.83 344.475 699.607 343.522C697.384 342.568 695.585 341.094 694.212 339.101C692.839 337.107 692.152 334.604 692.152 331.592V282.346Z" fill="white"/>
<path d="M726.532 314.592V344.237H716.756V277.665H726.401V302.435H727.022C728.2 299.748 729.998 297.613 732.417 296.031C734.837 294.449 737.998 293.658 741.9 293.658C745.344 293.658 748.352 294.362 750.924 295.771C753.518 297.18 755.523 299.282 756.94 302.077C758.379 304.851 759.098 308.318 759.098 312.479V344.237H749.322V313.649C749.322 309.987 748.374 307.148 746.477 305.133C744.581 303.096 741.943 302.077 738.564 302.077C736.254 302.077 734.183 302.565 732.352 303.54C730.543 304.515 729.115 305.945 728.069 307.831C727.044 309.694 726.532 311.948 726.532 314.592Z" fill="white"/>
<path d="M786.424 345.244C781.475 345.244 777.214 344.193 773.639 342.091C770.086 339.968 767.339 336.988 765.399 333.152C763.481 329.295 762.522 324.777 762.522 319.598C762.522 314.483 763.481 309.976 765.399 306.075C767.339 302.175 770.042 299.13 773.508 296.941C776.996 294.752 781.072 293.658 785.737 293.658C788.571 293.658 791.317 294.124 793.977 295.056C796.636 295.988 799.023 297.45 801.137 299.444C803.252 301.438 804.919 304.027 806.14 307.213C807.361 310.377 807.971 314.223 807.971 318.752V322.198H768.048V314.917H798.391C798.391 312.36 797.868 310.095 796.821 308.123C795.775 306.129 794.304 304.558 792.407 303.41C790.533 302.261 788.331 301.687 785.802 301.687C783.056 301.687 780.658 302.359 778.609 303.702C776.582 305.024 775.012 306.758 773.901 308.903C772.811 311.027 772.266 313.335 772.266 315.827V321.515C772.266 324.853 772.854 327.691 774.031 330.032C775.23 332.372 776.898 334.16 779.034 335.395C781.17 336.609 783.666 337.215 786.522 337.215C788.374 337.215 790.064 336.955 791.59 336.435C793.116 335.894 794.434 335.092 795.546 334.03C796.658 332.968 797.508 331.657 798.096 330.097L807.35 331.755C806.608 334.463 805.279 336.836 803.361 338.873C801.464 340.889 799.077 342.46 796.2 343.587C793.344 344.692 790.086 345.244 786.424 345.244Z" fill="white"/>
<path d="M829.238 344.237V277.665H853.761C858.513 277.665 862.447 278.446 865.565 280.006C868.682 281.544 871.014 283.636 872.562 286.279C874.109 288.902 874.883 291.86 874.883 295.153C874.883 297.927 874.371 300.268 873.346 302.175C872.322 304.06 870.949 305.577 869.227 306.725C867.526 307.852 865.652 308.676 863.603 309.196V309.846C865.826 309.954 867.995 310.669 870.109 311.991C872.246 313.291 874.011 315.144 875.406 317.55C876.801 319.955 877.499 322.881 877.499 326.326C877.499 329.728 876.692 332.784 875.079 335.493C873.488 338.18 871.025 340.314 867.69 341.896C864.355 343.457 860.093 344.237 854.905 344.237H829.238ZM839.342 335.623H853.924C858.764 335.623 862.229 334.691 864.322 332.827C866.415 330.964 867.461 328.634 867.461 325.839C867.461 323.737 866.927 321.808 865.859 320.053C864.791 318.297 863.265 316.9 861.281 315.859C859.319 314.819 856.987 314.299 854.284 314.299H839.342V335.623ZM839.342 306.465H852.878C855.145 306.465 857.183 306.032 858.992 305.165C860.823 304.298 862.273 303.085 863.341 301.524C864.431 299.943 864.976 298.079 864.976 295.934C864.976 293.181 864.006 290.874 862.066 289.01C860.126 287.146 857.151 286.214 853.14 286.214H839.342V306.465Z" fill="white"/>
<path d="M902.977 345.244C898.029 345.244 893.767 344.193 890.192 342.091C886.639 339.968 883.893 336.988 881.953 333.152C880.035 329.295 879.076 324.777 879.076 319.598C879.076 314.483 880.035 309.976 881.953 306.075C883.893 302.175 886.596 299.13 890.062 296.941C893.549 294.752 897.626 293.658 902.29 293.658C905.124 293.658 907.871 294.124 910.53 295.056C913.189 295.988 915.576 297.45 917.691 299.444C919.805 301.438 921.473 304.027 922.693 307.213C923.914 310.377 924.524 314.223 924.524 318.752V322.198H884.601V314.917H914.944C914.944 312.36 914.421 310.095 913.375 308.123C912.328 306.129 910.857 304.558 908.961 303.41C907.086 302.261 904.884 301.687 902.356 301.687C899.609 301.687 897.211 302.359 895.162 303.702C893.135 305.024 891.566 306.758 890.454 308.903C889.364 311.027 888.819 313.335 888.819 315.827V321.515C888.819 324.853 889.408 327.691 890.585 330.032C891.784 332.372 893.451 334.16 895.587 335.395C897.724 336.609 900.22 337.215 903.075 337.215C904.928 337.215 906.617 336.955 908.143 336.435C909.669 335.894 910.988 335.092 912.099 334.03C913.211 332.968 914.061 331.657 914.65 330.097L923.903 331.755C923.162 334.463 921.832 336.836 919.914 338.873C918.018 340.889 915.631 342.46 912.753 343.587C909.898 344.692 906.639 345.244 902.977 345.244Z" fill="white"/>
<path d="M965.64 306.498L956.779 308.058C956.408 306.931 955.82 305.859 955.013 304.84C954.228 303.822 953.16 302.987 951.809 302.337C950.457 301.687 948.768 301.362 946.741 301.362C943.972 301.362 941.662 301.98 939.809 303.215C937.956 304.428 937.03 305.999 937.03 307.928C937.03 309.597 937.651 310.94 938.894 311.959C940.136 312.977 942.141 313.812 944.91 314.462L952.888 316.282C957.509 317.344 960.953 318.98 963.22 321.19C965.487 323.401 966.621 326.272 966.621 329.804C966.621 332.795 965.749 335.46 964.005 337.801C962.283 340.119 959.874 341.94 956.779 343.262C953.705 344.583 950.141 345.244 946.087 345.244C940.463 345.244 935.875 344.052 932.321 341.669C928.768 339.263 926.589 335.85 925.782 331.43L935.232 329.999C935.82 332.448 937.03 334.301 938.861 335.558C940.692 336.793 943.079 337.411 946.021 337.411C949.226 337.411 951.787 336.75 953.705 335.428C955.623 334.084 956.583 332.448 956.583 330.519C956.583 328.959 955.994 327.648 954.817 326.586C953.662 325.524 951.885 324.723 949.487 324.181L940.986 322.328C936.3 321.266 932.834 319.576 930.589 317.257C928.365 314.938 927.253 312.002 927.253 308.448C927.253 305.501 928.082 302.922 929.738 300.712C931.395 298.501 933.684 296.779 936.605 295.543C939.526 294.287 942.872 293.658 946.643 293.658C952.07 293.658 956.343 294.828 959.46 297.169C962.577 299.487 964.637 302.597 965.64 306.498Z" fill="white"/>
<path d="M993.447 294.308V302.11H966.015V294.308H993.447ZM973.371 282.346H983.148V329.577C983.148 331.462 983.431 332.881 983.998 333.835C984.565 334.767 985.295 335.406 986.189 335.753C987.104 336.078 988.096 336.24 989.164 336.24C989.949 336.24 990.635 336.186 991.224 336.078C991.813 335.969 992.27 335.883 992.597 335.818L994.363 343.847C993.796 344.063 992.99 344.28 991.943 344.497C990.897 344.735 989.589 344.865 988.02 344.887C985.448 344.93 983.05 344.475 980.826 343.522C978.603 342.568 976.805 341.094 975.431 339.101C974.058 337.107 973.371 334.604 973.371 331.592V282.346Z" fill="white"/>
<path d="M1003.34 344.854C1001.55 344.854 1000.01 344.226 998.727 342.969C997.441 341.69 996.798 340.152 996.798 338.353C996.798 336.576 997.441 335.059 998.727 333.802C1000.01 332.524 1001.55 331.885 1003.34 331.885C1005.12 331.885 1006.66 332.524 1007.95 333.802C1009.23 335.059 1009.88 336.576 1009.88 338.353C1009.88 339.545 1009.57 340.639 1008.96 341.636C1008.37 342.611 1007.59 343.392 1006.61 343.977C1005.63 344.562 1004.54 344.854 1003.34 344.854Z" fill="white"/>
<path d="M1086.36 277.665V344.237H1077.08L1043.04 295.413H1042.42V344.237H1032.31V277.665H1041.66L1075.73 326.554H1076.36V277.665H1086.36Z" fill="white"/>
<path d="M1114.1 345.244C1109.39 345.244 1105.29 344.172 1101.78 342.026C1098.27 339.881 1095.54 336.88 1093.6 333.022C1091.66 329.165 1090.69 324.658 1090.69 319.5C1090.69 314.321 1091.66 309.792 1093.6 305.913C1095.54 302.034 1098.27 299.022 1101.78 296.876C1105.29 294.731 1109.39 293.658 1114.1 293.658C1118.81 293.658 1122.92 294.731 1126.43 296.876C1129.94 299.022 1132.66 302.034 1134.6 305.913C1136.54 309.792 1137.51 314.321 1137.51 319.5C1137.51 324.658 1136.54 329.165 1134.6 333.022C1132.66 336.88 1129.94 339.881 1126.43 342.026C1122.92 344.172 1118.81 345.244 1114.1 345.244ZM1114.14 337.085C1117.19 337.085 1119.72 336.284 1121.72 334.68C1123.73 333.076 1125.21 330.942 1126.17 328.276C1127.15 325.611 1127.64 322.675 1127.64 319.467C1127.64 316.282 1127.15 313.356 1126.17 310.691C1125.21 308.004 1123.73 305.848 1121.72 304.222C1119.72 302.597 1117.19 301.785 1114.14 301.785C1111.06 301.785 1108.51 302.597 1106.48 304.222C1104.48 305.848 1102.99 308.004 1102.01 310.691C1101.05 313.356 1100.57 316.282 1100.57 319.467C1100.57 322.675 1101.05 325.611 1102.01 328.276C1102.99 330.942 1104.48 333.076 1106.48 334.68C1108.51 336.284 1111.06 337.085 1114.14 337.085Z" fill="white"/>
<path d="M1164.5 294.308V302.11H1137.07V294.308H1164.5ZM1144.43 282.346H1154.21V329.577C1154.21 331.462 1154.49 332.881 1155.06 333.835C1155.62 334.767 1156.35 335.406 1157.25 335.753C1158.16 336.078 1159.15 336.24 1160.22 336.24C1161.01 336.24 1161.69 336.186 1162.28 336.078C1162.87 335.969 1163.33 335.883 1163.65 335.818L1165.42 343.847C1164.85 344.063 1164.05 344.28 1163 344.497C1161.95 344.735 1160.65 344.865 1159.08 344.887C1156.5 344.93 1154.11 344.475 1151.88 343.522C1149.66 342.568 1147.86 341.094 1146.49 339.101C1145.12 337.107 1144.43 334.604 1144.43 331.592V282.346Z" fill="white"/>
<path d="M1178.81 314.592V344.237H1169.03V277.665H1178.68V302.435H1179.3C1180.48 299.748 1182.27 297.613 1184.69 296.031C1187.11 294.449 1190.27 293.658 1194.18 293.658C1197.62 293.658 1200.63 294.362 1203.2 295.771C1205.79 297.18 1207.8 299.282 1209.22 302.077C1210.66 304.851 1211.37 308.318 1211.37 312.479V344.237H1201.6V313.649C1201.6 309.987 1200.65 307.148 1198.75 305.133C1196.86 303.096 1194.22 302.077 1190.84 302.077C1188.53 302.077 1186.46 302.565 1184.63 303.54C1182.82 304.515 1181.39 305.945 1180.35 307.831C1179.32 309.694 1178.81 311.948 1178.81 314.592Z" fill="white"/>
<path d="M1217.05 344.237V294.308H1226.83V344.237H1217.05ZM1221.99 286.604C1220.29 286.604 1218.83 286.041 1217.61 284.914C1216.41 283.766 1215.81 282.4 1215.81 280.818C1215.81 279.215 1216.41 277.85 1217.61 276.723C1218.83 275.574 1220.29 275 1221.99 275C1223.69 275 1225.14 275.574 1226.34 276.723C1227.56 277.85 1228.17 279.215 1228.17 280.818C1228.17 282.4 1227.56 283.766 1226.34 284.914C1225.14 286.041 1223.69 286.604 1221.99 286.604Z" fill="white"/>
<path d="M1242.39 314.592V344.237H1232.62V294.308H1242V302.435H1242.62C1243.78 299.791 1245.59 297.667 1248.05 296.064C1250.54 294.46 1253.66 293.658 1257.43 293.658C1260.86 293.658 1263.85 294.373 1266.43 295.804C1269 297.212 1270.99 299.314 1272.41 302.11C1273.83 304.905 1274.53 308.361 1274.53 312.479V344.237H1264.76V313.649C1264.76 310.03 1263.81 307.202 1261.91 305.165C1260.02 303.106 1257.41 302.077 1254.1 302.077C1251.83 302.077 1249.82 302.565 1248.05 303.54C1246.31 304.515 1244.92 305.945 1243.9 307.831C1242.9 309.694 1242.39 311.948 1242.39 314.592Z" fill="white"/>
<path d="M1301.34 364C1297.35 364 1293.92 363.48 1291.04 362.44C1288.18 361.4 1285.85 360.023 1284.04 358.312C1282.23 356.6 1280.88 354.725 1279.99 352.688L1288.39 349.243C1288.98 350.196 1289.76 351.204 1290.74 352.266C1291.75 353.349 1293.1 354.27 1294.8 355.028C1296.52 355.787 1298.73 356.166 1301.44 356.166C1305.14 356.166 1308.2 355.267 1310.62 353.468C1313.04 351.691 1314.25 348.852 1314.25 344.952V335.135H1313.63C1313.04 336.197 1312.19 337.378 1311.08 338.678C1309.99 339.978 1308.49 341.105 1306.57 342.059C1304.65 343.012 1302.15 343.489 1299.08 343.489C1295.11 343.489 1291.54 342.568 1288.36 340.726C1285.2 338.862 1282.69 336.121 1280.84 332.502C1279.01 328.862 1278.09 324.387 1278.09 319.077C1278.09 313.768 1278.99 309.217 1280.8 305.425C1282.63 301.633 1285.14 298.729 1288.32 296.714C1291.51 294.677 1295.11 293.658 1299.15 293.658C1302.26 293.658 1304.78 294.178 1306.7 295.218C1308.62 296.237 1310.11 297.429 1311.18 298.794C1312.27 300.159 1313.11 301.362 1313.7 302.402H1314.42V294.308H1324V345.342C1324 349.633 1322.99 353.154 1320.99 355.906C1318.98 358.658 1316.27 360.695 1312.85 362.017C1309.45 363.339 1305.61 364 1301.34 364ZM1301.24 335.428C1304.05 335.428 1306.43 334.778 1308.37 333.477C1310.33 332.155 1311.81 330.27 1312.81 327.821C1313.84 325.351 1314.35 322.393 1314.35 318.947C1314.35 315.589 1313.85 312.631 1312.85 310.073C1311.84 307.516 1310.37 305.523 1308.43 304.092C1306.49 302.64 1304.09 301.915 1301.24 301.915C1298.3 301.915 1295.84 302.673 1293.88 304.19C1291.92 305.685 1290.44 307.722 1289.44 310.301C1288.45 312.88 1287.96 315.762 1287.96 318.947C1287.96 322.22 1288.47 325.091 1289.47 327.561C1290.47 330.032 1291.95 331.96 1293.92 333.347C1295.9 334.734 1298.34 335.428 1301.24 335.428Z" fill="white"/>
<path d="M1347.53 344.237V277.665H1357.63V335.59H1387.97V344.237H1347.53Z" fill="white"/>
<path d="M1412.99 345.244C1408.05 345.244 1403.78 344.193 1400.21 342.091C1396.66 339.968 1393.91 336.988 1391.97 333.152C1390.05 329.295 1389.09 324.777 1389.09 319.598C1389.09 314.483 1390.05 309.976 1391.97 306.075C1393.91 302.175 1396.61 299.13 1400.08 296.941C1403.57 294.752 1407.64 293.658 1412.31 293.658C1415.14 293.658 1417.89 294.124 1420.55 295.056C1423.21 295.988 1425.59 297.45 1427.71 299.444C1429.82 301.438 1431.49 304.027 1432.71 307.213C1433.93 310.377 1434.54 314.223 1434.54 318.752V322.198H1394.62V314.917H1424.96C1424.96 312.36 1424.44 310.095 1423.39 308.123C1422.35 306.129 1420.87 304.558 1418.98 303.41C1417.1 302.261 1414.9 301.687 1412.37 301.687C1409.63 301.687 1407.23 302.359 1405.18 303.702C1403.15 305.024 1401.58 306.758 1400.47 308.903C1399.38 311.027 1398.84 313.335 1398.84 315.827V321.515C1398.84 324.853 1399.43 327.691 1400.6 330.032C1401.8 332.372 1403.47 334.16 1405.6 335.395C1407.74 336.609 1410.24 337.215 1413.09 337.215C1414.95 337.215 1416.63 336.955 1418.16 336.435C1419.69 335.894 1421.01 335.092 1422.12 334.03C1423.23 332.968 1424.08 331.657 1424.67 330.097L1433.92 331.755C1433.18 334.463 1431.85 336.836 1429.93 338.873C1428.03 340.889 1425.65 342.46 1422.77 343.587C1419.92 344.692 1416.66 345.244 1412.99 345.244Z" fill="white"/>
<path d="M1475.66 306.498L1466.8 308.058C1466.43 306.931 1465.84 305.859 1465.03 304.84C1464.25 303.822 1463.18 302.987 1461.83 302.337C1460.47 301.687 1458.79 301.362 1456.76 301.362C1453.99 301.362 1451.68 301.98 1449.83 303.215C1447.97 304.428 1447.05 305.999 1447.05 307.928C1447.05 309.597 1447.67 310.94 1448.91 311.959C1450.15 312.977 1452.16 313.812 1454.93 314.462L1462.91 316.282C1467.53 317.344 1470.97 318.98 1473.24 321.19C1475.5 323.401 1476.64 326.272 1476.64 329.804C1476.64 332.795 1475.77 335.46 1474.02 337.801C1472.3 340.119 1469.89 341.94 1466.8 343.262C1463.72 344.583 1460.16 345.244 1456.1 345.244C1450.48 345.244 1445.89 344.052 1442.34 341.669C1438.79 339.263 1436.61 335.85 1435.8 331.43L1445.25 329.999C1445.84 332.448 1447.05 334.301 1448.88 335.558C1450.71 336.793 1453.1 337.411 1456.04 337.411C1459.24 337.411 1461.8 336.75 1463.72 335.428C1465.64 334.084 1466.6 332.448 1466.6 330.519C1466.6 328.959 1466.01 327.648 1464.83 326.586C1463.68 325.524 1461.9 324.723 1459.5 324.181L1451 322.328C1446.32 321.266 1442.85 319.576 1440.61 317.257C1438.38 314.938 1437.27 312.002 1437.27 308.448C1437.27 305.501 1438.1 302.922 1439.76 300.712C1441.41 298.501 1443.7 296.779 1446.62 295.543C1449.54 294.287 1452.89 293.658 1456.66 293.658C1462.09 293.658 1466.36 294.828 1469.48 297.169C1472.59 299.487 1474.65 302.597 1475.66 306.498Z" fill="white"/>
<path d="M1517.66 306.498L1508.79 308.058C1508.42 306.931 1507.84 305.859 1507.03 304.84C1506.24 303.822 1505.18 302.987 1503.82 302.337C1502.47 301.687 1500.78 301.362 1498.76 301.362C1495.99 301.362 1493.68 301.98 1491.82 303.215C1489.97 304.428 1489.05 305.999 1489.05 307.928C1489.05 309.597 1489.67 310.94 1490.91 311.959C1492.15 312.977 1494.16 313.812 1496.93 314.462L1504.9 316.282C1509.52 317.344 1512.97 318.98 1515.24 321.19C1517.5 323.401 1518.64 326.272 1518.64 329.804C1518.64 332.795 1517.76 335.46 1516.02 337.801C1514.3 340.119 1511.89 341.94 1508.79 343.262C1505.72 344.583 1502.16 345.244 1498.1 345.244C1492.48 345.244 1487.89 344.052 1484.34 341.669C1480.78 339.263 1478.6 335.85 1477.8 331.43L1487.25 329.999C1487.84 332.448 1489.05 334.301 1490.88 335.558C1492.71 336.793 1495.09 337.411 1498.04 337.411C1501.24 337.411 1503.8 336.75 1505.72 335.428C1507.64 334.084 1508.6 332.448 1508.6 330.519C1508.6 328.959 1508.01 327.648 1506.83 326.586C1505.68 325.524 1503.9 324.723 1501.5 324.181L1493 322.328C1488.32 321.266 1484.85 319.576 1482.6 317.257C1480.38 314.938 1479.27 312.002 1479.27 308.448C1479.27 305.501 1480.1 302.922 1481.75 300.712C1483.41 298.501 1485.7 296.779 1488.62 295.543C1491.54 294.287 1494.89 293.658 1498.66 293.658C1504.09 293.658 1508.36 294.828 1511.48 297.169C1514.59 299.487 1516.65 302.597 1517.66 306.498Z" fill="white"/>
<path d="M1528.46 344.854C1526.67 344.854 1525.14 344.226 1523.85 342.969C1522.56 341.69 1521.92 340.152 1521.92 338.353C1521.92 336.576 1522.56 335.059 1523.85 333.802C1525.14 332.524 1526.67 331.885 1528.46 331.885C1530.25 331.885 1531.78 332.524 1533.07 333.802C1534.36 335.059 1535 336.576 1535 338.353C1535 339.545 1534.69 340.639 1534.08 341.636C1533.5 342.611 1532.71 343.392 1531.73 343.977C1530.75 344.562 1529.66 344.854 1528.46 344.854Z" fill="white"/>
</svg>
