<svg width="1034" height="744" viewBox="0 0 1034 744" fill="none" xmlns="http://www.w3.org/2000/svg">
<path d="M859.101 145.348C855.698 145.348 852.519 145.384 849.55 145.413L658.158 145.397C666.778 151.248 672.778 159.267 676.16 167.792C686.83 189.574 676.739 212.637 659.111 225.499C656.178 227.639 653.207 229.788 650.22 231.961L782.699 231.978C762.871 248.992 743.811 265.878 725.53 282.635C690.512 314.652 652.49 348.167 611.469 383.185C602.464 390.188 590.455 401.698 575.448 417.706C560.44 432.714 544.432 449.229 527.422 467.239C514.404 481.023 502.263 494.219 491.002 506.83C485.855 502.496 480.794 498.293 475.795 494.255C450.782 473.244 422.266 462.733 390.249 462.732C366.236 462.733 340.216 469.742 312.201 483.75C329.21 469.742 349.725 451.731 373.738 429.719C398.751 406.706 420.764 388.195 439.774 374.188C479.797 342.169 520.825 311.644 562.849 282.627C595.009 259.656 624.826 238.149 652.298 218.107C667.472 207.037 674.805 188.365 666.405 171.565C661.401 158.559 648.84 146.432 627.377 145.356C624.11 145.356 621.05 145.386 618.184 145.413H433.148V145.397H357.276L375.686 30.3657H279.056L260.655 145.397L65.3995 145.348L1.74329 567.177H93.3769L146.211 232.051H247.615L214.642 440.647C209.062 476.458 213.843 505.297 228.994 527.147C232.967 522.414 237.459 517.359 242.457 512.005C256.502 495.96 272.035 478.944 289.032 460.948C296.512 453.027 303.805 445.388 310.905 438.039L343.479 232.051H433.148V231.978H550.967C531.141 248.991 512.085 265.871 493.806 282.627C458.786 314.645 420.76 348.173 379.736 383.193C370.731 390.197 358.721 401.7 343.715 417.706C328.707 432.714 312.699 449.229 295.69 467.239C278.681 485.248 263.171 502.255 249.164 518.264C235.157 533.271 225.652 545.28 220.649 554.285C216.647 562.288 214.643 567.794 214.642 570.796C214.642 577.799 217.146 583.304 222.148 587.307C226.15 591.309 230.658 593.313 235.66 593.313C242.661 593.312 247.662 590.808 250.663 585.807C253.665 580.804 256.168 575.799 258.169 570.796C260.17 565.793 261.675 560.288 262.676 554.285C268.68 532.274 282.186 514.767 303.195 501.761C324.207 487.753 345.72 480.744 367.732 480.743C395.748 480.743 419.264 490.755 438.274 510.766C446.682 519.173 455.258 528.119 464.019 537.586C458.894 543.988 455.005 549.555 452.373 554.293C448.375 562.289 446.377 567.794 446.375 570.796C446.376 577.796 448.881 583.297 453.881 587.299C457.883 591.3 462.39 593.312 467.393 593.313C474.393 593.311 479.395 590.808 482.396 585.807C485.397 580.805 487.901 575.798 489.902 570.796C490.297 569.808 490.646 568.79 491.002 567.764C494.412 571.703 497.852 575.713 501.311 579.801C541.333 624.825 572.35 658.845 594.363 681.858C617.374 704.869 636.386 720.378 651.394 728.384C666.401 737.388 681.412 741.895 696.42 741.896C714.43 741.896 731.443 736.89 747.452 726.884C763.46 717.88 775.968 706.876 784.973 693.87C793.942 681.313 798.876 667.948 799.805 653.783C809.663 664.476 818.425 673.838 826.096 681.858C849.107 704.869 868.118 720.379 883.126 728.384C898.134 737.388 913.145 741.895 928.153 741.896C946.162 741.895 963.169 736.889 979.177 726.884C995.186 717.879 1007.69 706.869 1016.7 693.862C1026.7 679.854 1031.72 664.845 1031.72 648.836C1031.72 632.83 1027.71 618.323 1019.7 605.317C1011.7 592.31 1001.19 582.298 988.182 575.294C984.182 573.296 980.178 573.295 976.178 575.294C972.176 577.295 970.18 579.807 970.18 582.808C970.181 583.806 970.674 584.809 971.671 585.807C978.674 589.809 986.684 597.312 995.688 608.316C1004.69 620.322 1009.2 631.832 1009.2 642.838C1009.2 651.843 1005.19 659.851 997.188 666.854C992.185 670.855 986.179 673.859 979.177 675.86C972.177 677.859 965.176 679.358 958.176 680.358C937.164 680.358 911.635 669.357 881.619 647.344C851.603 625.333 821.59 599.312 791.574 569.296C761.558 540.28 733.542 515.259 707.528 494.247C682.514 473.236 653.99 462.733 621.974 462.732C597.962 462.734 571.947 469.743 543.933 483.75C560.943 469.742 581.457 451.731 605.471 429.719C630.484 406.706 652.496 388.195 671.507 374.188C711.53 342.169 752.557 311.652 794.581 282.635C826.743 259.663 856.558 238.15 884.031 218.107C899.205 207.037 906.53 188.365 898.13 171.565C893.126 158.559 880.564 146.424 859.101 145.348ZM859.101 145.348C859.474 145.367 859.843 145.389 860.21 145.414C860.174 145.412 860.137 145.409 860.101 145.406L859.101 145.348ZM992.653 604.697C992.725 604.781 992.797 604.865 992.869 604.949M990.174 601.878C990.274 601.989 990.374 602.102 990.475 602.214M987.749 599.249C987.868 599.374 987.987 599.5 988.106 599.627M985.437 596.869C985.55 596.983 985.664 597.097 985.777 597.212M971.163 585.245C971.186 585.274 971.21 585.302 971.234 585.331M970.609 580.508C970.658 580.384 970.708 580.26 970.765 580.139M786.696 564.601C786.783 564.684 786.87 564.767 786.957 564.851C787.112 565 787.268 565.149 787.423 565.298C787.181 565.065 786.938 564.833 786.696 564.601ZM786.696 564.601C786.426 564.342 786.157 564.082 785.888 563.824M460.244 542.45C460.579 542.005 460.919 541.553 461.267 541.099M876.602 149.263C876.653 149.285 876.703 149.307 876.754 149.329M599.456 480.751C577.448 480.753 555.937 487.748 534.928 501.753C524.969 507.918 516.708 515.11 510.121 523.3C526.031 537.317 542.613 552.642 559.841 569.296C589.858 599.313 619.877 625.332 649.894 647.344C679.91 669.356 705.431 680.358 726.443 680.358C733.445 679.358 740.45 677.86 747.452 675.86C754.456 673.859 760.46 670.856 765.463 666.854C773.468 659.85 777.467 651.843 777.467 642.838C777.467 637.134 776.252 631.297 773.833 625.324C761.474 611.661 747.876 596.487 733.044 579.801C711.032 553.786 690.01 530.769 669.999 510.758C650.989 490.75 627.47 480.751 599.456 480.751ZM137.482 1.5C156.396 1.50069 170.718 6.61343 180.431 16.8375C190.654 26.5503 194.23 39.8446 191.163 56.7133C188.607 73.5825 180.936 87.1388 168.157 97.3633C155.378 107.074 139.269 111.926 119.847 111.927C100.422 111.926 85.8457 107.075 76.1325 97.3633C66.4196 87.1385 62.8435 73.5836 65.3995 56.7133C68.4674 39.8447 76.3925 26.5503 89.1718 16.8375C101.951 6.61518 118.059 1.50066 137.482 1.5ZM971.054 585.104C971.042 585.089 971.029 585.073 971.018 585.058C970.976 585.002 970.936 584.946 970.898 584.89C970.947 584.961 970.999 585.033 971.054 585.104ZM367.732 489.919C371.612 489.919 375.935 490.128 380.536 490.544C400.476 493.118 417.436 501.899 431.749 516.965L431.829 517.049L431.91 517.13C438.566 523.785 445.335 530.793 452.231 538.141C449.117 542.359 446.522 546.292 444.506 549.922L444.41 550.093L444.323 550.269C442.241 554.434 440.579 558.147 439.417 561.344C438.744 563.198 438.121 565.188 437.744 567.178H322.771C302.955 567.178 285.718 564.458 271.07 559.044C271.241 558.191 271.433 557.337 271.583 556.469C276.954 537 288.883 521.4 308.02 509.552L308.158 509.471L308.28 509.381C328.011 496.228 347.785 489.92 367.732 489.919ZM575.878 417.249C576.669 416.406 577.452 415.575 578.227 414.758C578.263 414.72 578.298 414.681 578.334 414.644C577.524 415.498 576.706 416.367 575.878 417.249ZM677.359 170.455C677.383 170.516 677.407 170.577 677.432 170.638L677.43 170.633C677.406 170.574 677.383 170.514 677.359 170.455Z" stroke="white" stroke-width="3"/>
</svg>
